<?xml version="1.0" encoding="utf-8"?>
<svg xmlns="http://www.w3.org/2000/svg" id="Layer_1" viewBox="0 0 1784.84 1268.46">
  <defs>
    <clipPath id="clip-path">
      <path d="M505.22,369.71c-1.22-51.32,30-39.68,30.86-37.41a42,42,0,0,1,1.94,7.38C542,363.4,524.62,383.94,505.22,369.71Z" fill="none"/>
    </clipPath>
    <clipPath id="clip-path-2">
      <path d="M475.29,370.57C467,315.81,431.17,325,423.67,352.92,426.91,374.93,462.3,395.68,475.29,370.57Z" fill="none"/>
    </clipPath>
  </defs>
  <g id="Layer_2">
    <path d="M227.72,536.89a207.55,207.55,0,0,1-54.6,1.28C97.5,529.38-66.93,492,29.5,334.07c123-201.47,388.92-291.6,388.92-291.6s246.06-84.83,392.9,15.9c33.84,23.22,58,48.12,75.11,72.71,42.63,61.2,35.41,158.67-14.95,208.31-61.85,61-150.57,160.39-87.94,174.94,91.28,21.21,329.4-31.81,329.4-31.81s357.18-84.83,472.27,15.91,154.78,175,194.47,312.81-150.81,402.94-515.93,450.66-746.11-180.27-746.11-180.27-234.15-159.05-127-265.09c36.56-36.18,54.18-75.44,61.53-111.48,13.37-65.6-16.77-133-66.24-149C343.42,542.32,283.13,528.61,227.72,536.89Z" fill="#c5ebeb"/>
    <path d="M1049.62,140.31c-69,58.1-46.28,159.31-46.28,159.31s-.38,181.51,286.84,18-12.84-297.47-12.84-297.47S1188.79-32.37,1141.24,32c-28.5,38.59-31.47,46.44-42.58,60.08C1091.23,101.26,1083.57,111.71,1049.62,140.31Z" fill="#c5ebeb"/>
    <path d="M598.45,1263.5c-106.59,8.65-96.77-61-67.22-72-40.36-37.49-38.63-76.58-12.38-90s73.76,62.1,72.31,103.83C611.56,1166.62,631.77,1215,598.45,1263.5Z" fill="#8c9633"/>
    <path d="M323.34,1028.7c21.91-21.39,37.26,18.83,55.68,16.21s37.74,9.23,45.45,28.54,8.14,23.82,39.84,31.8,26.3,36.13,34.41,44.36c20.1,20.42,59.06,56.1,46.34,96.7l-8.39,16.87-103.39,1c-26.69-5.48-60-35.88-62.53-102.83-1.34-35.81-31.44-39.41-31.92-69S313,1044.24,323.34,1028.7Z" fill="#a6b050"/>
    <path d="M458.32,1126.06a1.37,1.37,0,0,0-2.62.82h0c5.14,16.46-2.32,33.27-9.74,37.88-18.59-24.52-43.95-56.69-70.37-86.4.62-2.17,2.08-9.14-1.07-18.61a1.37,1.37,0,0,0-2.6.87,31.58,31.58,0,0,1,1.42,15.21c-11.4-12.73-23-24.94-34.24-35.84a1.38,1.38,0,0,0-1.91,2h0c23.11,22.33,47.46,50.24,69.07,76.72-4.49,2.24-20.46,5.2-27.61-.73a1.37,1.37,0,0,0-1.75,2.11h0c8,6.65,24.34,3.78,30.24,1.19.33-.15.61-.29.87-.43,36.64,45.05,99.45,133.69,99.91,134.34a1.38,1.38,0,0,0,1.67.47l.24-.14a1.35,1.35,0,0,0,.34-1.89v0c-.27-.4-45.61-64.23-62.52-86.61C456.9,1161.06,463.47,1142.54,458.32,1126.06Z" fill="#8c9633"/>
    <path d="M1265.46,1262.9c-54.88,6-66-29-49.1-40-30.4-17.7-37.58-41.26-23.11-53.32s54.66,28.33,59.61,54.54C1260.14,1197.13,1294.45,1259.34,1265.46,1262.9Z" fill="#8c9633"/>
    <path d="M1169.15,1028.7c21.91-21.39,37.26,18.83,55.68,16.21s37.74,9.23,45.45,28.54,8.14,23.82,39.84,31.8,26.3,36.13,34.41,44.36c20.1,20.42,59.06,56.1,46.34,96.7l-8.61,20.09-89,1c-26.69-5.48-74.25-39.18-76.74-106.13-1.34-35.81-31.44-39.41-31.92-69S1158.76,1044.24,1169.15,1028.7Z" fill="#a6b050"/>
    <path d="M1304.13,1126.06a1.37,1.37,0,1,0-2.62.82h0c5.14,16.46-2.32,33.27-9.75,37.88-18.58-24.52-43.94-56.69-70.36-86.4.62-2.17,2.08-9.14-1.07-18.61a1.37,1.37,0,0,0-2.6.87h0a31.33,31.33,0,0,1,1.41,15.21c-11.39-12.73-23-24.94-34.24-35.84a1.38,1.38,0,1,0-1.9,2c23.11,22.33,47.45,50.24,69.07,76.72-4.49,2.24-20.46,5.2-27.61-.73a1.37,1.37,0,0,0-1.75,2.11c8,6.65,24.34,3.78,30.24,1.19.33-.15.61-.29.87-.43,36.64,45.05,99.45,133.69,99.91,134.34a1.38,1.38,0,0,0,1.67.47l.24-.14a1.35,1.35,0,0,0,.34-1.89v0c-.28-.4-45.61-64.23-62.52-86.61C1302.71,1161.06,1309.28,1142.54,1304.13,1126.06Z" fill="#8c9633"/>
    <path d="M817.53,1263.82c-18.78,1.29-40.91,6.26-52.5-.64-32.1-19.09-30.35-67.1-8.79-75.14-40.07-37.22-42.91-75.4-16.84-88.75s73.21,61.63,71.77,103.06C831.41,1164,850.6,1215.71,817.53,1263.82Z" fill="#8c9633"/>
    <path d="M860.07,1266.61c-45.55,3.11-58-42.81-39.1-49.86-25.77-23.94-27.6-48.5-10.83-57.09s47.1,39.65,46.17,66.3C869.33,1201.27,881.34,1235.65,860.07,1266.61Z" fill="#a6b050"/>
    <path d="M766.35,1264.29c23.16-78.24-20.08-135.34-50.51-112.21-12.29-65.62-49.85-93.45-80.62-75.26s15.87,115.76,59.57,141.29c-40.6-3.18-32.35,34.39,16.5,46.82C726,1268.66,744.58,1265.77,766.35,1264.29Z" fill="#a6b050"/>
    <path d="M1721.74,766.43c-51.36-34.08-66.62,51.24-104,53s-71.16,32.43-79.17,73.51-7.15,50.18-66.84,77.85-49,77.52-51.38,100.66-94.39,97.4-31.49,193.33l203.82-1.08c50.72-20.86,89.23-145.16,85.13-217.18s47.38-89.74,37.23-148.35S1748.12,793.25,1721.74,766.43Z" fill="#8c9633"/>
    <path d="M1491.35,1009.66a2.77,2.77,0,0,1,5.5.63c-4,34.48,17.07,64.93,33.5,71.26,27.55-55.47,65.61-128.62,106.7-197.29-2-4.07-7.54-17.29-4.87-37.2a2.76,2.76,0,1,1,5.48.74c-1.94,14.41.83,25.06,2.91,30.61,17.76-29.45,36-58,54.25-83.74a2.77,2.77,0,0,1,4.52,3.19c-37.33,52.85-75,117.19-107.8,177.67,9.72,2.74,42.41,2.61,54.33-11.81a2.76,2.76,0,0,1,4.26,3.52c-13.36,16.17-46.72,16.62-59.37,13.7-.69-.16-1.31-.33-1.87-.51-55.55,102.84-133.49,272.59-134.14,274a2.77,2.77,0,0,1-3.14,1.55,2.43,2.43,0,0,1-.52-.17,2.77,2.77,0,0,1-1.38-3.66c.4-.89,53.1-115,78.14-165.61C1507.3,1078.34,1487.36,1044.18,1491.35,1009.66Z" fill="#607d28"/>
    <path d="M1784.49,1018.6c-22.62-22.09-38.48,19.46-57.51,16.74s-39,9.54-46.94,29.48-8.4,24.61-41.14,32.84-27.17,37.32-35.54,45.82c-20.76,21.1-61,57.94-47.87,99.87l8.89,20.76,91.89,1.07c27.56-5.66,76.68-40.46,79.26-109.62,1.38-37,32.47-40.7,33-71.21S1795.22,1034.65,1784.49,1018.6Z" fill="#a6b050"/>
    <path d="M1645.08,1119.16a1.42,1.42,0,0,1,1.76-.94h0a1.43,1.43,0,0,1,.93,1.77c-5.31,17,2.39,34.37,10.06,39.13,19.2-25.33,45.39-58.55,72.67-89.24-.63-2.24-2.14-9.43,1.11-19.21a1.42,1.42,0,0,1,2.75.71l-.06.18a32.51,32.51,0,0,0-1.46,15.71c11.77-13.15,23.72-25.76,35.36-37a1.42,1.42,0,1,1,2.18,1.82,1,1,0,0,1-.18.18c-23.87,23.07-49,51.9-71.34,79.24,4.64,2.32,21.13,5.38,28.52-.75a1.42,1.42,0,0,1,1.81,2.18c-8.29,6.87-25.15,3.91-31.24,1.23-.34-.15-.63-.3-.9-.44-37.84,46.52-102.71,138.08-103.18,138.74a1.41,1.41,0,0,1-1.73.49,1.23,1.23,0,0,1-.25-.14,1.44,1.44,0,0,1-.36-2l0,0c.28-.41,47.11-66.33,64.58-89.44C1646.55,1155.31,1639.76,1136.18,1645.08,1119.16Z" fill="#8c9633"/>
    <path d="M72.19,751.69c52.88-35.07,68.59,52.76,107.11,54.53s73.26,33.39,81.51,75.69,7.35,51.65,68.81,80.14,50.45,79.81,52.9,103.63,97.17,100.28,32.42,199l-209.84-1.12c-52.22-21.47-91.87-149.45-87.65-223.59S68.67,947.63,79.12,887.29,45,779.31,72.19,751.69Z" fill="#8c9633"/>
    <path d="M309.38,1002.11a2.84,2.84,0,1,0-5.65.66c4.11,35.49-17.58,66.84-34.49,73.36C240.87,1019,201.69,943.71,159.39,873c2.09-4.18,7.76-17.79,5-38.29a2.85,2.85,0,1,0-5.68.44c0,.11,0,.21,0,.32,2,14.84-.85,25.8-3,31.51-18.29-30.32-37.11-59.66-55.86-86.21a2.85,2.85,0,1,0-4.77,3.12l.12.17c38.43,54.41,77.2,120.65,111,182.91-10,2.82-43.67,2.69-55.94-12.16a2.84,2.84,0,1,0-4.38,3.63c13.75,16.64,48.1,17.11,61.12,14.11.72-.17,1.35-.35,1.93-.53,57.19,105.88,137.43,280.64,138.1,282.13a2.84,2.84,0,0,0,3.24,1.6,2.55,2.55,0,0,0,.53-.18,2.84,2.84,0,0,0,1.42-3.76h0c-.41-.92-54.67-118.4-80.45-170.51C293,1072.82,313.5,1037.65,309.38,1002.11Z" fill="#607d28"/>
    <path d="M7.59,1011.32c23.29-22.74,39.62,20,59.21,17.23s40.12,9.82,48.33,30.35,8.65,25.34,42.35,33.81,28,38.42,36.59,47.18c21.38,21.71,62.8,59.65,49.28,102.82l-9.15,21.37-94.6,1.1c-28.38-5.83-78.95-41.66-81.6-112.85-1.42-38.08-33.44-41.91-33.94-73.32S-3.46,1027.84,7.59,1011.32Z" fill="#a6b050"/>
    <path d="M151.12,1114.85a1.46,1.46,0,1,0-2.79.87c5.47,17.5-2.46,35.38-10.36,40.28-19.77-26.08-46.73-60.29-74.82-91.88.66-2.31,2.21-9.71-1.14-19.78a1.46,1.46,0,0,0-2.77.92,33.53,33.53,0,0,1,1.51,16.17c-12.12-13.53-24.42-26.52-36.41-38.11a1.46,1.46,0,0,0-2.2,1.92,1.8,1.8,0,0,0,.2.19c24.58,23.75,50.46,53.43,73.45,81.58-4.77,2.38-21.75,5.53-29.36-.78a1.46,1.46,0,0,0-1.86,2.25c8.52,7.07,25.88,4,32.16,1.26.34-.15.65-.3.92-.45,39,47.9,105.75,142.16,106.23,142.84a1.47,1.47,0,0,0,1.79.5l.25-.14a1.46,1.46,0,0,0,.35-2c-.29-.42-48.5-68.29-66.48-92.09C149.61,1152.06,156.59,1132.37,151.12,1114.85Z" fill="#8c9633"/>
    <rect fill="#f5de6c" height="128.71" rx="19.03" width="174.59" x="1400.89" y="436.95"/>
    <path d="M1549.55,466.53H1426.83a3.23,3.23,0,0,1-.36-6.45h123.08a3.23,3.23,0,0,1,.36,6.45,2.16,2.16,0,0,1-.36,0Z" fill="#bec95e"/>
    <path d="M1480.27,489.5h-53.44a3.23,3.23,0,0,1,0-6.46h53.44a3.23,3.23,0,1,1,0,6.46Z" fill="#bec95e"/>
    <path d="M1549.65,489.5h-51.06a3.23,3.23,0,0,1,0-6.46h51.06a3.23,3.23,0,1,1,0,6.46Z" fill="#bec95e"/>
    <path d="M1508.26,513.9h-81.43a3.23,3.23,0,0,1,0-6.46h81.43a3.23,3.23,0,1,1,0,6.46Z" fill="#bec95e"/>
    <path d="M1549.65,513.9h-23.92a3.23,3.23,0,0,1,0-6.46h23.92a3.23,3.23,0,1,1,0,6.46Z" fill="#bec95e"/>
    <path d="M1480.27,536.87h-53.44a3.23,3.23,0,0,1,0-6.46h53.44a3.23,3.23,0,0,1,0,6.46Z" fill="#bec95e"/>
    <path d="M1548.69,536.87h-50.1a3.23,3.23,0,0,1,0-6.46h50.1a3.23,3.23,0,0,1,0,6.46Z" fill="#bec95e"/>
    <rect fill="#d5dba0" height="102.02" rx="15.08" width="138.39" x="545.78" y="31.53"/>
    <rect fill="#fabbc4" height="368.31" rx="54.45" width="499.62" x="730.52" y="127.82"/>
    <rect fill="#e35466" height="62.02" rx="9.17" width="84.13" x="783.65" y="178.13"/>
    <path d="M850,234.92H784.25a10.18,10.18,0,0,1-10.16-10.17V181.07a10.18,10.18,0,0,1,10.16-10.17H850a10.19,10.19,0,0,1,10.17,10.17v43.68A10.19,10.19,0,0,1,850,234.92Zm-65.79-62a8.19,8.19,0,0,0-8.17,8.17v43.68a8.19,8.19,0,0,0,8.17,8.17H850a8.17,8.17,0,0,0,8.17-8.17v-43.7A8.19,8.19,0,0,0,850,172.9Z" fill="#cc3e51"/>
    <rect fill="#e35466" height="62.02" rx="9.17" width="84.13" x="931.21" y="178.13"/>
    <path d="M997.61,234.92h-65.8a10.18,10.18,0,0,1-10.16-10.17V181.07a10.18,10.18,0,0,1,10.16-10.17h65.8a10.18,10.18,0,0,1,10.16,10.17v43.68A10.18,10.18,0,0,1,997.61,234.92Zm-65.8-62a8.19,8.19,0,0,0-8.17,8.17v43.68a8.19,8.19,0,0,0,8.17,8.17h65.8a8.17,8.17,0,0,0,8.16-8.17v-43.7a8.18,8.18,0,0,0-8.16-8.17Z" fill="#cc3e51"/>
    <rect fill="#e35466" height="62.02" rx="9.17" width="84.13" x="1081.45" y="178.13"/>
    <path d="M1147.84,234.92h-65.79a10.19,10.19,0,0,1-10.17-10.17V181.07a10.19,10.19,0,0,1,10.17-10.17h65.79A10.19,10.19,0,0,1,1158,181.07v43.68A10.18,10.18,0,0,1,1147.84,234.92Zm-65.79-62a8.19,8.19,0,0,0-8.17,8.17v43.68a8.17,8.17,0,0,0,8.17,8.17h65.79a8.17,8.17,0,0,0,8.17-8.17h0v-43.7a8.19,8.19,0,0,0-8.17-8.17Z" fill="#cc3e51"/>
    <path d="M1155.46,474H764.73a55.94,55.94,0,0,1-55.87-55.88V158.66a55.94,55.94,0,0,1,55.87-55.88h390.73a55.94,55.94,0,0,1,55.87,55.88V418.07A56,56,0,0,1,1155.46,474ZM764.73,105.64a53.07,53.07,0,0,0-53,53V418.07a53.07,53.07,0,0,0,53,53h390.73a53.08,53.08,0,0,0,53-53V158.66a53.08,53.08,0,0,0-53-53Z" fill="#cc3e51"/>
    <path d="M984.18,302.23h-206a6.51,6.51,0,1,1-.72-13H984.18a6.51,6.51,0,0,1,.72,13Z" fill="#e35466"/>
    <path d="M1168.47,302.23H1018.15a6.51,6.51,0,1,1-.72-13h151a6.51,6.51,0,0,1,0,13Z" fill="#e35466"/>
    <path d="M927.09,334.75H778.22a6.51,6.51,0,1,1-.72-13H927.09a6.51,6.51,0,0,1,0,13Z" fill="#e35466"/>
    <path d="M1168.47,334.75H963.22a6.51,6.51,0,0,1,0-13h205.25a6.51,6.51,0,0,1,0,13Z" fill="#e35466"/>
    <path d="M984.18,367.27h-206a6.51,6.51,0,1,1-.72-13H984.18a6.51,6.51,0,0,1,.72,13Z" fill="#e35466"/>
    <path d="M1168.47,367.27H1018.15a6.51,6.51,0,1,1-.72-13h151a6.51,6.51,0,0,1,0,13Z" fill="#e35466"/>
    <path d="M927.09,399.79H778.22a6.51,6.51,0,1,1-.72-13q.36,0,.72,0H927.09a6.51,6.51,0,0,1,0,13Z" fill="#e35466"/>
    <path d="M1168.47,399.79H963.22a6.51,6.51,0,0,1,0-13h205.25a6.51,6.51,0,0,1,0,13Z" fill="#e35466"/>
    <rect fill="#bec95e" height="192.19" rx="28.41" width="260.71" x="1272.85" y="51.81"/>
    <path d="M1381.89,140.3a37.87,37.87,0,1,1-56.37-20.49L1318.26,108A51.66,51.66,0,1,0,1395,136Z" fill="#e2435f"/>
    <path d="M1345.8,100.09a51.47,51.47,0,0,0-27.54,8l7.26,11.77a37.79,37.79,0,0,1,56.37,20.49L1395,136.1A51.65,51.65,0,0,0,1345.8,100.09Z" fill="#fff7f0"/>
    <path d="M1501.94,124.54h-73.78a4.64,4.64,0,0,1,0-9.28h73.78a4.64,4.64,0,0,1,0,9.28Z" fill="#e35466"/>
    <path d="M1472.16,159.14h-44a4.64,4.64,0,0,1,0-9.28h44a4.64,4.64,0,0,1,0,9.28Z" fill="#e35466"/>
    <path d="M1501.71,159.14h-11.22a4.64,4.64,0,0,1,0-9.28h11.22a4.64,4.64,0,0,1,0,9.28Z" fill="#e35466"/>
    <path d="M1450.5,191.56h-22.34a4.64,4.64,0,0,1,0-9.28h22.34a4.64,4.64,0,1,1,0,9.28Z" fill="#e35466"/>
    <path d="M1501.71,191.56H1468a4.64,4.64,0,0,1,0-9.28h33.68a4.64,4.64,0,0,1,0,9.28Z" fill="#e35466"/>
    <path d="M244.73,425h-.47A10.73,10.73,0,0,1,234,413.82v0l3.85-90.55a5.47,5.47,0,0,0-.94-3.4,5.68,5.68,0,0,0-6.1-2.37l-52.66,15.78a10.74,10.74,0,1,1-6.32-20.53l.17,0,52.85-15.84.31-.09a27.17,27.17,0,0,1,34.15,27.41l-3.86,90.56A10.73,10.73,0,0,1,244.73,425Z" fill="#6c94bd"/>
    <path d="M843.42,1250.32a3.46,3.46,0,0,0,.78-.09,2.74,2.74,0,0,0,2.21-3.18,1.06,1.06,0,0,0,0-.19l-14.55-49.77a3.1,3.1,0,0,0-3.73-2,2.74,2.74,0,0,0-2.22,3.18,1.16,1.16,0,0,0,0,.18l14.55,49.78A3,3,0,0,0,843.42,1250.32Z" fill="#6c94bd"/>
    <path d="M807.15,1126.28a3.46,3.46,0,0,0,.78-.09,2.74,2.74,0,0,0,2.21-3.18,1.06,1.06,0,0,0,0-.19L694.59,727.74a3.1,3.1,0,0,0-3.73-2,2.74,2.74,0,0,0-2.21,3.18,1.06,1.06,0,0,0,0,.19L804.2,1124.22A3,3,0,0,0,807.15,1126.28Z" fill="#6c94bd"/>
    <path d="M688.06,1184.62a3,3,0,0,0,2.92-2l94.5-282.9a2.72,2.72,0,0,0-1.81-3.38l-.19-.05a3.1,3.1,0,0,0-3.8,1.84L685.17,1181a2.72,2.72,0,0,0,1.81,3.38l.19,0A3.4,3.4,0,0,0,688.06,1184.62Z" fill="#6c94bd"/>
    <path d="M792.46,872.08a3,3,0,0,0,2.92-2l33-98.88a2.73,2.73,0,0,0-1.85-3.39l-.15,0a3.12,3.12,0,0,0-3.8,1.84l-33,98.88a2.72,2.72,0,0,0,1.81,3.38l.19,0A3.26,3.26,0,0,0,792.46,872.08Z" fill="#6c94bd"/>
    <path d="M634.59,897.66a3.13,3.13,0,0,0,2.62-1.33,2.6,2.6,0,0,0-.71-3.61l-.29-.17-44.53-24.29a3.24,3.24,0,0,0-4.2.93,2.6,2.6,0,0,0,.72,3.61l.28.16L633,897.26A3.38,3.38,0,0,0,634.59,897.66Z" fill="#6c94bd"/>
    <path d="M947.39,1068.3A3.13,3.13,0,0,0,950,1067a2.59,2.59,0,0,0-.69-3.6,1.92,1.92,0,0,0-.31-.18L696.32,925.36a3.27,3.27,0,0,0-4.2.93,2.61,2.61,0,0,0,.72,3.62l.28.16L945.81,1067.9A3.34,3.34,0,0,0,947.39,1068.3Z" fill="#6c94bd"/>
    <path d="M678,987.33c27.91,114.06,106,194.49,174.44,179.67s101.35-119.35,73.49-233.42S820,739.05,751.54,753.9,650.18,873.26,678,987.33Zm11.71-154.18c12.76-38.76,35.14-63.29,63-69.07a64.52,64.52,0,0,1,13-1.33c52.18,0,122.8,65.14,150.64,174.14,13.9,54.41,13.78,108-.33,150.84-12.76,38.75-35.14,63.29-63,69.07a64.51,64.51,0,0,1-13,1.32c-52.18,0-122.8-65.13-150.64-174.13-13.86-54.42-13.74-108,.37-150.84Z" fill="#6c94bd"/>
    <path d="M730.6,939.87c3.57-10.86,9.84-17.73,17.65-19.35a18.6,18.6,0,0,1,3.65-.37c14.61,0,34.39,18.24,42.19,48.77,3.89,15.24,3.86,30.24-.1,42.24-3.57,10.86-9.84,17.73-17.65,19.35a17.87,17.87,0,0,1-3.65.37c-14.61,0-34.38-18.24-42.18-48.77C726.62,966.87,726.65,951.87,730.6,939.87Z" fill="#3d668f"/>
    <path d="M581.54,1013c40.63,159.07,154.5,271.24,254.33,250.53S983.69,1097.1,943.06,938,788.55,666.77,688.72,687.48,540.9,853.94,581.54,1013Zm30.19-206.83c17-51.56,46.76-84.19,83.84-91.89a84.89,84.89,0,0,1,17.34-1.76c69.41,0,163.35,86.65,200.38,231.65,18.49,72.39,18.34,143.65-.43,200.65-17,51.56-46.75,84.2-83.84,91.89a84.79,84.79,0,0,1-17.33,1.76c-69.42,0-163.35-86.65-200.39-231.65-18.49-72.36-18.3-143.62.43-200.63Z" fill="#3d668f"/>
    <path d="M589.52,816.2H271.07A62,62,0,0,1,209,754.28c0-1.07,0-2.14.08-3.21l16.09-322.5a25.3,25.3,0,0,1,25.28-24.05H398.87Z" fill="#3d668f"/>
    <rect fill="#3d668f" height="22.59" width="375.07" x="528.57" y="1112.56"/>
    <path d="M630.6,817.43l71.9-25.88C709.63,892,756.65,1051,756.65,1051l73.82-1.9,13.27-39.33C824.57,942.27,824.44,803,825,757.47a57.81,57.81,0,0,0-6.88-28h0a57.82,57.82,0,0,0-47-30.3l-111-23.55S627.73,783.21,630.6,817.43Z" fill="#fca881"/>
    <path d="M756.59,1052.08a1.06,1.06,0,0,1-1-.77c-.47-1.58-46.68-158.78-54.09-258.26L631,818.45a1.08,1.08,0,0,1-1-.11,1.06,1.06,0,0,1-.5-.82c-2.85-34,28.22-137.82,29.55-142.22a1.07,1.07,0,0,1,1.26-.74l111,23.55a58.18,58.18,0,0,1,24.4,7.23A58.94,58.94,0,0,1,826,757.48c-.48,42-.52,184.18,18.74,252a1,1,0,0,1,0,.64l-13.28,39.34a1.08,1.08,0,0,1-1,.73l-73.82,1.9Zm-54-261.61a1,1,0,0,1,.53.18,1.06,1.06,0,0,1,.48.82c6.79,95.53,50.28,246.11,53.88,258.43l72.23-1.86,12.93-38.3c-19.25-68.22-19.21-210.31-18.73-252.29A56.74,56.74,0,0,0,771,700.24L660.85,676.88c-3.14,10.59-31,105.75-29.27,139l70.55-25.4a1.24,1.24,0,0,1,.43,0Z" fill="#e37b61"/>
    <path d="M750.31,1036.54c-18.21,28.78-12,67.07,7.16,75.72l221.12-.56c26.94-20.09-109.08-104.19-109.08-104.19-5.29-26.1-55.76-15.53-55.66,21.91C805.18,1045.11,759.9,1040,750.31,1036.54Z" fill="#e35466"/>
    <path d="M869.51,1007.51c-5.29-26.1-55.76-15.53-55.66,21.91l92.75,67.78,35.19,7.34s15.51-6.55,33.68-14.37C951.31,1058.09,869.51,1007.51,869.51,1007.51Z" fill="#fff"/>
    <path d="M742.86,1112.3l235.73-.6c9.29-6.93-.8-21.47-18-37.54-14.39,6.24-23.82,19-23.82,19l-194.26.49C737,1099.23,736.07,1109.24,742.86,1112.3Z" fill="#fff"/>
    <path d="M742.44,1094.73a1.08,1.08,0,0,1,.06-2.16l193.72-.49c1.83-2.35,10.78-13.21,23.93-18.91a1.09,1.09,0,1,1,.86,2c-14,6.06-23.29,18.52-23.38,18.65a1.11,1.11,0,0,1-.87.44l-194.26.49Z" fill="#cc3e51"/>
    <path d="M742.8,1113.38a1.3,1.3,0,0,1-.39-.09,9.1,9.1,0,0,1-5.24-6.9,16,16,0,0,1,4.1-13c-5.9-17.79-2.74-40.25,8.13-57.42a1.07,1.07,0,0,1,1.28-.43c9.72,3.5,53.55,8.17,62.09-6.4.09-21.79,17.29-35.29,33.51-36.94,12.44-1.26,21.88,4.47,24.19,14.65,5.21,3.25,60.68,38.08,91.55,67.19l4.34,4.21c.48.48.94,1,1.4,1.43l.69.72c.42.44.84.87,1.24,1.3l.51.55c.53.57,1,1.14,1.54,1.7l.57.65q.56.63,1.08,1.26l.48.57c.47.55.92,1.11,1.36,1.66l.42.54,1,1.26.4.55c.4.55.79,1.09,1.15,1.63l.17.26c.39.59.67,1,.93,1.44l.32.52c.32.54.63,1.07.91,1.59l.11.23c.25.46.47.92.69,1.37l.21.47c.21.46.4.92.57,1.37l.08.2c.18.49.34,1,.47,1.47l.12.43c.1.41.19.81.26,1.2v.3a13.46,13.46,0,0,1,.14,1.41v.23c0,.41,0,.83,0,1.24v.32a11.81,11.81,0,0,1-.25,1.32,1.87,1.87,0,0,0-.07.22,11,11,0,0,1-.41,1.09l-.14.31a7.8,7.8,0,0,1-.7,1.18.71.71,0,0,0-.1.14,11.06,11.06,0,0,1-.81,1l-.28.28a9.64,9.64,0,0,1-1.12,1,1.07,1.07,0,0,1-.64.21l-235.74.6Zm8-75.54c-10.29,16.74-13.15,38.41-7.26,55.46a1.06,1.06,0,0,1-.25,1.11,13.91,13.91,0,0,0-4,11.59,7,7,0,0,0,3.81,5.22l235.12-.6c.22-.18.44-.37.64-.57l.21-.21a7.36,7.36,0,0,0,.62-.74l1,.5-.88-.62a6,6,0,0,0,.52-.88l.1-.24a5.24,5.24,0,0,0,.3-.78l1.11.07-1-.29a8.43,8.43,0,0,0,.2-1l1.09-.16-1.07-.09a6.76,6.76,0,0,0,0-.9l1.08-.34-1.08.05a11.6,11.6,0,0,0-.12-1.17l1-.44-1.06.19a9.19,9.19,0,0,0-.23-1l-.1-.37q-.18-.64-.42-1.32c-.23-.59-.4-1-.59-1.42l-.2-.44c-.2-.43-.41-.85-.64-1.29l.84-.72-.95.51c-.26-.49-.55-1-.86-1.5l-.3-.49c-.25-.4-.51-.81-.79-1.23l-.26-.4c-.35-.51-.72-1-1.1-1.57l-.27-.35c-.43-.58-.74-1-1.06-1.4l-.41-.53q-.63-.8-1.32-1.62l-.46-.54c-.36-.43-.71-.84-1.07-1.25l-.56-.64-1.5-1.66-.51-.54c-.4-.43-.8-.86-1.22-1.29l-.68-.7c-.45-.47-.92-.94-1.38-1.41l-4.29-4.17c-32.1-30.26-91-66.8-91.6-67.17a1.1,1.1,0,0,1-.49-.7c-2.29-11.29-12.84-14.32-22-13.39-15.34,1.56-31.63,14.38-31.57,35.07a1.08,1.08,0,0,1-.14.53c-8.65,15.69-52.13,11.55-64,7.84Z" fill="#cc3e51"/>
    <path d="M784.35,1068.67a12.19,12.19,0,1,1-12.22-12.16A12.19,12.19,0,0,1,784.35,1068.67Z" fill="#fff"/>
    <path d="M771.42,1082a13.27,13.27,0,1,1,14-13.29h0A13.31,13.31,0,0,1,772.19,1082Zm1.36-24.34h-.65a11.1,11.1,0,1,0,11.14,11.08h0a11.12,11.12,0,0,0-10.49-11.06Z" fill="#422828"/>
    <path d="M904.77,1070.77a2.73,2.73,0,0,1-.9-.13A2.92,2.92,0,0,1,902,1067c2.57-8.11,14.5-29.84,26.12-30.73,3-.23,7.36.84,10.57,7.31a2.92,2.92,0,1,1-5.24,2.59h0c-2.13-4.29-4.19-4.12-4.88-4.07-7,.53-18.24,18-21,26.67A2.9,2.9,0,0,1,904.77,1070.77Z" fill="#47302d"/>
    <path d="M868.52,1056.72a12.21,12.21,0,1,1,12.18-12.24A12.21,12.21,0,0,1,868.52,1056.72Zm0-18.57a6.37,6.37,0,1,0,6.38,6.36h0a6.36,6.36,0,0,0-6.37-6.35h0Z" fill="#47302d"/>
    <path d="M868.6,1045.07a3,3,0,0,1-.89-.14,2.92,2.92,0,0,1-1.9-3.67h0c2.57-8.11,14.5-29.84,26.12-30.73,3-.23,7.36.85,10.56,7.31a2.92,2.92,0,1,1-5.24,2.6h0c-2.12-4.3-4.18-4.13-4.88-4.08-7,.54-18.24,18-21,26.67A2.93,2.93,0,0,1,868.6,1045.07Z" fill="#47302d"/>
    <path d="M903.63,1082.38a12.21,12.21,0,1,1,12.18-12.24,12.21,12.21,0,0,1-12.18,12.24Zm0-18.57a6.37,6.37,0,1,0,6.38,6.36h0a6.37,6.37,0,0,0-6.39-6.35h0Z" fill="#47302d"/>
    <path d="M506.44,761.77l67.67,29.77c6.61,100.46,52.79,259.73,52.79,259.73l73.83-1.51,13.48-39.27C695.39,942.9,696,803.62,696.75,758.1a57.62,57.62,0,0,0-6.73-28h0a57.76,57.76,0,0,0-46.82-30.54l-52.7-3.88S503.75,727.53,506.44,761.77Z" fill="#fca881"/>
    <path d="M701,1050.81h-.25l-73.83,1.51a1.07,1.07,0,0,1-1.06-.78C625.4,1050,580,892.55,573.13,793L506.8,762.79a1.1,1.1,0,0,1-.95-.11,1.12,1.12,0,0,1-.49-.83c-2.7-34.35,80.66-63.41,84.4-67a1,1,0,0,1,.82-.29l52.7,3.87a58.87,58.87,0,0,1,54.55,59.68c-.69,42-1.49,184.15,17.42,252.09a1.16,1.16,0,0,1,0,.64l-13.48,39.26A1.1,1.1,0,0,1,701,1050.81Zm-73.3-.63,72.25-1.49,13.13-38.23c-18.9-68.34-18.11-210.41-17.41-252.38a56.73,56.73,0,0,0-52.55-57.49l-52.21-3.83c-6,5.83-83.53,30.3-83.45,63.5l66.29,30.26a1,1,0,0,1,1,.12,1.06,1.06,0,0,1,.48.83C581.48,887,624.17,1037.84,627.7,1050.18Z" fill="#e37b61"/>
    <path d="M282.93,345.51c-13.17-4-20,7.48-20,7.48-15.08-8.36-18.48,7.09-18.48,7.09-23.1-8-35.43,23.54-27.6,32.11-24.6-1.1-24.76,17.6-24.76,17.6-29,4.06-26,64.14,15,66-12.73,23.49,11.69,27.07,11.69,27.07,3.68,24.21,43,12.69,43,12.69,19.89,27.42,46.57,14.21,46.57,14.21,48.28,11.34,73.06,3.47,73.06,3.47l84.81-36.8,52.11,4.2s49.8,15.61,79.62-41.48c37.19-.46,34.09-25.63,34.09-25.63,13.09-31.69.83-57.8-15.18-53.76-1.36-8.58-10.34-18.48-12-15.62-1.18-14.3-21.22-23-26-16.16-8.6-8.37-36.43.27-36.43.27Z" fill="#a65537"/>
    <path d="M318.31,398.59,382.16,419,533.4,289.38c3.32-2.91,10-10.4,7.62-24.71-.5-2.91-4.44-11.57-7.39-11.79s-2.5-6.1-4.09-12.43-8.61-3.6-8.61-3.6-.92-7.47-3.64-10.63-8.83-.66-11.55-3.82-1.82-7.24-8.85-12.2-7.47-2.93-10.88-8.8-3.85-3.84-12.68-4.5-14.26-3.14-19.24-7.66-3.4-2-19.69-1.77-8.38-2.69-15.18-6.75-18.76,5.69-30.3,5.72-10.42-3.15-30.54,4.81c-9.72,3.42-13.56,7.27-13.56,7.27s-1.12,3.17-7.23,5.67-9.7,11.11-10.37,16.09-6.1,6.35-15.59,10.66-6.32,9.29-10.6,15.19-14.7,6.59-14,13.15.93,15.16-4.94,18.56-9.72,3.42-8.13,9.75,2.5,2.25-.19,14.48.25,12.44,2.52,17.64-8.27,13.63-3.16,18.6c2.83,2.76,5.45-5.71,3.45,13.08s-4,22.18,1.41,24.66,9.06,5.41,10.43,10.83,6.36,9.95,9.53,11.07,1.6,6.33,6.35,6.1S318.31,398.59,318.31,398.59Z" fill="#a65537"/>
    <circle cx="357.08" cy="335.8" fill="#fab35c" r="10.75"/>
    <path d="M316.4,335.93a10.75,10.75,0,1,0,7.8-13.05h0a10.73,10.73,0,0,0-7.8,13Z" fill="#fab35c"/>
    <path d="M340,519.43c4.26,0,8.62-2.6,9.76-3.33a.92.92,0,1,0-1-1.55c-1.49,1-9.12,5.49-13.14,1.31a18.16,18.16,0,0,1-1.62-2c-2.59-3.52-3.77-5.13-25.63-3.78-17,1-17,1-18.1-4.48a45.68,45.68,0,0,0-3.94-11.93c-5.07-10.43-11.78-9.16-16.69-8.22-2.11.4-3.93.74-5,0a4,4,0,0,1-1.34-2.75c-.46-2.6-1.31-4.2-2.67-5-2-1.22-4.56-.43-7.53.48-3.4,1-7.25,2.22-11.44,1-2.64-.77-3.37-1.43-3.52-1.84-.24-.7.72-2.06,1.84-3.64,1.93-2.73,4.85-6.86,5.54-13,.36-3.2-.15-5.38-1.56-6.66-2.1-1.91-5.61-1.18-8.42-.59-1.42.29-3.36.7-3.85.34a.43.43,0,0,1-.11-.3c-.15-1.89,1.49-4.86,3.07-7.72,2.15-3.88,4.37-7.88,3.55-11.13-.6-2.37-2.71-3.6-4.56-4.69-1.53-.9-3-1.75-3.24-3s.41-2.68,1.89-4.68c2.85-3.84,6-5.74,9-7.57,3.86-2.33,7.49-4.54,9.39-10.28,1.59-4.78,1.31-7.25,1.15-8.73-.15-1.3-.15-1.3,1.93-2.15l.75-.31c5.21-2.11,13.92-5.63,15.8-17.41.6-3.83,1.64-6,3.15-6.74,2.69-1.26,7.66,1.71,14.54,5.82a.92.92,0,0,0,1-1.54l-.06,0c-7.64-4.56-12.68-7.57-16.26-5.9-2.14,1-3.47,3.57-4.19,8.11-1.71,10.75-9.51,13.9-14.67,16l-.76.31c-2.94,1.21-3.29,2-3.06,4.06.15,1.33.39,3.55-1.06,8-1.69,5.09-4.89,7-8.6,9.27-3,1.84-6.48,3.92-9.55,8.05-1.85,2.51-2.55,4.46-2.21,6.15.42,2.07,2.29,3.16,4.11,4.22s3.29,1.94,3.7,3.56c.64,2.55-1.39,6.23-3.36,9.78-1.8,3.25-3.5,6.32-3.3,8.77a2.12,2.12,0,0,0,.84,1.62c1.14.86,3.08.46,5.32,0,2.53-.53,5.4-1.13,6.81.16.93.84,1.26,2.55,1,5.08-.64,5.68-3.28,9.42-5.22,12.15-1.52,2.16-2.62,3.72-2.07,5.31.45,1.27,1.87,2.16,4.75,3,4.72,1.36,9,.05,12.49-1,2.55-.78,4.75-1.45,6-.67.86.53,1.46,1.76,1.82,3.78a5.73,5.73,0,0,0,2.1,3.95c1.7,1.16,4,.73,6.39.27,4.8-.91,10.23-1.94,14.69,7.23A43.41,43.41,0,0,1,288.48,506c1.44,7.11,2.84,7,20,6,20.85-1.29,21.91.16,24,3a20.44,20.44,0,0,0,1.77,2.17A7.63,7.63,0,0,0,340,519.43Z" fill="#c46441"/>
    <path d="M328.45,491a22.31,22.31,0,0,0,3.16-.25,87.06,87.06,0,0,0,14.95-3.51c4-1.24,5.92-1.79,6.73-.85a.92.92,0,1,0,1.47-1.11l-.08-.09c-1.63-1.9-4.28-1.07-8.66.29a84.65,84.65,0,0,1-14.66,3.45c-3.95.54-5.31,0-5.75-.5-.66-.78-.08-2.61.54-4.54.9-2.79,1.91-6,.15-8.48-2.41-3.49-6.88-2.35-11.2-1.24-3.3.84-6.71,1.72-8.66.29-1.74-1.26-1.57-2.59-1.1-5,.54-2.8,1.21-6.28-2.64-10.12s-10.06-2.41-15.6-1.22c-5.09,1.1-8.24,1.62-9-.31-.93-2.38.84-4.56,2.88-7.08,2.27-2.81,4.84-6,3.38-9.9-1.64-4.4-4.3-4.61-6.23-4.76-1.41-.11-2.11-.2-2.59-1.21-.59-1.24-.13-2.23,1.42-5.17a85.2,85.2,0,0,0,7.17-18.24c2.14-7.66,2.14-10.94,1.68-12.41a19.72,19.72,0,0,0,1.72-1,.94.94,0,0,0,.28-1.28.92.92,0,0,0-1.28-.27,8.67,8.67,0,0,1-2.3,1.19.92.92,0,0,0-.24,1.74s1.17,1.5-1.63,11.53a81.41,81.41,0,0,1-7,17.87c-1.59,3-2.46,4.69-1.45,6.82s2.7,2.15,4.1,2.26c1.84.14,3.42.26,4.66,3.56,1.09,2.94-.94,5.44-3.09,8.1s-4.48,5.53-3.17,8.9c1.38,3.53,6.1,2.53,11.09,1.45s10.86-2.32,13.92.73,2.63,5.85,2.13,8.46c-.46,2.4-.94,4.87,1.82,6.88s6.5.95,10.21,0c3.88-1,7.54-1.93,9.23.51,1.24,1.79.41,4.37-.39,6.87s-1.51,4.72-.2,6.28C325,490.51,326.34,491,328.45,491Z" fill="#c46441"/>
    <path d="M316.38,454h.26a.91.91,0,0,0,.8-1,.92.92,0,0,0-1-.8,2.67,2.67,0,0,1-1.89-.89c-1.39-1.36-2.94-4.72-2.45-13,.35-6-.2-8.8-1.84-9.45a2,2,0,0,0-1.91.28.88.88,0,0,0-.84.44l-.43.71a1.07,1.07,0,0,0,.17,1.36,1,1,0,0,0,1.29-.22c.71-.84,1-.86,1.06-.86h0s1.07.66.66,7.63c-.43,7.3.61,12.19,3.09,14.52A4.53,4.53,0,0,0,316.38,454Z" fill="#c46441"/>
    <path d="M204.56,453.79a1,1,0,0,0,.73-.35l5.51-7.07a.92.92,0,0,0-.17-1.3.72.72,0,0,0-.24-.14s-5.11-1.84-7.4-5a.94.94,0,0,1-.23-.77c.2-1,2.36-2.34,4.26-3.5,2.14-1.3,4.35-2.65,5.67-4.39,2.69-3.55,0-5.88-2.69-8.14a27.51,27.51,0,0,1-3.09-2.92,1.9,1.9,0,0,1-.58-1.94c.64-2,5.06-4.31,11.53-5.94a.92.92,0,1,0-.33-1.81l-.12,0c-4.29,1.08-11.66,3.45-12.83,7.17a3.71,3.71,0,0,0,.94,3.69,29.3,29.3,0,0,0,3.28,3.12c3,2.57,3.93,3.64,2.42,5.63-1.1,1.46-3.17,2.72-5.16,3.93-2.54,1.55-4.74,2.89-5.11,4.7a2.81,2.81,0,0,0,.55,2.22c1.92,2.64,5.32,4.39,7.1,5.17l-4.76,6.11a.91.91,0,0,0,.15,1.29h0A.89.89,0,0,0,204.56,453.79Z" fill="#c46441"/>
    <path d="M161.63,447.59a.93.93,0,0,0,.87-.62c1.33-3.76-.6-5.23-2.64-6.79a13.23,13.23,0,0,1-4.12-4.43,3.43,3.43,0,0,1-.52-2.66c.41-1.18,2.14-1.91,3.81-2.62a12.9,12.9,0,0,0,3.35-1.8c2.15-1.85.93-4.57-.61-8a43.59,43.59,0,0,1-2.75-7.4,3.37,3.37,0,0,1,.27-2.79c1.26-1.89,5.25-2.45,9.1-3a38.19,38.19,0,0,0,7.4-1.55c5.05-1.9,4.49-5.53,4-8.46a10,10,0,0,1-.07-4.36c.56-1.87,2.53-2.18,6.92-2.71A59.91,59.91,0,0,0,198.8,388c2.72-.88,4.45-2.12,5.28-3.78,1.17-2.36.24-5-.57-7.39-.92-2.64-1.4-4.33-.34-5.5A1,1,0,1,0,201.8,370h0c-1.86,2.06-.93,4.75,0,7.34.73,2.12,1.49,4.3.66,6-.6,1.19-2,2.13-4.2,2.85a58.35,58.35,0,0,1-11.77,2.37c-4.37.52-7.53.9-8.46,4a11.57,11.57,0,0,0,0,5.17c.46,2.95.79,5.09-2.86,6.45a35.54,35.54,0,0,1-7,1.45c-4.45.64-8.65,1.24-10.37,3.8a5.14,5.14,0,0,0-.52,4.27,45.91,45.91,0,0,0,2.85,7.7c1.45,3.23,2.15,5,1.09,5.86a11.86,11.86,0,0,1-2.86,1.51c-2,.82-4.15,1.75-4.84,3.69a5.11,5.11,0,0,0,.64,4.15,15,15,0,0,0,4.63,5c2,1.51,2.9,2.21,2,4.71a.92.92,0,0,0,.55,1.17h0A.94.94,0,0,0,161.63,447.59Z" fill="#c46441"/>
    <path d="M207.94,518.64a.9.9,0,0,0,.54-.18.91.91,0,0,0,.21-1.27h0l-7.3-10.07c-.12-1.81-1.18-11.15-9.63-13.7-2.3-.7-3.58-1.42-3.9-2.22-.4-1,.54-2.7,1.74-4.85a49.2,49.2,0,0,0,3.11-6.41c1-2.6,1-4.46.16-5.7-1.26-1.78-3.9-1.71-6.46-1.64a11.72,11.72,0,0,1-4-.3.92.92,0,0,0-.71,1.69,12.11,12.11,0,0,0,4.71.45c2-.05,4.22-.11,4.91.86.48.69.35,2.06-.38,4a45.74,45.74,0,0,1-3,6.18c-1.49,2.68-2.57,4.62-1.84,6.43.57,1.4,2.09,2.39,5.08,3.29,8,2.42,8.33,11.88,8.34,12.28a.87.87,0,0,0,.17.52l7.46,10.29A.92.92,0,0,0,207.94,518.64Z" fill="#c46441"/>
    <path d="M360.84,295.15h.07a.91.91,0,0,0,.84-1v0l-.72-8.84a66.37,66.37,0,0,0,13.27-6.57c4.58-3.17,3.34-7.92,2.24-12.11a31.45,31.45,0,0,1-.93-4.39c-.24-2.3,4.69-4.23,8.65-5.78,4.32-1.69,8.05-3.15,7.93-5.64-.17-3.37,7.07-10.76,13-12.26,2.56-.64,7.09,1.65,11.09,3.68s7.6,3.84,9.76,3.09a2.61,2.61,0,0,0,1.52-1.41c1.19-2.62,6.38-4.53,14.24-7.42,4.49-1.65,10.08-3.71,16.54-6.49,9.7-4.16,12.56-3.15,14.1-2.61,2,.72,2.76.26,5.17-3.28a.93.93,0,0,0-.25-1.28.92.92,0,0,0-1.28.24h0c-2,2.95-2.14,2.9-3,2.59-1.77-.63-5.08-1.8-15.44,2.65-6.42,2.76-12,4.81-16.45,6.45-8.58,3.16-13.76,5.07-15.28,8.39a.74.74,0,0,1-.45.43c-1.42.51-5.09-1.36-8.32-3-4.5-2.27-9.14-4.63-12.37-3.81-6.55,1.65-14.63,9.57-14.4,14.13.06,1.17-3.88,2.71-6.76,3.83-5,2-10.2,4-9.81,7.7a32.21,32.21,0,0,0,1,4.66c1.08,4.13,2,7.69-1.51,10.13-5.35,3.71-13.42,6.56-13.5,6.59a.9.9,0,0,0-.61.94l.78,9.54A.93.93,0,0,0,360.84,295.15Z" fill="#c46441"/>
    <path d="M340.21,284.12h.23a.93.93,0,0,0,.67-1.12l-1-4c1.69-1.39,7.38-6.24,8.76-9.54,1-2.4-.29-4.72-1.34-6.59-.73-1.31-1.43-2.55-1.14-3.37a56.85,56.85,0,0,1,3.05-5.44c4.05-6.78,7.4-12.62,7.26-15.35-.06-1.18,4.61-4.68,8-7.24,6.68-5,14.25-10.7,13.09-15.3a1.63,1.63,0,0,1,.17-1.55c1.09-1.38,5.41-1.36,9.24-1.32,4.05,0,8.22.06,10.72-1.29a.91.91,0,0,0,.39-1.23h0a.91.91,0,0,0-1.24-.38h0c-2.09,1.13-6,1.09-9.84,1.07-4.85-.05-9-.07-10.7,2a3.47,3.47,0,0,0-.5,3.13c.86,3.41-6.81,9.17-12.41,13.38s-8.85,6.75-8.75,8.8c.12,2.39-4.16,9.57-7,14.32a50.56,50.56,0,0,0-3.2,5.76c-.57,1.61.36,3.27,1.26,4.89s1.91,3.41,1.26,5c-1.17,2.79-6.66,7.58-8.68,9.19a.91.91,0,0,0-.31.94l1.15,4.58A.92.92,0,0,0,340.21,284.12Z" fill="#c46441"/>
    <path d="M320,284.36h.23a.92.92,0,0,0,.67-1.11h0l-1.66-6.58c.5-1.45,1.94-7.64-3-21.53-1.85-5.18-2.48-8.28-1.89-9.2.22-.33.78-.39,1.67-.46a5.33,5.33,0,0,0,4.25-1.89.91.91,0,0,0-.17-1.28h0a.92.92,0,0,0-1.29.17h0a3.62,3.62,0,0,1-2.94,1.16c-1.1.09-2.34.2-3.06,1.3-.84,1.3-.87,3.63,1.69,10.82,5.31,14.91,3,20.41,2.94,20.46a.94.94,0,0,0-.06.62l1.73,6.86A.93.93,0,0,0,320,284.36Z" fill="#c46441"/>
    <path d="M597.28,438.29a.81.81,0,0,0,.31-.06.91.91,0,0,0,.56-1.17h0c-1.57-4.34,2.6-7,6-9.1,1.86-1.17,3.33-2.1,3.74-3.27a18.88,18.88,0,0,1,2.63-3.34c3.59-4,8.52-9.61,6-14.2-1.8-3.35-5.7-4.59-9.15-5.68-2.75-.87-5.36-1.7-6.1-3.38s.88-4.22,2.6-6.86c2-3,4.17-6.38,3.73-9.88a4.93,4.93,0,0,0-2.26-4c-3.05-1.77-8.31.23-16,3.47a.92.92,0,0,0-.59,1.16.91.91,0,0,0,1.15.59.94.94,0,0,0,.15-.06c6.72-2.84,12-4.9,14.35-3.57a3.22,3.22,0,0,1,1.36,2.61c.35,2.83-1.58,5.79-3.45,8.64-2,3.07-3.89,6-2.74,8.61,1.07,2.45,4.06,3.39,7.23,4.39s6.64,2.11,8.08,4.8c1.86,3.46-2.75,8.67-5.81,12.11a16.82,16.82,0,0,0-3,4c-.2.56-1.68,1.5-3,2.33-3.49,2.21-8.78,5.55-6.71,11.28A1,1,0,0,0,597.28,438.29Z" fill="#c46441"/>
    <path d="M641.73,440.87a.92.92,0,0,0,.91-.78l1.84-11.57c1.41-1.63,8.24-9.71,8.79-13.84s-4.63-8.74-6.37-10.18l3.25-11.63a.81.81,0,0,0,0-.31,53.22,53.22,0,0,1,2.59-18.15c1.27-3.86,1.29-6.35,0-8.06-2.28-3.12-8.3-3.19-19.63-3-12.58.14-12.88-1.52-13.39-4.57a15,15,0,0,0-.84-3.22c-.62-1.54-1.3-2.33-2.18-2.56-1.16-.3-2.17.48-3.24,1.32a7.71,7.71,0,0,1-4.08,2,1.63,1.63,0,0,1-.9-.08c-.23-.3.36-2,.67-3,.69-2,1.55-4.52,1-6.77-1.27-5.06-8.9-14.94-23.26-11.3a.91.91,0,0,0-.68,1.08v0a.92.92,0,0,0,1.11.67h0c13-3.27,19.89,5.47,21,10,.43,1.72-.3,3.85-.94,5.72s-1.23,3.59-.38,4.68a2.82,2.82,0,0,0,2.5.78,9.44,9.44,0,0,0,5.07-2.4c.57-.45,1.37-1.06,1.63-1,0,0,.4.14,1,1.47a12.73,12.73,0,0,1,.72,2.84c.7,4.13,1.7,6.27,15.23,6.1,10.1-.14,16.38-.1,18.13,2.28.85,1.17.76,3.2-.3,6.39a54.93,54.93,0,0,0-2.69,18.7L645,404.59a.93.93,0,0,0,.32,1c1.85,1.44,6.56,5.85,6.16,8.86-.43,3.22-6.3,10.53-8.53,13.08a1,1,0,0,0-.22.46l-1.88,11.83a.93.93,0,0,0,.77,1.06Z" fill="#c46441"/>
    <path d="M681.88,450.62l4.86-2.18a99.33,99.33,0,0,0,29.12-20l21-20.74.51,4.45a6.58,6.58,0,1,0,13-1.78l-1.86-11.77a4.81,4.81,0,0,0-4-4l.51-.55a10.86,10.86,0,0,0,2-11.78h0a6,6,0,0,0-6.88-3.43l.63-1.45a6,6,0,0,0-.83-6.17l-2.76-3.43a8.07,8.07,0,0,0-7.3-2.93l-.65.08a8,8,0,0,0-1.3-5.51A7.72,7.72,0,0,0,726.7,358l-4.38-4a4.49,4.49,0,0,1-1.13-5.08h0a4.51,4.51,0,0,1,1.09-1.54s14.46-13.43,22.07-20.33a6.33,6.33,0,0,0,.59-8.76l-.09-.12a6.28,6.28,0,0,0-8.26-1.24L712.9,332.38a37,37,0,0,0-4.4,3.39,34.75,34.75,0,0,0-2.57,2.58l-46.39,42.54a262.62,262.62,0,0,0-19,24.58,110.27,110.27,0,0,0-21.08,46.44c-3.08,27.18-24.4,111.29-24.4,111.29-20.13-13.61-38.14-27.27-38.14-27.27l-65.17,15.45S476,592.21,475.67,594.2s-5.49-3.65,18.23,20.76c14.39,14.81,52.28,32.35,79.9,43.87a73.37,73.37,0,0,0,60.71-2h0a73.43,73.43,0,0,0,40.18-55.67c6.76-48.28,7.15-147,7.15-147Z" fill="#fca881"/>
    <path d="M573.45,659.68c-28.68-12-65.87-29.32-80.2-44.08l-7.58-7.78c-11.77-12.09-11.77-12.09-11.6-13a.83.83,0,0,1,.7-.75c.34-2,14.53-38.8,16.15-43a.92.92,0,0,1,.64-.56L556.72,535a.92.92,0,0,1,.77.17c.18.13,17.58,13.3,37,26.5,2.68-10.65,21.23-84.91,24.08-110A111.07,111.07,0,0,1,639.8,405a261.34,261.34,0,0,1,19.12-24.74l46.33-42.48a32.88,32.88,0,0,1,2.64-2.64,37.09,37.09,0,0,1,4.51-3.48l23.68-15.42a7.23,7.23,0,0,1,6.53-.69,7.44,7.44,0,0,1,3,2.23A7.14,7.14,0,0,1,747,320.2a7.23,7.23,0,0,1-2,7.57c-7.53,6.81-21.92,20.18-22.07,20.31a3.65,3.65,0,0,0-.86,1.23,3.58,3.58,0,0,0,.9,4l4.38,3.95a9.67,9.67,0,0,1,1.42,1.64,8.93,8.93,0,0,1,1.53,5,9,9,0,0,1,7.66,3.31l2.75,3.43a6.94,6.94,0,0,1,1,7.12h0A7,7,0,0,1,748,381.9a11.76,11.76,0,0,1-1.7,12.25,5.73,5.73,0,0,1,3.26,4.31l1.86,11.77a7.5,7.5,0,0,1-14.76,2.69q-.06-.35-.09-.69l-.3-2.57-19.65,19.42a100,100,0,0,1-29.39,20.14l-4.32,1.94v3c0,1-.46,99.32-7.16,147.1A74.52,74.52,0,0,1,602,665.37,73.74,73.74,0,0,1,573.45,659.68ZM737.17,406.87a.94.94,0,0,1,.61.76l.51,4.45a5.65,5.65,0,1,0,11.2-1.53l-1.86-11.77a3.87,3.87,0,0,0-3.23-3.24.92.92,0,0,1-.73-.61.93.93,0,0,1,.2-.93l.51-.54a10,10,0,0,0,1.82-10.79,5.11,5.11,0,0,0-5.82-2.91.88.88,0,0,1-.91-.3.92.92,0,0,1-.14-1L740,377a5.11,5.11,0,0,0-.71-5.23l-2.75-3.42a7.06,7.06,0,0,0-3.81-2.44,6.91,6.91,0,0,0-2.64-.16l-.65.09a.93.93,0,0,1-1-.85v-.15a7.1,7.1,0,0,0-1.16-4.89,6.63,6.63,0,0,0-1.12-1.3l-4.39-4a5.41,5.41,0,0,1-.05-8c.14-.13,14.55-13.51,22.09-20.33a5.39,5.39,0,0,0,1.51-5.65,5.62,5.62,0,0,0-1.11-2,5.44,5.44,0,0,0-2.19-1.57,5.37,5.37,0,0,0-4.86.51l-23.68,15.42a35.17,35.17,0,0,0-4.29,3.3,34.75,34.75,0,0,0-2.57,2.58L660.26,381.4a262.58,262.58,0,0,0-19,24.6,109.21,109.21,0,0,0-20.9,46c-3,26.93-24.21,110.57-24.42,111.41a1,1,0,0,1-.57.64.9.9,0,0,1-.84-.1c-18.39-12.44-35.23-25.07-37.83-27L492.46,552.2c-6.3,16.3-15.59,40.67-15.88,42.18a1.49,1.49,0,0,1-.42.86c.94,1.16,4.08,4.39,10.83,11.32l7.58,7.79c14.12,14.53,51.07,31.76,79.58,43.66a72.54,72.54,0,0,0,99.63-57c6.68-47.66,7.13-145.87,7.13-146.86l.05-3.57a.94.94,0,0,1,.55-.83l4.86-2.18a98.33,98.33,0,0,0,28.85-19.77l21-20.75a.9.9,0,0,1,.64-.26A.85.85,0,0,1,737.17,406.87Z" fill="#e37b61"/>
    <path d="M685.5,418.22a.6.6,0,0,1,0-.81l4.69-5.94a39.76,39.76,0,0,0,8.56-25.31.62.62,0,0,1,.25-.5.58.58,0,0,1,.54-.1l13.85,4a5.66,5.66,0,0,0,5.93-9.06l-.27-.3L701.2,361.53a.62.62,0,0,1,0-.87.66.66,0,0,1,.87,0l17.85,18.67A6.9,6.9,0,0,1,713,390.7L699.94,387a41.17,41.17,0,0,1-8.84,25.27l-4,5.12,20.09,3.27a.61.61,0,0,1,.51.7h0a.59.59,0,0,1-.68.51h0l-21.13-3.44A.54.54,0,0,1,685.5,418.22Z" fill="#e37b61"/>
    <path d="M714.58,384.85l-2.35-2.32a2.42,2.42,0,0,1,0-3.42l0,0h0a2.42,2.42,0,0,1,2.34-.65,2.34,2.34,0,0,1,1.1.63l2.35,2.32a2.42,2.42,0,0,1,0,3.42l0,0h0a2.41,2.41,0,0,1-3.41,0l0,0Z" fill="#fc9a6c"/>
    <path d="M744.15,411.91v-3.3a2.45,2.45,0,0,1,2.41-2.46h0a2.43,2.43,0,0,1,2.46,2.4h0v3.31a2.39,2.39,0,0,1-.59,1.61,2.46,2.46,0,0,1-1.82.85h0a2.44,2.44,0,0,1-2.46-2.42Z" fill="#fc9a6c"/>
    <path d="M721.79,395.51l3.11-1.12a2.14,2.14,0,0,1,1.78.18,3.53,3.53,0,0,1,1.57,1.91h0a3.38,3.38,0,0,1-.22,2.94,2,2,0,0,1-1,.82l-3.11,1.12a2.12,2.12,0,0,1-1.77-.18,3.51,3.51,0,0,1-1.58-1.91h0a3.62,3.62,0,0,1-.08-2.32A2.24,2.24,0,0,1,721.79,395.51Z" fill="#fc9a6c"/>
    <path d="M715.83,376.41h0a.6.6,0,0,1,0-.85h0l10.51-9.34a.61.61,0,0,1,.81.91l-10.51,9.34A.61.61,0,0,1,715.83,376.41Z" fill="#e37b61"/>
    <path d="M710.39,392.33c-.11-.11-.21-.21-.3-.32a.62.62,0,0,1,0-.87.6.6,0,0,1,.86,0h0c1.91,2.15,6.53,4.43,10.63,1.42s14-11.43,14.13-11.51a.61.61,0,0,1,.85,0v0a.61.61,0,0,1-.07.86h0c-.1.08-10,8.47-14.19,11.57C717.81,396.94,712.76,394.69,710.39,392.33Z" fill="#e37b61"/>
    <path d="M718.84,402.64a.62.62,0,0,1,.11-.87.63.63,0,0,1,.76,0c3.4,3.39,6.93,4,11.12,1.77,3.58-1.86,9-6.56,9.09-6.61a.62.62,0,0,1,.87.07.61.61,0,0,1-.07.86c-.23.19-5.62,4.85-9.33,6.77C726.73,407.06,722.63,406.4,718.84,402.64Z" fill="#e37b61"/>
    <path d="M359.76,700.31c-.39.8-.77,1.6-1.13,2.4-17.93,39.17-8,83.22,41.73,93.16,50.74,10.15,162.37-8.45,162.37-8.45,28.75-40.6,202.44-91.62,202.44-91.62C619.24,658,573.72,671.56,573.72,671.56,494.23,656.34,359,701.91,359,701.91Z" fill="#e35466"/>
    <path d="M508.21,794.66c30.66-3.27,54.52-7.24,54.52-7.24,28.75-40.6,202.44-91.62,202.44-91.62-11.73-.66-74.3-18.77-85.38-19.35C579,714.41,516.71,784.66,508.21,794.66Z" fill="#e35466"/>
    <path d="M400.13,797c-21.05-4.21-36.48-14.84-44.59-30.74-9.13-17.87-8.38-41.19,2.06-64,.11-.25.22-.49.34-.74a1,1,0,0,1,.07-.15c.24-.52.49-1,.74-1.55a1.14,1.14,0,0,1,1.54-.49,1.16,1.16,0,0,1,.59.79c18-5.81,139.5-43.61,212.79-29.71,4.31-1.17,51.38-12.06,191.78,24.31a1.13,1.13,0,0,1,0,2.18c-1.74.51-173.64,51.37-201.84,91.18a1.13,1.13,0,0,1-.74.46C562,788.68,493.3,800,439.42,800,424.64,800,411,799.15,400.13,797ZM760.94,695.9c-140.62-36-186.45-23.37-186.9-23.24a1.19,1.19,0,0,1-.53,0c-76-14.55-204.92,27.27-213.69,30.16l-.17.36c-10.14,22.16-10.91,44.77-2.1,62,7.79,15.26,22.67,25.48,43,29.56,48.32,9.65,153.63-7.11,161.5-8.39,27.34-37.44,172.44-82.5,198.89-90.47Z" fill="#cc3e51"/>
    <path d="M429.11,488.89l-25.37,8.46S360.61,575.15,358.92,598,353,705.4,354.69,707.94c50.74,16.92,168.29-40.59,219-36.36-14.38-39.75-19.45-59.2-19.45-59.2l-1.75-89c-23.78-31.46-52.83-33.45-67.6-34.42C449.41,483,429.11,488.89,429.11,488.89Z" fill="#fecd6d"/>
    <path d="M354.42,708.72a.93.93,0,0,1-.43-.33c-2.06-3.1,2.89-94.17,4.1-110.47,1.68-22.75,43.15-97.79,44.92-101a.88.88,0,0,1,.46-.39l25.37-8.45h0c.21-.06,20.88-5.91,56.11,0,14.33.94,44.14,2.9,68.21,34.75a.78.78,0,0,1,.17.48l1.72,88.86c0,.19,5.23,19.88,19.43,59.12a.84.84,0,0,1-.86,1.12c-21.93-1.84-56.43,8-93,18.33C443.85,701.17,406,711.9,377.41,711.9,368.84,711.9,361.08,710.93,354.42,708.72ZM572.5,670.63c-13.9-38.52-19-57.87-19.07-58.25l-1.74-88.78c-23.58-31-52.77-33-66.9-33.88-34.52-5.75-54.82-.21-55.43,0L404.31,498c-2.85,5.18-42.95,78.3-44.56,100-1.75,23.65-5.66,103.39-4.42,109.2,28.46,9.21,77.49-4.69,124.91-18.15,33.64-9.54,65.57-18.6,87.79-18.6C569.57,670.5,571.06,670.54,572.5,670.63Z" fill="#eba045"/>
    <path d="M552,521.39l-6.75,68L555,612.68l8.43-76.5C560.61,533,554.54,524.27,552,521.39Z" fill="#fab35c"/>
    <path d="M555.06,613.46a.83.83,0,0,0,.83-.74l8.43-76.5a.78.78,0,0,0-.22-.65c-1.67-1.84-4.62-5.43-7.22-8.6-1.87-2.28-3.6-4.39-4.64-5.59a.84.84,0,0,0-1.18-.08.83.83,0,0,0-.09,1.17h0c1,1.19,2.75,3.28,4.61,5.55,2.49,3,5.29,6.45,7,8.38l-8.39,76.12a.83.83,0,0,0,.73.92h.13Z" fill="#eba045"/>
    <path d="M476.94,459.11,467.64,487c44.9,33.9-74.24,34.26-66,9.3,4.21-12.69,20.3-32.13,21.14-48.2S476.94,459.11,476.94,459.11Z" fill="#fca881"/>
    <path d="M371.16,336.05c20.35,27.58,12.39,61.95-4.56,51.44C396,451.84,425.23,478,497,469.25s56.31-86.73,50.93-101.86-8.57-47.73-12.55-70.81c-5.73-27.14-49.85-56-59.1-59.2-1,35.34-40.87,63-53.85,68.2s-12.66-9-12.66-9C396.67,332.28,371.16,336.05,371.16,336.05Z" fill="#fca881"/>
    <path d="M460.62,307.65c2.16,4.2-8.76,6.91-21.12,13.26s-21.48,13.94-23.64,9.74,3.46-18.6,15.82-24.95S458.46,303.45,460.62,307.65Z" fill="#a65537"/>
    <path d="M495.57,307.43c-1.16,5,8.5,1.26,18.93,3.68s17.68,10.06,18.84,5.08-5-17.82-15.46-20.24S496.72,302.44,495.57,307.43Z" fill="#a65537"/>
    <path d="M362.64,414.72a1.09,1.09,0,0,0,1.23-.62,1.07,1.07,0,0,0-.54-1.41h0c-8.17-3.56-10.21-10.55-8.64-15.53.83-2.66,3.14-5.5,6.9-4.74a1.07,1.07,0,0,0,1.27-.85h0a1.06,1.06,0,0,0-.81-1.26h0c-4.18-.84-7.95,1.65-9.38,6.21-1.91,6.07.86,14.25,9.84,18.16A.6.6,0,0,0,362.64,414.72Z" fill="#e37b61"/>
    <path d="M367.07,402.41a.94.94,0,0,0,.41,0,1.05,1.05,0,0,0,.89-1.2v0c-.95-5.94-5.6-14.07-12.34-17.44-4.77-2.39-10.1-2.18-15.41.61a1.08,1.08,0,0,0,1,1.92c4.74-2.49,9.26-2.69,13.44-.6,6.48,3.24,10.44,11.22,11.18,15.85A1.08,1.08,0,0,0,367.07,402.41Z" fill="#e37b61"/>
    <path d="M444.48,469.12c14.69,3.32,32,3.71,52.6,1.21,21.6-2.63,37.35-11.72,46.83-27,16.65-26.92,9-65,5-76.26-3.65-10.26-6.31-28.85-8.89-46.82-1.21-8.5-2.36-16.53-3.62-23.81-5.91-28.06-51.21-57-59.8-60a1.09,1.09,0,0,0-1.38.66,1,1,0,0,0-.06.34c-1,35.38-41.74,62.66-53.17,67.22-3.43,1.38-6.12,1.41-8,.13-3.3-2.29-3.21-8.07-3.21-8.13a1,1,0,0,0-.88-1.08,1.07,1.07,0,0,0-1.21.69C396,330.9,371.25,335,371,335a1.08,1.08,0,1,0,.16,2.15l.16,0c1-.15,24.43-4,37.88-36.27a9.67,9.67,0,0,0,3.58,5.62c2.48,1.73,5.85,1.77,10,.11,11.55-4.62,52.29-31.92,54.46-67.62,11,5,51.55,31.86,57,57.84,1.24,7.21,2.39,15.23,3.6,23.71,2.59,18.08,5.27,36.78,9,47.25,3.91,11,11.42,48.2-4.79,74.39-9.11,14.73-24.34,23.49-45.25,26-24.84,3-44.82,1.78-61.08-3.76a1.06,1.06,0,0,0-1.36.65v0a1.08,1.08,0,0,0,.67,1.37A91,91,0,0,0,444.48,469.12Z" fill="#e37b61"/>
    <path d="M620.64,1036.78c-18.36,28.68-12.37,67,6.76,75.76l221.12.6c27-20-108.54-104.77-108.54-104.77-5.15-26.13-55.67-15.82-55.77,21.62C675.46,1045.63,630.2,1040.29,620.64,1036.78Z" fill="#e35466"/>
    <path d="M740,1008.37c-5.15-26.13-55.67-15.82-55.77,21.62l92.4,68.26,35.14,7.53s15.55-6.47,33.76-14.19C821.52,1059.38,740,1008.37,740,1008.37Z" fill="#fff"/>
    <path d="M612.78,1112.5l235.74.64c9.33-6.88-.69-21.47-17.81-37.64-14.42,6.16-23.92,18.87-23.92,18.87l-194.26-.53C607,1099.39,606,1109.4,612.78,1112.5Z" fill="#fff"/>
    <path d="M807.05,1095.42h-.27l-194.26-.53a1.08,1.08,0,0,1,0-2.16l193.72.53c1.85-2.34,10.85-13.15,24-18.79a1.09,1.09,0,0,1,.86,2c-14,6-23.4,18.4-23.49,18.53A1,1,0,0,1,807.05,1095.42Z" fill="#cc3e51"/>
    <path d="M848.79,1114.18h-.27l-235.74-.64a1.14,1.14,0,0,1-.45-.1,9.13,9.13,0,0,1-5.2-6.93c-.77-4.3.9-9.43,4.17-13-5.81-17.81-2.53-40.25,8.43-57.36a1.08,1.08,0,0,1,1.28-.44c9.7,3.56,53.5,8.46,62.12-6.07.21-21.79,17.49-35.19,33.71-36.76,12.45-1.2,21.86,4.59,24.11,14.77,5.2,3.28,60.48,38.41,91.2,67.68l4.32,4.24c.47.47.93,1,1.39,1.42l.69.73,1.22,1.31.51.55c.53.58,1,1.14,1.53,1.71l.57.65c.37.42.72.84,1.07,1.26l.49.58c.46.56.91,1.11,1.34,1.67l.42.54c.33.43.64.85.95,1.27l.13.17.27.38c.4.55.78,1.1,1.14,1.63l.16.24c.4.62.67,1,.93,1.48l.32.51q.48.81.9,1.59l.11.23c.25.47.47.92.68,1.37l.22.49c.2.45.39.91.55,1.36a1.8,1.8,0,0,1,.08.21c.18.49.33,1,.47,1.47l.11.43c.1.4.18.81.25,1.2l-1,.46,1.07-.16a9.6,9.6,0,0,1,.13,1.41v1.79a9.65,9.65,0,0,1-.27,1.32l-.08.27a7.19,7.19,0,0,1-.4,1l-.15.33a9.09,9.09,0,0,1-.69,1.16h0a.64.64,0,0,1-.1.13,11.06,11.06,0,0,1-.81,1l-.27.27a12,12,0,0,1-1.14,1A1,1,0,0,1,848.79,1114.18ZM613,1111.42l235.12.64c.23-.19.44-.38.65-.57l.2-.21a7.55,7.55,0,0,0,.64-.74l1,.51-.88-.63a6,6,0,0,0,.52-.88l.12-.24a7.31,7.31,0,0,0,.29-.78l1.11.08-1-.29a6.81,6.81,0,0,0,.2-1l1.1-.15L851,1107a6.61,6.61,0,0,0,0-.89l1.07-.33H851a9.24,9.24,0,0,0-.1-1.17l1-.44-1.07.18a9.78,9.78,0,0,0-.22-1l-.1-.37c-.11-.44-.25-.88-.41-1.33s-.4-1-.58-1.42l-.18-.4c-.22-.47-.43-.9-.65-1.33l.84-.72-.95.5c-.26-.49-.55-1-.85-1.5l-.24-.39c-.31-.51-.57-.92-.84-1.33l-.26-.4c-.35-.52-.72-1-1.1-1.58l-.39-.53-.92-1.23-.41-.53-1.31-1.63-.36-.43-1.16-1.37-.56-.64-1.5-1.67-.45-.49-1.26-1.34-.68-.72-1.37-1.41-4.27-4.19c-31.94-30.42-90.66-67.28-91.25-67.65a1.07,1.07,0,0,1-.48-.71c-2.23-11.29-12.76-14.38-21.88-13.5-15.36,1.47-31.7,14.21-31.76,34.91a1.07,1.07,0,0,1-.14.52c-8.78,15.71-52.23,11.35-64,7.57-10.38,16.68-13.35,38.34-7.55,55.42a1.08,1.08,0,0,1-.26,1.11c-3.1,3.08-4.72,7.73-4,11.56A7,7,0,0,0,613,1111.42Z" fill="#cc3e51"/>
    <path d="M654.5,1069.08a12.19,12.19,0,1,1-12.16-12.22h0A12.2,12.2,0,0,1,654.5,1069.08Z" fill="#fff"/>
    <path d="M774.91,1071.82a3,3,0,0,1-.89-.14,2.92,2.92,0,0,1-1.88-3.68h0c2.61-8.1,14.65-29.76,26.28-30.59,3-.22,7.36.88,10.53,7.37a2.92,2.92,0,1,1-5.26,2.56c-2.1-4.3-4.17-4.15-4.85-4.1-7,.5-18.34,17.89-21.14,26.56A2.91,2.91,0,0,1,774.91,1071.82Z" fill="#47302d"/>
    <path d="M738.74,1057.58A12.21,12.21,0,1,1,751,1045.41,12.21,12.21,0,0,1,738.74,1057.58Zm0-18.57a6.37,6.37,0,1,0,6.34,6.4v0a6.37,6.37,0,0,0-6.29-6.39Z" fill="#47302d"/>
    <path d="M738.88,1045.93a3.39,3.39,0,0,1-.89-.15,2.92,2.92,0,0,1-1.89-3.66v0c2.61-8.09,14.65-29.76,26.28-30.59,3-.21,7.36.88,10.53,7.37a2.93,2.93,0,0,1-5.26,2.57c-2.1-4.31-4.16-4.16-4.85-4.11-7,.5-18.34,17.9-21.14,26.56A2.93,2.93,0,0,1,738.88,1045.93Z" fill="#47302d"/>
    <path d="M773.72,1083.43A12.21,12.21,0,1,1,786,1071.25a12.21,12.21,0,0,1-12.28,12.18Zm0-18.58a6.37,6.37,0,1,0,6.34,6.4v0a6.37,6.37,0,0,0-6.29-6.38Z" fill="#47302d"/>
    <path d="M543.7,588.92a1.08,1.08,0,0,1-1-.78c0-.16-4.94-16.48-29.06-56.41a1.07,1.07,0,0,1,.35-1.47h0a1.09,1.09,0,0,1,1.49.37c24.32,40.25,29.1,56.25,29.29,56.91a1.09,1.09,0,0,1-.74,1.34A1,1,0,0,1,543.7,588.92Z" fill="#eba045"/>
    <path d="M505.22,369.71c-1.22-51.32,30-39.68,30.86-37.41C545.6,358.81,526.62,385.4,505.22,369.71Z" fill="#fff"/>
    <g clip-path="url(#clip-path)">
      <ellipse cx="536.39" cy="348.57" fill="#422828" rx="26.42" ry="18.67" transform="rotate(-55.39 536.384 348.568)"/>
    </g>
    <path d="M505.22,369.71a81.83,81.83,0,0,1,.25-17.21c.76-5.71,2.29-11.55,5.84-16.52a20.48,20.48,0,0,1,6.95-6,20.11,20.11,0,0,1,18.09.3,5.34,5.34,0,0,1,.65.5,2.85,2.85,0,0,1,.43.49,2.23,2.23,0,0,1,.24.49l.05.13c.11.35.24.7.32,1.06a16.27,16.27,0,0,1,.42,2.19,10.63,10.63,0,0,1-.43,4.55,20.08,20.08,0,0,1-2.27-3.81c-.27-.64-.59-1.27-.82-1.91l-.37-1v-.12c0,.08.08.16.13.24s.07.1.07.1l-.2-.15a16.13,16.13,0,0,0-7.33-1.86,17.48,17.48,0,0,0-7.57,1.56,17.67,17.67,0,0,0-6.08,4.91c-3.4,4.18-5.26,9.63-6.32,15.12-.71,2.73-.92,5.57-1.36,8.38S505.48,366.85,505.22,369.71Z" fill="#422828"/>
    <path d="M479.1,373.5c22.91-8.4,42.84-4.16,40.61,6.14s-10.6,27.07-27.81,22.56S469.45,377.05,479.1,373.5Z" fill="#fca881"/>
    <path d="M517.77,372c-24.66,2.4-35.68,6.35-27,13.36s20.75,6.23,23.18,3.88S523.46,373.71,517.77,372Z" fill="#fc9a6c"/>
    <path d="M512.91,391.16a1.1,1.1,0,0,0,1-.32c4.44-4.87,6.16-11.17,6.7-13.65A6.16,6.16,0,0,0,518.5,371c-5.29-4.61-18.4-4.54-31.17.15a1.08,1.08,0,0,0,.74,2c13.54-5,25.05-4,29-.54a4,4,0,0,1,1.45,4.12,28.32,28.32,0,0,1-6.18,12.65,1.09,1.09,0,0,0,.07,1.53A1.18,1.18,0,0,0,512.91,391.16Z" fill="#e37b61"/>
    <path d="M492.9,388.77a1,1,0,0,0,.35,0,1.08,1.08,0,0,0,1-1.15v0c0,.07.28-.15,1-.24a8.36,8.36,0,0,1,6.11,2.23A1.08,1.08,0,0,0,502.8,388l-.06-.05c-3.47-2.88-7.31-3.31-9.31-2.25a2.17,2.17,0,0,0-1.3,2.13A1.09,1.09,0,0,0,492.9,388.77Z" fill="#e37b61"/>
    <path d="M486.92,439.46c2.05,1.32,11.73,5.11,21.87,2.9C494.34,449.52,488.28,445.54,486.92,439.46Z" fill="#fc9a6c"/>
    <path d="M465.3,404.93c2.25-9.86,14.07-2.94,25.32,2s22.63-2.52,30.53-5.52,7.31,22.67-10.23,30.37C489.17,441.3,461,423.72,465.3,404.93Z" fill="#422828"/>
    <path d="M488.86,411.84s-2-4.67-3.39-7.26c-1.2-.55-2.39-1.08-3.56-1.59l-16.23.77a9.4,9.4,0,0,0-.38,1.17c-4.3,18.79,23.87,36.37,45.62,26.82a23.26,23.26,0,0,0,4-2.27C499.12,414.93,488.86,411.84,488.86,411.84Z" fill="#e35466"/>
    <path d="M465.21,405.27a120.65,120.65,0,0,0,12.26,7.58,3.13,3.13,0,0,0,2.38.24,3.35,3.35,0,0,0,1.6-1.06l4-4.93.58,7.15a3.23,3.23,0,0,0,2.52,2.9c4.57,1,8.3.64,12.72.3,7.71-.61,16.48-4.38,16.41-14.65C505,407.81,467.54,386.29,465.21,405.27Z" fill="#fff"/>
    <path d="M475.29,370.57c-4.42-29-16.54-40.07-28.07-39.91-10.24.14-20,9.13-23.55,22.26C426.91,374.93,462.3,395.68,475.29,370.57Z" fill="#fff"/>
    <g clip-path="url(#clip-path-2)">
      <ellipse cx="465.95" cy="362.09" fill="#422828" rx="25.15" ry="22.42" transform="rotate(-79.03 465.928 362.09)"/>
    </g>
    <path d="M475.29,370.57A90.14,90.14,0,0,0,469,349.75c-3-6.48-7.38-12.66-13.57-15.78a17.28,17.28,0,0,0-9.8-1.62,24.5,24.5,0,0,0-9.37,3.67c-5.79,3.84-10,10.05-12.54,16.9a32,32,0,0,1,10.87-19.18,19.28,19.28,0,0,1,10.67-4.54,19.81,19.81,0,0,1,11.38,2.48c6.81,4,10.9,10.74,13.62,17.53A84.34,84.34,0,0,1,475.29,370.57Z" fill="#422828"/>
    <path d="M193.08,1249.1a3,3,0,0,1-.72-.09,2.82,2.82,0,0,1-2-3.44l13.43-51a2.82,2.82,0,0,1,5.45,1.43l-13.43,51A2.8,2.8,0,0,1,193.08,1249.1Z" fill="#6c94bd"/>
    <path d="M226.54,1122.09a3,3,0,0,1-.72-.09,2.82,2.82,0,0,1-2-3.44L330.41,714a2.82,2.82,0,0,1,5.45,1.44L229.27,1120A2.83,2.83,0,0,1,226.54,1122.09Z" fill="#6c94bd"/>
    <path d="M336.44,1181.83a2.82,2.82,0,0,1-2.7-2l-87.2-289.68a2.81,2.81,0,1,1,5.39-1.62l87.21,289.67a2.82,2.82,0,0,1-1.89,3.51,2.79,2.79,0,0,1-.81.12Z" fill="#6c94bd"/>
    <path d="M240.1,861.81a2.82,2.82,0,0,1-2.7-2L206.92,758.56a2.82,2.82,0,0,1,5.4-1.62L242.8,858.18a2.82,2.82,0,0,1-1.89,3.51A2.79,2.79,0,0,1,240.1,861.81Z" fill="#6c94bd"/>
    <path d="M385.77,888a2.82,2.82,0,0,1-1.46-5.23l41.1-24.88a2.82,2.82,0,1,1,3.11,4.7l-.19.12-41.1,24.88A2.9,2.9,0,0,1,385.77,888Z" fill="#6c94bd"/>
    <path d="M97.14,1062.73a2.82,2.82,0,0,1-1.46-5.23L328.81,916.37a2.82,2.82,0,1,1,3.11,4.7l-.19.12L98.59,1062.32A2.77,2.77,0,0,1,97.14,1062.73Z" fill="#6c94bd"/>
    <path d="M335.82,672.8c-92.12-21.21-197.19,93.64-234.69,256.53s6.79,312.12,98.91,333.32S397.23,1169,434.73,1006.12,427.94,694,335.82,672.8Zm71.45,327C373.09,1148.27,286.41,1237,222.36,1237a71.24,71.24,0,0,1-16-1.8c-34.22-7.88-61.7-41.29-77.36-94.09-17.32-58.37-17.46-131.33-.4-205.45,34.18-148.47,120.85-237.19,184.91-237.19a71.24,71.24,0,0,1,16,1.8c34.22,7.88,61.7,41.29,77.36,94.09,17.31,58.36,17.46,131.32.4,205.44Z" fill="#3d668f"/>
    <path d="M277.86,740.81c-63.17-15.21-135.21,67.15-160.92,184s4.65,223.8,67.82,239,135.24-67.2,160.92-184S341,756,277.86,740.81ZM335.18,976.4c-25.7,111.61-90.85,178.3-139,178.3a53.85,53.85,0,0,1-12-1.35c-25.72-5.93-46.38-31-58.15-70.73-13-43.88-13.13-98.73-.3-154.44,25.69-111.62,90.85-178.31,139-178.31a53.86,53.86,0,0,1,12,1.36c25.73,5.92,46.38,31,58.16,70.72C347.9,865.83,348,920.68,335.18,976.4Z" fill="#6c94bd"/>
    <path d="M297.27,974.48c-7.2,31.25-25.45,49.93-38.93,49.93A14.4,14.4,0,0,1,255,1024c-7.21-1.66-13-8.69-16.29-19.8C235,991.94,235,976.58,238.6,961c7.19-31.29,25.4-50,38.93-50a14.61,14.61,0,0,1,3.36.38c7.21,1.65,13,8.69,16.29,19.8C300.83,943.51,300.86,958.87,297.27,974.48Z" fill="#3d668f"/>
    <path d="M434.73,1006.66a.54.54,0,0,0,.52-.42c18.16-78.87,17.85-157-.86-220.06s-53.7-103.6-98.45-113.9-93.88,10.79-138.34,59.39-78.83,118.67-97,197.54a.54.54,0,0,0,.4.64.52.52,0,0,0,.63-.37v0c18.12-78.69,52.47-148.67,96.74-197.06s92.95-69.29,137.31-59.07,79.05,50.4,97.67,113.16,18.95,140.83.84,219.52a.51.51,0,0,0,.37.63h0Z" fill="#fff"/>
    <path d="M345.68,980.35a.54.54,0,0,0,.52-.42C371.93,863,341.33,755.54,278,740.29c-19.18-4.62-40.12-.3-60.54,12.47-45.2,28.27-83.91,94.13-101,171.88a.53.53,0,0,0,.94.49.58.58,0,0,0,.06-.26c17-77.48,55.58-143.08,100.55-171.2,20.17-12.62,40.83-16.89,59.72-12.34,62.79,15.11,93,122,67.42,238.37a.54.54,0,0,0,.41.64Z" fill="#fff"/>
    <path d="M661.45,556.36H577a6.37,6.37,0,0,0-6.21,5l-30.61,136.8a7.31,7.31,0,0,0,7.13,8.9h82.51a7.33,7.33,0,0,0,7.13-5.71l30.71-137.24a6.37,6.37,0,0,0-6.21-7.75Z" fill="#3d668f"/>
    <path d="M669.53,556.36H585.09a6.37,6.37,0,0,0-6.21,5l-30.62,136.8a7.31,7.31,0,0,0,7.13,8.9H637.9a7.33,7.33,0,0,0,7.13-5.71l30.71-137.24a6.37,6.37,0,0,0-6.21-7.75Z" fill="#6c94bd"/>
    <circle cx="622.16" cy="586.69" fill="#c5ebeb" r="8.43"/>
    <path d="M355.11,607.72C384,791.8,532.1,764.83,547.24,753.92s40-34.5,35.82-43.27c9.44-7.64,8.37-17.29,8.37-17.29,6.34-8.73,9-16.93.7-17.69s-15.07-1.65-32.22,4.75-22.64-9.75-17.89-18.24l10.69-19.13a6.3,6.3,0,0,0-1-7.45,6.14,6.14,0,0,0-3.22-1.78h0a6.32,6.32,0,0,0-2.9.06,6.49,6.49,0,0,0-2.54,1.31c-14.53,12.23-20.09,30.72-32.44,38-13,7.73-96.67-17.72-93-97.06C374,610.87,355.11,607.72,355.11,607.72Z" fill="#fca881"/>
    <path d="M582.12,720.4c-6.77,12.12-25.69,28.22-34.25,34.39-8.22,5.92-53.71,16.37-99.32-2.67-35.1-14.66-80-51.57-94.51-144.23a1.07,1.07,0,0,1,.31-.93,1,1,0,0,1,.93-.3c.22,0,19.19,2.47,61.7-31.34a1.08,1.08,0,0,1,1.52.18,1.06,1.06,0,0,1,.23.71c-2.22,47.93,27.64,73.22,45.64,84,20.32,12.21,40.33,15.24,45.73,12,6.21-3.68,10.79-10.49,15.64-17.71,4.7-7,9.57-14.25,16.66-20.21a7.39,7.39,0,0,1,12,7.16,7.49,7.49,0,0,1-.78,2L543,662.71a13.5,13.5,0,0,0,1.43,14.53c3.28,3.82,8.66,4.59,15.15,2.17,16.84-6.29,23.83-5.64,31.93-4.89l.75.07c2.89.26,4.81,1.38,5.69,3.32,1.89,4.17-1.82,10.81-5.37,15.77.1,2,0,10.31-8.2,17.3C585.09,713.52,584.15,716.78,582.12,720.4ZM356.39,608.89c14.58,90.69,58.57,126.86,93,141.24,44.83,18.71,89.25,8.66,97.23,2.91,16.81-12.11,39-34.48,35.48-41.93a1.06,1.06,0,0,1,.29-1.3c8.84-7.16,8-16,8-16.33a1.06,1.06,0,0,1,.2-.75c4.57-6.3,6.53-11.38,5.38-13.93-.54-1.17-1.85-1.87-3.91-2.06l-.76-.07c-7.83-.73-14.59-1.35-31,4.76-10,3.73-15.28-.14-17.54-2.78a15.59,15.59,0,0,1-1.68-17l10.7-19.12a5.23,5.23,0,0,0-8-6.51c-6.86,5.77-11.64,12.88-16.26,19.77-5,7.42-9.69,14.43-16.33,18.36s-28,0-47.94-12c-18.12-10.89-48-36.12-46.77-83.64C380.34,606.79,361.54,608.94,356.39,608.89Z" fill="#e37b61"/>
    <path d="M334.27,648.62l124.49-51.28c-4.31-46.24-37-122.84-81.43-113.51S322.75,591.91,334.27,648.62Z" fill="#fecd6d"/>
    <path d="M330.3,616a228.79,228.79,0,0,0,4,32.59l124.49-51.28a165.51,165.51,0,0,0-3.5-21.1Z" fill="#fab35c"/>
    <path d="M459.57,598.05a1,1,0,0,1-.4.29L334.68,649.62a1.1,1.1,0,0,1-1.42-.61,1.21,1.21,0,0,1-.05-.18c-6-29.63-5.8-69.11.55-100.59,7.67-37.95,23.06-61.21,43.35-65.47a1.08,1.08,0,1,1,.44,2.12c-41.68,8.75-54.18,102.44-42.47,162.23l122.53-50.47A183.69,183.69,0,0,0,449.7,560a1.08,1.08,0,0,1,2.06-.65,185.69,185.69,0,0,1,8.08,37.94A1.11,1.11,0,0,1,459.57,598.05Z" fill="#eba045"/>
    <path d="M558.21,702h-1.15a1.43,1.43,0,0,1-1.4-1.46h0a1.43,1.43,0,0,1,1.45-1.39h0c13.88.3,26-5.51,26.12-5.56a1.42,1.42,0,1,1,1.25,2.56h0A66.21,66.21,0,0,1,558.21,702Z" fill="#e37b61"/>
    <path d="M550.7,719.28h-1.15a1.43,1.43,0,0,1,.07-2.85c13.88.31,26-5.5,26.12-5.56a1.43,1.43,0,0,1,1.25,2.57A66.42,66.42,0,0,1,550.7,719.28Z" fill="#e37b61"/>
    <path d="M1362.21,1117H1415c3-3.19,2.26-8.8-3.07-10.93H1094.37c-12.81,0-29,8.82-35.51,19.82-22.25,37.35,4.32,76,39.75,76h313.22c5.23-2,6.09-7.44,3.34-10.71h-54.94Z" fill="#fecd6d"/>
    <path d="M1428.4,1117h184.87c3-3.19,2.26-8.8-3.07-10.93H1357.29c-12.81,0-29,8.82-35.52,19.82-22.24,37.35,4.33,76,39.76,76h248.6c5.23-2,6.09-7.44,3.34-10.71h-187Z" fill="#fab35c"/>
    <path d="M1292.56,1125.9h-11.13c-13.45,22.58-9.06,45.64,4.35,60.34h11.13C1283.5,1171.54,1279.11,1148.48,1292.56,1125.9Z" fill="#fff"/>
    <path d="M1263.34,1125.9h-11.13c-13.45,22.58-9.06,45.64,4.35,60.34h11.13C1254.28,1171.54,1249.89,1148.48,1263.34,1125.9Z" fill="#fff"/>
    <path d="M1361.52,1112.59h247a60.9,60.9,0,0,0-1.84,80.61l1.84,2.19h-247a41.39,41.39,0,0,1-41.39-41.39h0A41.4,41.4,0,0,1,1361.52,1112.59Z" fill="#e4e7de"/>
    <rect fill="#bbcfd9" height="5.1" rx="2.02" width="190.71" x="1395.49" y="1164.6"/>
    <rect fill="#bbcfd9" height="5.1" rx="2.02" width="190.71" x="1394.43" y="1139.13"/>
    <rect fill="#bbcfd9" height="5.1" rx="2.02" width="65.29" x="1351.65" y="1129.15"/>
    <path d="M1272.86,1208.54h-35.57c-2-2.15-1.52-5.93,2.07-7.37h266c8.63,0,19.52,5.95,23.94,13.37,15,25.18-2.91,51.24-26.8,51.24h-263c-3.53-1.34-4.11-5-2.25-7.22h37Z" fill="#e35466"/>
    <path d="M1228.23,1208.54H1067.72c-2-2.15-1.52-5.93,2.08-7.37h206.38c8.64,0,19.53,5.95,24,13.37,15,25.18-2.92,51.24-26.81,51.24H1069.84c-3.52-1.34-4.1-5-2.25-7.22h162Z" fill="#fabbc4"/>
    <path d="M1403.65,1214.54h-83.82c9.06,15.22,6.1,30.77-2.94,40.68h83.83C1409.76,1245.31,1412.72,1229.76,1403.65,1214.54Z" fill="#fabbc4"/>
    <path d="M1273.32,1205.56H1071a41.06,41.06,0,0,1,1.24,54.35l-1.24,1.48h202.37a27.92,27.92,0,0,0,27.92-27.91h0a27.92,27.92,0,0,0-27.92-27.92Z" fill="#fff"/>
    <path d="M1248.7,1240.63h-161a1.72,1.72,0,0,0-1.72,1.72h0a1.72,1.72,0,0,0,1.72,1.72h161a1.72,1.72,0,0,0,1.72-1.72h0A1.72,1.72,0,0,0,1248.7,1240.63Z" fill="#bbcfd9"/>
    <path d="M1249.42,1223.46H1115.77a1.72,1.72,0,0,0-1.72,1.72h0a1.72,1.72,0,0,0,1.72,1.71h133.65a1.72,1.72,0,0,0,1.72-1.71h0A1.72,1.72,0,0,0,1249.42,1223.46Z" fill="#bbcfd9"/>
    <path d="M1278.27,1216.73h-40.59a1.72,1.72,0,0,0-1.72,1.72h0a1.72,1.72,0,0,0,1.71,1.71h40.6a1.72,1.72,0,0,0,1.72-1.7h0A1.72,1.72,0,0,0,1278.27,1216.73Z" fill="#bbcfd9"/>
    <path d="M1358.94,1098.35h35.57c2,2.15,1.52,5.94-2.07,7.37h-266c-8.63,0-19.53-5.94-23.94-13.36-15-25.18,2.91-51.25,26.8-51.25h263c3.53,1.34,4.11,5,2.25,7.22h-37Z" fill="#6c94bd"/>
    <path d="M1403.56,1098.35h160.51c2,2.15,1.53,5.94-2.07,7.37H1355.62c-8.64,0-19.53-5.94-23.95-13.36-15-25.18,2.92-51.25,26.81-51.25H1562c3.52,1.34,4.1,5,2.25,7.22h-162Z" fill="#79a0c7"/>
    <path d="M1228.15,1092.36H1312c-9.06-15.23-6.1-30.77,2.94-40.69h-83.83C1222,1061.59,1219.08,1077.13,1228.15,1092.36Z" fill="#79a0c7"/>
    <path d="M1358.47,1101.33h202.38a41.06,41.06,0,0,1-1.24-54.35l1.24-1.48H1358.47a27.92,27.92,0,0,0-27.91,27.92h0A27.93,27.93,0,0,0,1358.47,1101.33Z" fill="#e4e7de"/>
    <path d="M1383.1,1066.26h161a1.72,1.72,0,0,0,1.72-1.72h0a1.72,1.72,0,0,0-1.72-1.72h-161a1.72,1.72,0,0,0-1.72,1.72h0A1.72,1.72,0,0,0,1383.1,1066.26Z" fill="#bbcfd9"/>
    <path d="M1382.38,1083.44H1516a1.72,1.72,0,0,0,1.72-1.72h0A1.72,1.72,0,0,0,1516,1080H1382.38a1.72,1.72,0,0,0-1.72,1.72h0A1.72,1.72,0,0,0,1382.38,1083.44Z" fill="#bbcfd9"/>
    <path d="M1353.53,1090.16h40.59a1.72,1.72,0,0,0,1.72-1.7h0a1.72,1.72,0,0,0-1.72-1.72h-40.59a1.72,1.72,0,0,0-1.72,1.72h0a1.72,1.72,0,0,0,1.71,1.71Z" fill="#bbcfd9"/>
    <path d="M1427,829.2a47.74,47.74,0,0,0-46.56,48.89c.65,26.35,22.53,46.1,48.89,46.56,35.1.6,125.82-17.25,125.82-17.25s40.73,19.37,42.39,14.51-33.81-98.52-83.13-117.73C1448.09,823.39,1427,829.2,1427,829.2Z" fill="#fff"/>
    <path d="M1431.13,926.09h-1.79c-27.56-.47-49.65-21.54-50.29-48a49.17,49.17,0,0,1,47.77-50.35c2.13-.58,24.66-6.85,87.22-25a1.45,1.45,0,0,1,.92,0c26.45,10.3,48,41,61.41,64.88,13.9,24.76,23.74,51.18,22.55,54.64a2.38,2.38,0,0,1-1.39,1.44c-5.53,2.32-35.47-11.57-42.53-14.92C1548,910.24,1465.81,926.09,1431.13,926.09Zm83.24-120.41c-65.24,18.89-86.75,24.83-87,24.89a1,1,0,0,1-.34,0A46.31,46.31,0,0,0,1381.86,878h0c.61,24.88,21.47,44.72,47.49,45.17h1.76c35.74,0,122.87-17.06,123.76-17.24a1.44,1.44,0,0,1,.89.11c17.08,8.13,37.08,16.09,40.43,15.14,0-3.31-7.83-26.44-22.81-53-13-22.92-33.78-52.42-59-62.5ZM1427,829.2Z" fill="#3d668f"/>
    <circle cx="1334.58" cy="818.4" fill="#3d668f" r="43.81" transform="rotate(-40.18 1334.57 818.41)"/>
    <path d="M1360.25,847c-.63,7.54-.47,15,1,21a15.76,15.76,0,0,0,3,6.43,4.2,4.2,0,0,0,3.16,1.49,14.44,14.44,0,0,0,2.46.05,25.3,25.3,0,0,0,3.47-.54,44,44,0,0,0,8.34-2.89,68,68,0,0,0,8.66-4.75A61.56,61.56,0,0,0,1398,862a17.44,17.44,0,1,1,23.37,25.9h0a18.3,18.3,0,0,1-2.16,1.67l-.56.35a95.73,95.73,0,0,1-13.12,7.06,100.56,100.56,0,0,1-13.8,5,71.8,71.8,0,0,1-15.47,2.6,52.2,52.2,0,0,1-8.75-.32,38.84,38.84,0,0,1-9.47-2.51,32.19,32.19,0,0,1-9-5.57,37.85,37.85,0,0,1-3.63-3.86,31.12,31.12,0,0,1-2.82-4.2,41.52,41.52,0,0,1-4.86-16.56c-.74-10.25.74-19.21,2.71-27.76a10.08,10.08,0,0,1,19.86,3.11Z" fill="#3d668f"/>
    <path d="M1367.66,732.19a30.79,30.79,0,0,1-53.84-28.36c7.83-34,6.69-66.19,20.58-81.7s76.13-4.47,79.18,34.6S1367.66,732.19,1367.66,732.19Z" fill="#fff"/>
    <path d="M1342.91,746a32.21,32.21,0,0,1-30.46-42.59c2.58-11.24,4.16-22.12,5.68-32.63,3-20.91,5.66-39,15.2-49.63,7.39-8.25,27.23-9.65,46.16-3.25,21.21,7.17,34.15,21.27,35.52,38.69,3,38.64-42.66,73.83-46.33,76.59A32.18,32.18,0,0,1,1342.91,746ZM1356,616.79c-9.16,0-16.84,2.14-20.55,6.29-9,10-11.54,27.69-14.5,48.14-1.54,10.59-3.13,21.55-5.75,32.93v.15a29.36,29.36,0,0,0,51.34,27,1.18,1.18,0,0,1,.3-.29c.48-.36,48.31-36.39,45.35-74.21-1.8-23-24.09-33-33.59-36.21A71.79,71.79,0,0,0,1356,616.79Z" fill="#3d668f"/>
    <circle cx="1370.89" cy="652.31" fill="#aad1d1" r="26.79" transform="rotate(-10.05 1370.89 652.322)"/>
    <path d="M1374.61,649.17a10.06,10.06,0,0,1-9.46-10.63,10.22,10.22,0,0,1,.51-2.62,10.88,10.88,0,0,0-2.69-11.35c-4.19-4.42-22.63-17.56-83.79-.65a10.05,10.05,0,0,1-5.36-19.38h0c64.11-17.73,91.8-6.41,103.75,6.21a31,31,0,0,1,7.15,31.59A10.07,10.07,0,0,1,1374.61,649.17Z" fill="#3d668f"/>
    <path d="M1234.56,588.1c-55.18,2.57-104,51.26-108.89,87.17S1180.2,863.5,1281.9,864s74.84-65.27,54.45-113.57S1312.61,584.48,1234.56,588.1Z" fill="#fff"/>
    <path d="M1210.58,629a29.9,29.9,0,0,0,29.57-40.89c-1.82-.06-3.68-.06-5.59,0-18.43.85-36.15,6.87-51.76,15.82A29.92,29.92,0,0,0,1210.58,629Z" fill="#aad1d1"/>
    <path d="M1283.07,865.42h-1.17c-34.26-.17-67.68-17.86-96.67-51.18-18.69-21.48-35.5-49.53-47.32-79-10.05-25-15.28-48.09-13.65-60.18,2.47-18.37,16-39.67,36-57,22.14-19.07,48.49-30.23,74.19-31.42,60-2.79,76.58,64.17,89.91,118,4.26,17.2,8.28,33.44,13.25,45.23,12.11,28.7,28.7,68,12.48,92.32C1339.71,857.82,1317.76,865.42,1283.07,865.42ZM1234.56,588.1l.07,1.43c-25.07,1.16-50.8,12.08-72.46,30.73-19.59,16.87-32.7,37.5-35.08,55.2-2.78,20.64,18,88.3,60.29,136.91,28.43,32.68,61.12,50,94.53,50.2,33.86.17,56-7.23,65.85-22,15.37-23.05-.87-61.53-12.72-89.63-5.07-12-9.11-28.34-13.4-45.65-13.07-52.78-29.35-118.48-87-115.8Z" fill="#3d668f"/>
    <path d="M1208.44,614.4a10,10,0,0,1-3.45-.83c-3-1.3-28.86-13.26-30.45-33.77a10.05,10.05,0,0,1,20-1.54c.47,6.12,11.32,13.71,18.51,16.91a10.06,10.06,0,0,1-4.66,19.23Z" fill="#3d668f"/>
    <path d="M1130.77,374.46c-25,13.53-60.58,55.17-60.58,55.17l-14.92-1.79c-10.69,19.41-41.47,94.08,20.74,127.76s134.29,46.56,187.94,1,95.58-116.4,41.27-160.55S1166.5,355.15,1130.77,374.46Z" fill="#fff"/>
    <path d="M1181.76,587.54c-41.16,0-80.65-16.72-106.43-30.68-18.18-9.85-30.09-24-35.4-42.12-11.54-39.34,11.43-82.76,14.09-87.58a1.42,1.42,0,0,1,1.42-.73l14.16,1.69c4.57-5.29,36.82-42.13,60.5-54.92,19.08-10.31,50.13-15.35,81-13.16,36.76,2.6,70.5,15,95,34.91,17,13.79,25.68,30.91,25.89,50.9.37,34-24.73,75.82-67.13,111.83C1239,579.68,1210,587.54,1181.76,587.54Zm-125.7-158.17c-9.4,17.47-22.36,54-13.39,84.57,5.08,17.34,16.53,30.94,34,40.41,42.81,23.18,123.94,54.15,186.33,1.16,41.77-35.47,66.49-76.45,66.13-109.63-.21-19.1-8.56-35.49-24.83-48.72-52.59-42.74-136.12-41.3-172.87-21.45l-.68-1.25.68,1.25c-24.52,13.25-59.82,54.43-60.18,54.84a1.4,1.4,0,0,1-1.25.49Z" fill="#3d668f"/>
    <path d="M1220.28,408.38C1217,391.51,1150.21,383,1112,387.77c-21,17.51-41.77,41.86-41.77,41.86l-14.92-1.79c-6.34,11.51-19.75,42.47-16.63,72.79,16.26,20.75,45.71,35.17,78,30C1154.29,524.68,1223.78,426.33,1220.28,408.38Z" fill="#3d668f"/>
    <circle cx="1246.89" cy="506.31" fill="#aad1d1" r="41.36"/>
    <circle cx="1258.22" cy="518.99" fill="#3d668f" r="41.36"/>
    <path d="M1234.46,548.27a.84.84,0,0,1-.43-.14,42.27,42.27,0,0,1,44.84-71.68h0a.92.92,0,0,1-1,1.55,40.45,40.45,0,0,0-42.9,68.58.93.93,0,0,1,.29,1.26A.9.9,0,0,1,1234.46,548.27Z" fill="#fff"/>
    <path d="M932.88,504.59c12.94,23.37,46.07,22.86,58.34,8.59s15.91-76.18-12.43-108.67l-16,4.91,5.5,24.24C928.84,431.9,907.6,466.08,932.88,504.59Z" fill="#fff"/>
    <path d="M966,524.59a44,44,0,0,1-4.44-.23c-13-1.34-23.92-8.28-29.9-19-12.32-18.78-14.58-38-6.2-52.72,7.49-13.17,22.74-20.71,41-20.43l-5.09-22.45a1.43,1.43,0,0,1,1-1.68l16-4.9a1.42,1.42,0,0,1,1.49.43c17.2,19.71,21,47.32,21.8,62,1.08,20.9-2.77,40.85-9.36,48.51C986.65,520.68,976.65,524.58,966,524.59ZM965.45,435c-16.78,0-30.68,7-37.51,19-7.83,13.77-5.6,31.92,6.13,49.79l.06.09c5.51,10,15.61,16.38,27.72,17.62,11.34,1.17,22.44-2.48,28.29-9.27,6.15-7.15,9.71-26.27,8.67-46.5-.73-14.16-4.37-40.58-20.5-59.6l-13.85,4.24,5.2,23a1.43,1.43,0,0,1-1.45,1.74C967.28,435.05,966.36,435,965.45,435Z" fill="#3d668f"/>
    <path d="M964.81,560.2a10,10,0,0,1-9.45-9.88l-.51-33.13a10.05,10.05,0,0,1,20.1-.31l.51,33.13a10,10,0,0,1-9.8,10.2h-.1C965.31,560.22,965.06,560.21,964.81,560.2Z" fill="#3d668f"/>
    <circle cx="1154.08" cy="671.48" fill="#3d668f" r="33.05" transform="rotate(-45 1154.078 671.485)"/>
    <path d="M997.47,557a34.58,34.58,0,0,0-67.32,11.73c-3.37,39.06-15.68,73-6.2,94.41s79.82,31,96.56-9.65S997.47,557,997.47,557Z" fill="#fff"/>
    <path d="M969.48,683c-21.9,0-41.91-8.2-46.83-19.3-6.5-14.65-3.08-34.82.89-58.18,2-11.77,4.06-23.94,5.18-36.86a36,36,0,0,1,70-12.34c2.86,4.06,39.63,57.46,23.08,97.69-10.56,25.67-39.29,28.82-51.15,29ZM964.7,535a33.18,33.18,0,0,0-33.13,33.21c0,.18,0,.36,0,.54v.15c-1.13,13.07-3.21,25.32-5.22,37.17-3.89,22.9-7.25,42.68-1.1,56.55,4.51,10.15,24.44,17.89,45.39,17.59,11.3-.16,38.64-3.12,48.55-27.21,16.26-39.52-22.49-94.57-22.88-95.12a1.3,1.3,0,0,1-.19-.37A33.2,33.2,0,0,0,964.7,535Z" fill="#3d668f"/>
    <circle cx="973.34" cy="643.55" fill="#aad1d1" r="30.08"/>
    <path d="M1043.87,728.16A83.13,83.13,0,0,1,1016.6,722c-35.42-14.83-52.29-49.92-53.28-78.13a10.05,10.05,0,1,1,20.09-.71c.75,21.1,13.88,49,40.95,60.29,32.31,13.52,74.34-1.29,118.37-41.71a10.05,10.05,0,0,1,13.6,14.81C1108.78,720.2,1070.47,729.72,1043.87,728.16Z" fill="#3d668f"/>
    <path d="M938.75,621.73a1.42,1.42,0,0,1-1.14-2.28c.65-.87,16.23-21.4,37-21.58h.28c11.52,0,22.28,6.33,32,18.82a1.42,1.42,0,0,1-2.25,1.74c-9.19-11.84-19.29-17.84-30-17.71-19.38.16-34.64,20.24-34.79,20.44A1.42,1.42,0,0,1,938.75,621.73Z" fill="#3d668f"/>
    <path d="M1135.68,454.76h0a10,10,0,0,1-7-12.37h0l5.67-20.37a10,10,0,0,1,12.38-7h0a10,10,0,0,1,7,12.38l-5.66,20.37a10,10,0,0,1-12.27,7l-.11,0Z" fill="#aad1d1"/>
    <path d="M1148,448.68h-.19a.92.92,0,0,1-.64-1.13l5.66-20.37a9.1,9.1,0,0,0-6.31-11.23l0,0-10.47-3.3a.91.91,0,0,1,.55-1.74h0l10.42,3.25a11,11,0,0,1,7.6,13.5L1148.94,448A.93.93,0,0,1,1148,448.68Z" fill="#fff"/>
    <path d="M1054.93,472.71s40.55-5.44,48.06,7.65-35.92,12.12-35.92,12.12Z" fill="#aad1d1"/>
    <path d="M1367.52,691.71a30.66,30.66,0,0,1-15-3.66c-15.64-8.58-18.82-28.9-19-29.76a1.43,1.43,0,0,1,2.83-.42c0,.2,3.11,19.8,17.51,27.68,9.12,5,20.89,4.32,35-2a1.43,1.43,0,0,1,1.38,2.51l-.21.09C1381.84,689.86,1374.29,691.71,1367.52,691.71Z" fill="#3d668f"/>
    <path d="M1275.39,904a59.72,59.72,0,0,0-62.88,56.38h0c-1.8,32.93,23.55,59.72,56.38,62.88,43.71,4.21,158.62-9.11,158.62-9.11s48.88,28.17,51.43,22.27-32.47-126.2-92.08-155C1302.22,898.84,1275.39,904,1275.39,904Z" fill="#fff"/>
    <path d="M1477.22,1038.64c-9.42,0-42.19-18.51-50-23-8.07.92-116.5,13.1-158.44,9.06a65.11,65.11,0,0,1-42.1-20.74,59.48,59.48,0,0,1-15.58-43.64,61.21,61.21,0,0,1,64.21-57.74c2.44-.48,31-6,111.28-22.56a1.43,1.43,0,0,1,.91.12c31.88,15.41,55.68,55.7,70,86.78,14.86,32.18,24.54,65.94,22.74,70.08a2.62,2.62,0,0,1-1.66,1.46A4.46,4.46,0,0,1,1477.22,1038.64Zm-49.71-25.9a1.48,1.48,0,0,1,.71.19c21.23,12.24,46,24.35,49.43,22.84.63-3.56-7.31-34.46-23.09-68.42-14-30.22-37.19-69.33-67.89-84.43-83.31,17.14-110.74,22.44-111,22.49a1,1,0,0,1-.35,0,58.37,58.37,0,0,0-61.38,55c-1.7,31.28,22.5,58.25,55.1,61.39,43.06,4.15,157.17-9,158.31-9.11Z" fill="#3d668f"/>
    <circle cx="1242.09" cy="834.18" fill="#3d668f" r="43.81" transform="rotate(-1 1241.831 834.22)"/>
    <circle cx="1266.31" cy="962.8" fill="#aad1d1" r="39.2" transform="rotate(-74.75 1266.312 962.806)"/>
    <path d="M1251.24,872.57a322.12,322.12,0,0,0-23.65,28.75c-7.06,9.86-13.35,20.3-16.63,30.32-1.62,5-2.33,9.73-1.93,13.29a11.57,11.57,0,0,0,1.31,4.29,10.11,10.11,0,0,0,1,1.59,14.12,14.12,0,0,0,1.42,1.37c2,1.79,5.58,3.4,9.71,4.24a34.75,34.75,0,0,0,6.36.67,19,19,0,0,0,5.26-.56,17.47,17.47,0,1,1,10,33.48,16.48,16.48,0,0,1-2.29.52l-1.65.22a54.22,54.22,0,0,1-14,.08,68.42,68.42,0,0,1-12.58-2.69,59.33,59.33,0,0,1-12.19-5.42,46.51,46.51,0,0,1-11.21-9.13,43.71,43.71,0,0,1-4.59-6.15,41.08,41.08,0,0,1-3.31-7,33.46,33.46,0,0,1-1.16-3.64c-.28-1.22-.54-2.45-.78-3.67a29.11,29.11,0,0,1-.41-3.61c-.07-1.19-.23-2.43-.18-3.56.1-9.33,2.61-17.24,5.61-24.24,6.23-13.92,14.73-24.87,23.56-35.13a343.13,343.13,0,0,1,28.14-28.3,10.06,10.06,0,0,1,14.23,14.19Z" fill="#3d668f"/>
    <path d="M1427.09,1015.31a1.41,1.41,0,0,1-.88-.31c-22.24-17.47-28.12-41.14-28.36-42.14a1.42,1.42,0,1,1,2.77-.66,82,82,0,0,0,27.35,40.56,1.43,1.43,0,0,1-.88,2.55Z" fill="#3d668f"/>
    <path d="M1554.56,908.37a1.41,1.41,0,0,1-.88-.31c-22.24-17.47-28.13-41.14-28.37-42.13a1.43,1.43,0,0,1,2.78-.67,81.94,81.94,0,0,0,27.35,40.56,1.43,1.43,0,0,1-.88,2.55Z" fill="#3d668f"/>
  </g>
</svg>