<?xml version="1.0" encoding="utf-8"?>
<svg xmlns="http://www.w3.org/2000/svg" viewBox="0 0 1500 1500">
  <polyline fill="none" points="159.45 878.87 159.45 744.47 383.96 744.47 383.96 648.26" stroke="#841387" stroke-miterlimit="10" stroke-width="2.99"/>
  <polyline fill="none" points="1241.32 621.31 1241.32 364.23 1019.61 364.23 604.14 364.23" stroke="#841387" stroke-miterlimit="10" stroke-width="2.99"/>
  <path d="m1375.84,509.89v241.03c0,13.64-11.07,24.7-24.7,24.7h-209.42c-13.64,0-24.67-11.07-24.67-24.7v-290.53c0-13.61,11.04-24.67,24.67-24.67h160.1c1.26,0,2.51.18,3.71.54,2.33.66,4.49,1.97,6.16,3.8,21.24,23.12,42.5,46.3,63.74,69.42.18.15.3.27.42.42Z" fill="#841387" stroke="#2a2a2a" stroke-linecap="round" stroke-linejoin="round" stroke-width="2.99"/>
  <path d="m1375.42,509.47h-69.9v-73.22c2.33.66,4.49,1.97,6.16,3.8,21.24,23.12,42.5,46.3,63.74,69.42Z" fill="#606" stroke="#2a2a2a" stroke-linecap="round" stroke-linejoin="round" stroke-width="2.99"/>
  <path d="m1170.87,508h13.16l10.07,61.85h-9.72l-1.77-12.28v.18h-11.04l-1.77,12.1h-9.01l10.07-61.85Zm10.6,41.35l-4.33-30.57h-.18l-4.24,30.57h8.75Z" fill="#fe5722"/>
  <line fill="none" stroke="#e3cdf1" stroke-linecap="round" stroke-linejoin="round" stroke-width="11.96" x1="1156.29" x2="1333.57" y1="597.46" y2="597.46"/>
  <line fill="none" stroke="#e3cdf1" stroke-linecap="round" stroke-linejoin="round" stroke-width="11.96" x1="1156.29" x2="1333.57" y1="626.36" y2="626.36"/>
  <line fill="none" stroke="#e3cdf1" stroke-linecap="round" stroke-linejoin="round" stroke-width="11.96" x1="1156.29" x2="1333.57" y1="655.26" y2="655.26"/>
  <line fill="none" stroke="#e3cdf1" stroke-linecap="round" stroke-linejoin="round" stroke-width="11.96" x1="1156.29" x2="1333.57" y1="684.16" y2="684.16"/>
  <line fill="none" stroke="#e3cdf1" stroke-linecap="round" stroke-linejoin="round" stroke-width="11.96" x1="1156.29" x2="1267.14" y1="713.06" y2="713.06"/>
  <path d="m1127.69,836.61c0-42.01-34.05-76.06-76.06-76.06l-216.17-17.61-216.17,17.61c-42.01,0-76.06,34.05-76.06,76.06,0,37.41,27.04,68.45,62.62,74.8l-11.38,360.16,5.28.16v-.08h465.82v.08s5.28-.16,5.28-.16l-11.36-359.31c38.31-3.94,68.2-36.3,68.2-75.65Z" fill="#841387" stroke="#2a2a2a" stroke-linecap="round" stroke-linejoin="round" stroke-width="2.99"/>
  <path d="m888.83,747.29v-118.33h-107.29v118.37l-32.74,2.67c10.18,38.34,45.12,66.6,86.66,66.6s76.48-28.26,86.66-66.6l-33.29-2.71Z" fill="#feffe2" stroke="#2a2a2a" stroke-linecap="round" stroke-linejoin="round" stroke-width="2.99"/>
  <path d="m1276.12,788.11c-7.82,3.71-12.38,12.02-11.32,20.61l1.92,59.8c-3.82,16.33-1.56,33.4,9.36,46.32,20.86,24.66,57.77,27.74,82.43,6.88,4.18-3.53,7.68-7.55,10.61-11.87l.31.2,32.68-49.24-39.82-24.97c-8.29-8.74-17.75-14.64-27.62-17.32l-21.83-13.69-4.75,7-6.15-15.95c-5.33-8.84-16.5-12.2-25.83-7.77Z" fill="#feffe2" stroke="#2a2a2a" stroke-linecap="round" stroke-linejoin="round" stroke-width="2.99"/>
  <path d="m1372.06,844.18l35.51-53.5c5.14-7.74,15.5-9.89,23.15-4.81,7.62,5.06,9.67,15.41,4.59,23.14-11.69,18.21-23.38,36.41-35.07,54.62" fill="#feffe2" stroke="#2a2a2a" stroke-miterlimit="10" stroke-width="2.99"/>
  <path d="m1356.28,833.96l43.06-64.86c5.14-7.74,15.5-9.89,23.15-4.81h0c7.62,5.06,9.67,15.41,4.59,23.14l-42.59,64.88" fill="#feffe2" stroke="#2a2a2a" stroke-miterlimit="10" stroke-width="2.99"/>
  <path d="m1333.11,821.37l50.6-76.23c5.14-7.74,15.5-9.89,23.15-4.81,7.62,5.06,9.67,15.41,4.59,23.14l-50.13,76.24" fill="#feffe2" stroke="#2a2a2a" stroke-miterlimit="10" stroke-width="2.99"/>
  <path d="m1310.99,807.57c14-21.21,28.01-42.43,42.01-63.64,5.14-7.74,15.5-9.89,23.15-4.81,7.62,5.06,9.67,15.41,4.59,23.14-14.2,21.63-28.39,43.25-42.59,64.88" fill="#feffe2" stroke="#2a2a2a" stroke-miterlimit="10" stroke-width="2.99"/>
  <path d="m391.23,788.11c7.82,3.71,12.38,12.02,11.32,20.61l-1.92,59.8c3.82,16.33,1.56,33.4-9.36,46.32-20.86,24.66-57.77,27.74-82.43,6.88-4.18-3.53-7.68-7.55-10.61-11.87l-.31.2-32.68-49.24,39.82-24.97c8.29-8.74,17.75-14.64,27.62-17.32l21.83-13.69,4.75,7,6.15-15.95c5.33-8.84,16.5-12.2,25.83-7.77Z" fill="#feffe2" stroke="#2a2a2a" stroke-linecap="round" stroke-linejoin="round" stroke-width="2.99"/>
  <path d="m295.3,844.18l-35.51-53.5c-5.14-7.74-15.5-9.89-23.15-4.81-7.62,5.06-9.67,15.41-4.59,23.14,11.69,18.21,23.38,36.41,35.07,54.62" fill="#feffe2" stroke="#2a2a2a" stroke-miterlimit="10" stroke-width="2.99"/>
  <path d="m311.08,833.96l-43.06-64.86c-5.14-7.74-15.5-9.89-23.15-4.81h0c-7.62,5.06-9.67,15.41-4.59,23.14l42.59,64.88" fill="#feffe2" stroke="#2a2a2a" stroke-miterlimit="10" stroke-width="2.99"/>
  <path d="m334.24,821.37l-50.6-76.23c-5.14-7.74-15.5-9.89-23.15-4.81-7.62,5.06-9.67,15.41-4.59,23.14l50.13,76.24" fill="#feffe2" stroke="#2a2a2a" stroke-miterlimit="10" stroke-width="2.99"/>
  <path d="m356.36,807.57c-14-21.21-28.01-42.43-42.01-63.64-5.14-7.74-15.5-9.89-23.15-4.81-7.62,5.06-9.67,15.41-4.59,23.14,14.2,21.63,28.39,43.25,42.59,64.88" fill="#feffe2" stroke="#2a2a2a" stroke-miterlimit="10" stroke-width="2.99"/>
  <path d="m623.92,955.32c-12.63,45.5-25.26,91.01-37.89,136.51-36.69-36.34-73.37-72.69-110.06-109.03,5.1-6.69,10.19-13.38,15.29-20.07,19.03-51.11,38.06-102.21,57.09-153.32,0,0,0,0,0,0,0,0,0,0,0,0,.44-1.5.97-3.07,1.61-4.7,0,0,1-2.51,2.31-5.02,1.75-3.35,9.1-12.6,20.75-23.45" fill="#841387" stroke="#2a2a2a" stroke-linecap="round" stroke-linejoin="round" stroke-width="2.99"/>
  <path d="m543.77,1010.14c-47.55-54.94-95.1-109.88-142.66-164.82l-93.05,76.64,154.9,198.23c22.08,22.94,54.42,30.88,81.45,20.23,28.18-11.1,38.77-37.71,40.6-42.54l2.99-13.14" fill="#841387" stroke="#2a2a2a" stroke-linecap="round" stroke-linejoin="round" stroke-width="2.99"/>
  <path d="m1035.86,942.76c15.32,49.69,30.64,99.38,45.97,149.07,36.69-36.34,73.37-72.69,110.06-109.03-5.1-6.69-10.19-13.38-15.29-20.07-10.19-30.63-20.39-61.26-30.58-91.88-3.71-13.16-7.39-24.18-10.39-32.57-11.16-31.27-18.79-42.77-26.38-51.33-2.13-2.4-4-4.28-5.28-5.52" fill="#841387" stroke="#2a2a2a" stroke-linecap="round" stroke-linejoin="round" stroke-width="2.99"/>
  <path d="m1124.08,1010.14c47.55-54.94,95.1-109.88,142.66-164.82l93.05,76.64-154.9,198.23c-22.08,22.94-54.42,30.88-81.45,20.23-28.18-11.1-38.77-37.71-40.6-42.54l-2.99-13.14" fill="#841387" stroke="#2a2a2a" stroke-linecap="round" stroke-linejoin="round" stroke-width="2.99"/>
  <line fill="#8546f0" stroke="#841387" stroke-linecap="round" stroke-linejoin="round" stroke-width="5.98" x1="52.62" x2="1460.18" y1="1270.36" y2="1270.36"/>
  <line fill="#8546f0" stroke="#841387" stroke-linecap="round" stroke-linejoin="round" stroke-width="5.98" x1="44.19" x2="1451.75" y1="1270.36" y2="1270.36"/>
  <path d="m1144.48,1140.21v91.92c0,18.67,15.14,33.81,33.81,33.81h48.43c16.66,0,30.49-12.05,33.29-27.9.45.01.89.03,1.35.03,22.25,0,40.29-17.95,40.29-40.1,0-22.16-18.04-40.1-40.29-40.1-.28,0-.55.02-.82.02v-17.68s-116.06,0-116.06,0Zm116.88,85.29c-.28,0-.55-.01-.82-.02v-55.03c.27,0,.54-.02.82-.02,15.28,0,27.65,12.33,27.65,27.54,0,15.21-12.38,27.54-27.65,27.54Z" fill="#841387" stroke="#2a2a2a" stroke-linecap="round" stroke-linejoin="round" stroke-width="2.99"/>
  <path d="m1217.17,1197.08c.3,0,.55-.25.55-.55v-56.32c0-.3-.25-.55-.55-.55s-.55.25-.55.55v56.32c0,.3.25.55.55.55Z" fill="#000300"/>
  <path d="m1237.44,1242.6v-26.33c0-1.34-.56-2.62-1.55-3.53l-18.73-17.31-19.79,17.3c-1.05.91-1.64,2.23-1.64,3.62v26.25c0,2.66,2.15,4.81,4.81,4.81h32.09c2.66,0,4.81-2.15,4.81-4.81Z" fill="#fe5722"/>
  <path d="m1206.44,1228.73c0-5.91,4.81-10.72,10.72-10.72,5.91,0,10.72,4.81,10.72,10.72,0,5.91-4.81,10.72-10.72,10.72-5.91,0-10.72-4.81-10.72-10.72Zm3.31,0c0,4.09,3.33,7.41,7.41,7.41,4.09,0,7.41-3.32,7.41-7.41s-3.32-7.41-7.41-7.41c-4.09,0-7.41,3.33-7.41,7.41Z" fill="#fff"/>
  <path d="m364.93,1265.67H110.04c-14.14-4.6-24.12-17.1-25.21-31.38-1.23-16.13,9.13-31.53,25.21-36.89h254.63c-2.02,10.1-3.54,22.51-3.28,36.62.2,12.03,1.7,22.72,3.54,31.65Z" fill="#feffe2"/>
  <path d="m178.51,1251.46c.8,5.08,1.87,9.82,3.1,14.21h-71.58c-14.14-4.6-24.12-17.1-25.21-31.38-1.23-16.13,9.13-31.53,25.21-36.89h71.84c-3.72,13.52-6.76,32.38-3.36,54.06Z" fill="#f9f8fc"/>
  <path d="m377.3,1268.6H110.03c-.31,0-.61-.05-.91-.14-15.11-4.91-26.05-18.55-27.22-33.95-1.35-17.69,9.83-34.1,27.2-39.88.3-.1.61-.15.93-.15h267.28c1.62,0,2.93,1.31,2.93,2.93s-1.31,2.93-2.93,2.93H110.51c-14.56,5.07-23.9,18.87-22.77,33.74.98,12.9,10.1,24.37,22.76,28.68h266.8c1.62,0,2.93,1.31,2.93,2.93s-1.31,2.93-2.93,2.93Z" fill="#fe5722"/>
  <path d="m194.31,1250.94c1.86-2.03,3.71-4.05,5.57-6.08.28-.3.76-.3,1.02.01,1.73,1.99,3.46,3.99,5.19,5.98.42.48,1.2.18,1.2-.45v-18.19c0-.38-.31-.69-.69-.69h-12.81c-.38,0-.69.31-.69.69v18.26c0,.63.77.93,1.19.46Z" fill="#fe5722"/>
  <path d="m403.08,1192.53h-254.89c-14.14-4.6-24.12-17.1-25.21-31.38-1.23-16.13,9.13-31.53,25.21-36.89h254.63c-2.02,10.1-3.54,22.51-3.28,36.62.2,12.03,1.7,22.72,3.54,31.65Z" fill="#feffe2"/>
  <path d="m216.67,1178.32c.8,5.08,1.87,9.82,3.1,14.21h-71.58c-14.14-4.6-24.12-17.1-25.21-31.38-1.23-16.13,9.13-31.53,25.21-36.89h71.84c-3.72,13.52-6.76,32.38-3.36,54.06Z" fill="#f9f8fc"/>
  <path d="m415.46,1195.47H148.18c-.31,0-.61-.05-.91-.14-15.11-4.91-26.05-18.55-27.22-33.95-1.35-17.69,9.83-34.1,27.2-39.88.3-.1.61-.15.93-.15h267.28c1.62,0,2.93,1.31,2.93,2.93s-1.31,2.93-2.93,2.93H148.67c-14.56,5.07-23.9,18.87-22.77,33.74.98,12.9,10.1,24.37,22.76,28.68h266.8c1.62,0,2.93,1.31,2.93,2.93s-1.31,2.93-2.93,2.93Z" fill="#e3cdf1"/>
  <path d="m172.65,1177.8c1.86-2.03,3.71-4.05,5.57-6.08.28-.3.76-.3,1.02.01,1.73,1.99,3.46,3.99,5.19,5.98.42.48,1.2.18,1.2-.45v-18.19c0-.38-.31-.69-.69-.69h-12.81c-.38,0-.69.31-.69.69v18.26c0,.63.77.93,1.19.46Z" fill="#e3cdf1"/>
  <rect fill="#e3cdf1" height="420" rx="41.87" ry="41.87" stroke="#2a2a2a" stroke-linecap="round" stroke-linejoin="round" stroke-width="2.99" width="615.99" x="47.96" y="228.26"/>
  <rect fill="#841387" height="22.91" rx="11.45" ry="11.45" stroke="#2a2a2a" stroke-linecap="round" stroke-linejoin="round" stroke-width="2.99" width="243.85" x="93.01" y="252.19"/>
  <circle cx="552.21" cy="264.15" fill="#841387" r="14" stroke="#2a2a2a" stroke-linecap="round" stroke-linejoin="round" stroke-width="2.99"/>
  <circle cx="588.86" cy="264.15" fill="#841387" r="14" stroke="#2a2a2a" stroke-linecap="round" stroke-linejoin="round" stroke-width="2.99"/>
  <circle cx="626.03" cy="264.15" fill="#841387" r="14" stroke="#2a2a2a" stroke-linecap="round" stroke-linejoin="round" stroke-width="2.99"/>
  <rect fill="#feffe2" height="334.47" rx="20.11" ry="20.11" stroke="#2a2a2a" stroke-miterlimit="10" stroke-width="2.99" width="578.83" x="67.31" y="289.35"/>
  <rect fill="#e3cdf1" height="231.63" stroke="#2a2a2a" stroke-linecap="round" stroke-linejoin="round" stroke-width="2.99" width="353.3" x="83.66" y="341.09"/>
  <rect fill="#e3cdf1" height="294.25" stroke="#2a2a2a" stroke-linecap="round" stroke-linejoin="round" stroke-width="2.99" width="178.18" x="450.2" y="306.79"/>
  <circle cx="253.25" cy="457.22" fill="#841387" r="67.71" stroke="#2a2a2a" stroke-linecap="round" stroke-linejoin="round" stroke-width="2.99"/>
  <path d="m292.69,451.66l-50.83-29.34c-4.28-2.47-9.63.62-9.63,5.56v58.69c0,4.94,5.35,8.03,9.63,5.56l50.83-29.34c4.28-2.47,4.28-8.65,0-11.12Z" fill="#fe5722"/>
  <line stroke="#feffe2" stroke-linecap="round" stroke-linejoin="round" stroke-width="11.96" x1="476.36" x2="522.17" y1="363.23" y2="363.23"/>
  <line stroke="#feffe2" stroke-linecap="round" stroke-linejoin="round" stroke-width="11.96" x1="476.36" x2="522.17" y1="521.94" y2="521.94"/>
  <line stroke="#feffe2" stroke-linecap="round" stroke-linejoin="round" stroke-width="11.96" x1="476.36" x2="554.63" y1="410.2" y2="410.2"/>
  <line stroke="#feffe2" stroke-linecap="round" stroke-linejoin="round" stroke-width="11.96" x1="476.36" x2="577.92" y1="386.52" y2="386.52"/>
  <line stroke="#feffe2" stroke-linecap="round" stroke-linejoin="round" stroke-width="11.96" x1="476.36" x2="606.94" y1="442.27" y2="442.27"/>
  <line stroke="#feffe2" stroke-linecap="round" stroke-linejoin="round" stroke-width="11.96" x1="476.36" x2="577.92" y1="472.43" y2="472.43"/>
  <line stroke="#feffe2" stroke-linecap="round" stroke-linejoin="round" stroke-width="11.96" x1="476.36" x2="577.92" y1="495.72" y2="495.72"/>
  <line stroke="#feffe2" stroke-linecap="round" stroke-linejoin="round" stroke-width="11.96" x1="476.36" x2="608.84" y1="549.18" y2="549.18"/>
  <line fill="#8546f0" stroke="#841387" stroke-linecap="round" stroke-linejoin="round" stroke-width="5.98" x1="39.82" x2="1447.38" y1="1270.36" y2="1270.36"/>
  <circle cx="159.32" cy="881.29" fill="#841387" r="12.47" stroke="#2a2a2a" stroke-linecap="round" stroke-linejoin="round" stroke-width="2.99"/>
  <polyline fill="none" points="159.32 1006.72 159.32 1105.99 321.21 1105.99 482.25 1105.99" stroke="#841387" stroke-miterlimit="10" stroke-width="2.99"/>
  <path d="m1011.88,1268.37h-159.27v-25.51h159.27c7.04,0,12.75,5.71,12.75,12.75h0c0,7.04-5.71,12.76-12.75,12.76Z" fill="#606" stroke="#2a2a2a" stroke-linecap="round" stroke-linejoin="round" stroke-width="2.99"/>
  <path d="m846.27,1268.37h-309.15c-29.76,0-55.86-19.83-63.84-48.5l-52.75-189.52c-5.17-18.55,8.79-36.92,28.05-36.92h341.97c11.52,0,21.59,7.77,24.52,18.91l58.13,221.13c4.64,17.65-8.67,34.91-26.92,34.91Z" fill="#e3cdf1" stroke="#2a2a2a" stroke-miterlimit="10" stroke-width="2.99"/>
  <path d="m659.15,1139.66c0,15.65-12.69,28.34-28.34,28.34-15.65,0-28.35-12.69-28.35-28.34,0-15.65,12.69-28.35,28.35-28.35,15.65,0,28.34,12.69,28.34,28.35Z" fill="#fff"/>
  <line fill="none" stroke="#841387" stroke-miterlimit="10" stroke-width="2.99" x1="159.45" x2="159.45" y1="1018.3" y2="935.51"/>
  <circle cx="159.32" cy="935.51" fill="#841387" r="12.47" stroke="#2a2a2a" stroke-linecap="round" stroke-linejoin="round" stroke-width="2.99"/>
  <path d="m739.77,563.62c-8.23-13-21.88-12.35-29.46-1.52-5.97,8.53,0,39.64,19.5,46.57,19.5,6.93,15.38-13.21,15.38-13.21l-5.42-31.84Z" fill="#feffe2" stroke="#2a2a2a" stroke-linecap="round" stroke-linejoin="round" stroke-width="2.99"/>
  <path d="m930.14,558.42c8.23-13,21.88-12.35,29.46-1.52,5.97,8.53,0,39.64-19.5,46.57-19.5,6.93-15.38-13.21-15.38-13.21l5.42-31.84Z" fill="#feffe2" stroke="#2a2a2a" stroke-linecap="round" stroke-linejoin="round" stroke-width="2.99"/>
  <path d="m792.48,400.07c-23.11-6.93-48.52,5.2-55.45,28.31-6.93,23.11-13.29,66.43-4.04,101.67,9.24,35.24,10.98,129.97,6.35,142.68-4.62,12.71-.58,39.86,44.48,51.41,45.06,11.55,58.34,4.62,58.34,4.62-6.93-1.16-12.71-12.71-12.71-12.71,6.93,8.09,34.08,15.6,64.12,9.82-5.2-5.2-6.93-11.55-6.93-11.55,8.66,5.78,26.57,9.82,55.45-30.62,4.04-40.44-12.71-89.54-9.24-113.22,3.47-23.68,24.26-91.85,24.26-110.33s-36.97-31.77-42.17-57.77c-5.2-25.99-55.45-53.14-82.6-38.7-27.15,14.44-33.5,23.11-39.86,36.39Z" fill="#fe5722"/>
  <path d="m791.91,431.84c-15.02,4.04-35.24,57.77-40.44,95.31-5.2,37.55-4.04,83.76,27.73,106.29,6.35-15.02,88.38-28.31,124.77-9.24,24.84-8.09,24.26-51.41,24.26-69.9s-5.78-67.59-13.29-80.29c-7.51-12.71-18.48-30.62-39.28-21.37-20.8,9.24-57.19,2.89-83.76-20.8Z" fill="#feffe2"/>
  <polyline fill="none" points="837.79 590.82 837.79 605.61 848.65 605.73" stroke="#841387" stroke-linecap="round" stroke-linejoin="round" stroke-width="2.99"/>
  <path d="m908.05,565.75c.4,8.42-6.1,15.58-14.52,15.98-8.42.4-15.58-6.1-15.98-14.52-.4-8.42,6.1-15.58,14.52-15.98,8.42-.4,15.58,6.1,15.98,14.52Z" fill="#841387"/>
  <path d="m811,565.75c.4,8.42-6.1,15.58-14.52,15.98-8.42.4-15.58-6.1-15.98-14.52-.4-8.42,6.1-15.58,14.52-15.98,8.42-.4,15.58,6.1,15.98,14.52Z" fill="#841387"/>
  <path d="m821.26,646.3s21.14,12.25,46.45,0" fill="none" stroke="#841387" stroke-linecap="round" stroke-linejoin="round" stroke-width="2.99"/>
  <path d="m818.72,546.85s-19.61-24.71-53.49,1.69" fill="none" stroke="#841387" stroke-linecap="round" stroke-linejoin="round" stroke-width="2.99"/>
  <path d="m867.99,546.85s19.61-24.71,53.49,1.69" fill="none" stroke="#841387" stroke-linecap="round" stroke-linejoin="round" stroke-width="2.99"/>
</svg>