<?xml version="1.0" encoding="utf-8"?>
<svg xmlns="http://www.w3.org/2000/svg" enable-background="new 0 0 3000 3000" viewBox="0 0 3000 3000">
  <ellipse cx="1541.63" cy="1501.61" fill="#bae3e5" opacity=".2" rx="778.26" ry="1034.48" transform="rotate(-64.355 1541.674 1501.605)"/>
  <path d="M1758.69,1836.91c0.4-0.06,0.81-0.08,1.24-0.05l21.74,1.57c11.37,0.82,19.95,10.74,19.13,22.11l-0.53,7.31&#xD;&#xA;		c-0.36,5.06,3.3,9.46,8.34,10.02l10.67,1.19c10.75,1.19,18.83,10.6,18.37,21.41l-0.47,11.22c-0.2,4.84,3.41,9.11,8.21,9.72&#xD;&#xA;		l15.72,1.99c10.26,1.3,18.03,10.07,18.08,20.41l0.07,14.96c0.02,4.99,3.94,9.09,8.92,9.34l26.48,1.34c3.11,0.16,5.5,2.81,5.34,5.91&#xD;&#xA;		c-0.16,3.11-2.8,5.5-5.91,5.34l-26.48-1.34c-10.95-0.56-19.57-9.58-19.63-20.55l-0.07-14.96c-0.02-4.7-3.56-8.69-8.22-9.28&#xD;&#xA;		l-15.72-1.99c-10.57-1.34-18.5-10.73-18.06-21.37l0.47-11.22c0.2-4.92-3.46-9.19-8.36-9.74l-10.67-1.19&#xD;&#xA;		c-11.08-1.23-19.14-10.91-18.34-22.03l0.53-7.31c0.37-5.17-3.53-9.68-8.7-10.05l-21.74-1.57c-3.1-0.22-5.44-2.92-5.22-6.03&#xD;&#xA;		C1754.1,1839.4,1756.14,1837.29,1758.69,1836.91z" fill="#f2c225"/>
  <path d="M269.73,1261.84c-16.53,0-29.98-13.45-29.98-29.98c0-16.53,13.45-29.98,29.98-29.98&#xD;&#xA;		c16.53,0,29.98,13.45,29.98,29.98C299.71,1248.39,286.26,1261.84,269.73,1261.84z M269.73,1213.14c-10.32,0-18.71,8.39-18.71,18.71&#xD;&#xA;		c0,10.32,8.39,18.71,18.71,18.71c10.32,0,18.71-8.39,18.71-18.71C288.44,1221.54,280.05,1213.14,269.73,1213.14z" fill="#775fa9"/>
  <path d="M2445.67,944.55c-16.53,0-29.98-13.45-29.98-29.98c0-16.53,13.45-29.98,29.98-29.98s29.98,13.45,29.98,29.98&#xD;&#xA;		C2475.65,931.1,2462.2,944.55,2445.67,944.55z M2445.67,895.85c-10.32,0-18.71,8.39-18.71,18.71c0,10.32,8.39,18.71,18.71,18.71&#xD;&#xA;		c10.32,0,18.71-8.39,18.71-18.71C2464.38,904.25,2455.99,895.85,2445.67,895.85z" fill="#bae3e5"/>
  <path d="M703.14,727.66c0.06-0.4,0.15-0.8,0.3-1.2l7.59-20.43c3.97-10.69,15.89-16.15,26.58-12.18l6.87,2.55&#xD;&#xA;		c4.75,1.76,10-0.52,11.95-5.2l4.12-9.92c4.16-9.99,15.44-15.11,25.7-11.65l10.64,3.59c4.59,1.55,9.7-0.72,11.63-5.17l6.31-14.54&#xD;&#xA;		c4.12-9.48,14.71-14.49,24.65-11.65l14.38,4.12c4.79,1.37,9.83-1.24,11.47-5.95l8.7-25.05c1.02-2.94,4.23-4.5,7.17-3.48&#xD;&#xA;		c2.94,1.02,4.5,4.23,3.47,7.17l-8.7,25.05c-3.6,10.36-14.68,16.11-25.22,13.09l-14.38-4.12c-4.52-1.29-9.34,0.98-11.21,5.3&#xD;&#xA;		l-6.31,14.54c-4.24,9.78-15.48,14.76-25.57,11.36l-10.64-3.59c-4.66-1.57-9.8,0.75-11.68,5.3l-4.12,9.92&#xD;&#xA;		c-4.28,10.3-15.83,15.32-26.28,11.44l-6.87-2.55c-4.86-1.8-10.28,0.68-12.09,5.54l-7.59,20.43c-1.08,2.92-4.33,4.4-7.25,3.32&#xD;&#xA;		C704.24,732.77,702.78,730.22,703.14,727.66z" fill="#92468b"/>
  <path d="M1131.65,1786.22c-16.53,0-29.98-13.45-29.98-29.98c0-16.53,13.45-29.98,29.98-29.98s29.98,13.45,29.98,29.98&#xD;&#xA;		C1161.63,1772.77,1148.18,1786.22,1131.65,1786.22z M1131.65,1737.53c-10.32,0-18.71,8.39-18.71,18.71&#xD;&#xA;		c0,10.32,8.39,18.71,18.71,18.71s18.71-8.39,18.71-18.71C1150.36,1745.92,1141.97,1737.53,1131.65,1737.53z" fill="#f17243"/>
  <g>
    <linearGradient gradientUnits="userSpaceOnUse" id="a" x1="1526.4" x2="1526.4" y1="373.263" y2="731.902">
      <stop offset="0" stop-color="#f8e192"/>
      <stop offset=".075" stop-color="#fae086" stop-opacity=".925"/>
      <stop offset=".253" stop-color="#fddf69" stop-opacity=".747"/>
      <stop offset=".434" stop-color="#ffde4c" stop-opacity=".566"/>
      <stop offset=".617" stop-color="#ffde33" stop-opacity=".383"/>
      <stop offset=".804" stop-color="#ffde20" stop-opacity=".196"/>
      <stop offset="1" stop-color="#ffde17" stop-opacity="0"/>
    </linearGradient>
    <polygon fill="url(#a)" points="2618.81 827.07 433.99 827.07 558.88 411.54 2493.92 411.54"/>
    <rect fill="#bae3e5" height="19.48" width="1679.2" x="686.8" y="378.26"/>
    <rect fill="#775fa9" height="19.48" width="2006.27" x="523.26" y="398.55"/>
    <path d="M1694.04,839.36c-0.32,0-0.63,0.01-0.94,0.01v130.34h129.67c0.01-0.53,0.02-1.06,0.02-1.6&#xD;&#xA;			C1822.79,897.01,1765.15,839.36,1694.04,839.36z" fill="#92468b"/>
    <path d="M1673.87,988.94V858.6c-70.67,0.51-127.81,57.95-127.81,128.74c0,71.11,57.64,128.75,128.75,128.75&#xD;&#xA;			c70.57,0,127.88-56.78,128.73-127.16H1673.87z" fill="#bd7bb4"/>
    <g>
      <path d="M2085.83,824.13c-0.31,0-0.63,0.01-0.94,0.01v130.34l113.19-64.68&#xD;&#xA;			C2176.01,850.61,2134.02,824.13,2085.83,824.13z" fill="#92468b"/>
      <path d="M2065.66,988.13V857.79c-70.67,0.51-127.81,57.95-127.81,128.74c0,71.11,57.64,128.75,128.75,128.75&#xD;&#xA;			c71.11,0,128.75-57.64,128.75-128.75c0-22.92-6-44.44-16.5-63.09L2065.66,988.13z" fill="#bd7bb4"/>
    </g>
    <g>
      <path d="M1934.34,1348.74c-0.97,0-1.94-0.06-2.92-0.17c-9.85-1.12-17.88-7.67-20.95-17.1l-51.6-163.05&#xD;&#xA;			c-3.11-9.55-11.26-13.35-17.85-13.7c-6.58-0.36-15.06,2.52-19.2,11.65l-55.28,145.51l-0.03,0.07&#xD;&#xA;			c-4.33,9.64-13.58,15.27-24.13,14.7c-10.55-0.57-19.14-7.16-22.42-17.2l-13.41-41.1c-3.19-9.77-11.51-13.49-18.25-13.72&#xD;&#xA;			c-6.73-0.22-15.29,2.92-19.14,12.44l-4.71-1.9c3.98-9.85,13.42-15.98,24.03-15.62c10.62,0.36,19.61,7.13,22.9,17.23l13.41,41.1&#xD;&#xA;			c3.12,9.56,11.27,13.35,17.86,13.71c6.57,0.35,15.06-2.52,19.19-11.65l55.28-145.51l0.03-0.07c4.34-9.64,13.59-15.28,24.14-14.7&#xD;&#xA;			c10.56,0.57,19.15,7.17,22.42,17.23l51.6,163.05c2.44,7.49,8.83,12.71,16.68,13.6c7.75,0.88,15.07-2.67,19.16-9.28l33.84-109.38&#xD;&#xA;			c3.33-10.77,13.36-17.89,24.38-17.35c0.31,0.02,0.62,0.04,0.93,0.06c10.43,0.91,19.27,8.81,21.55,19.25l25.94,74.64&#xD;&#xA;			c3.33,6.95,10.17,11.28,17.89,11.31c0.02,0,0.05,0,0.07,0c7.7,0,14.55-4.29,17.91-11.22l20.85-54.15l0.04-0.09&#xD;&#xA;			c3.84-8.01,11.41-13.28,20.25-14.09c8.84-0.81,17.25,2.99,22.48,10.16l0.12,0.17l11.3,22.52l-4.54,2.28l-11.1-22.14&#xD;&#xA;			c-4.18-5.61-10.81-8.57-17.79-7.93c-7.01,0.64-13.02,4.81-16.09,11.14l-20.85,54.15l-0.04,0.09c-4.2,8.76-12.83,14.2-22.54,14.2&#xD;&#xA;			c-0.03,0-0.06,0-0.08,0c-9.74-0.03-18.38-5.53-22.53-14.34l-0.1-0.25l-26.09-75.06l-0.03-0.16c-1.77-8.35-8.78-14.68-17.05-15.4&#xD;&#xA;			c-0.25-0.02-0.5-0.04-0.75-0.05c-8.71-0.43-16.62,5.23-19.27,13.78l-34.02,109.98l-0.16,0.26&#xD;&#xA;			C1951.07,1344.26,1943.08,1348.74,1934.34,1348.74z" fill="#bd7bb4"/>
      <rect fill="#92468b" height="8.78" width="508.06" x="1662.85" y="1262.82"/>
    </g>
    <g>
      <rect fill="#92468b" height="187.65" width="58.96" x="1377.46" y="1564.54"/>
      <path d="M1441.96,1757.73h-70.03V1437.5h70.03V1757.73z M1383,1746.66h47.9v-298.09H1383V1746.66z" fill="#bd7bb4"/>
      <rect fill="#92468b" height="81.27" width="58.96" x="1575.87" y="1670.92"/>
      <path d="M1640.37,1757.73h-70.03V1437.5h70.03V1757.73z M1581.4,1746.66h47.9v-298.09h-47.9V1746.66z" fill="#bd7bb4"/>
      <g>
        <rect fill="#92468b" height="267.73" width="58.96" x="1476.67" y="1484.47"/>
        <path d="M1541.16,1757.73h-70.03V1437.5h70.03V1757.73z M1482.2,1746.66h47.9v-298.09h-47.9V1746.66z" fill="#bd7bb4"/>
      </g>
    </g>
    <g>
      <path d="M1019.16,1276.54h-81.73V825.63h81.73V1276.54z M940.91,1273.06h74.77V829.11h-74.77V1273.06z" fill="#bd7bb4"/>
      <path d="M1095.9,1276.54h-81.73V825.63h81.73V1276.54z M1017.65,1273.06h74.77V829.11h-74.77V1273.06z" fill="#bd7bb4"/>
      <path d="M1172.65,1276.54h-81.73V825.63h81.73V1276.54z M1094.4,1273.06h74.77V829.11h-74.77V1273.06z" fill="#bd7bb4"/>
      <path d="M1250.14,1276.54h-81.73V825.63h81.73V1276.54z M1171.9,1273.06h74.77V829.11h-74.77V1273.06z" fill="#bd7bb4"/>
      <path d="M1326.89,1276.54h-81.73V825.63h81.73V1276.54z M1248.64,1273.06h74.77V829.11h-74.77V1273.06z" fill="#bd7bb4"/>
      <path d="M1403.63,1276.54h-81.73V825.63h81.73V1276.54z M1325.38,1273.06h74.77V829.11h-74.77V1273.06z" fill="#bd7bb4"/>
      <path d="M900.79,1251.66c-1.52,0-3.05-0.4-4.45-1.23c-4.13-2.46-5.49-7.8-3.03-11.94l112.86-189.6&#xD;&#xA;			c1.16-1.96,3.05-3.38,5.25-3.96l81.26-21.57c4.11-1.09,8.42,0.95,10.17,4.83l65.84,145.73l71.88-228.53&#xD;&#xA;			c0.85-2.72,2.98-4.84,5.7-5.7c2.72-0.85,5.68-0.32,7.93,1.42l66.75,51.65l121.01-139.25c3.15-3.63,8.65-4.02,12.29-0.86&#xD;&#xA;			c3.63,3.15,4.02,8.66,0.86,12.29l-126.4,145.46c-3.03,3.49-8.25,4-11.9,1.18l-63.38-49.03l-74.97,238.37&#xD;&#xA;			c-1.08,3.45-4.18,5.86-7.79,6.08c-3.6,0.23-6.97-1.82-8.46-5.11l-72.2-159.81l-70.69,18.76L908.28,1247.4&#xD;&#xA;			C906.65,1250.14,903.76,1251.66,900.79,1251.66z" fill="#92468b"/>
    </g>
  </g>
  <g>
    <circle cx="1589.22" cy="2265.22" fill="#c6c6c5" r="121.25"/>
    <path d="M1589.22,2359.83c-112.63,0-203.93,91.3-203.93,203.93c0,1.86,0.03,3.71,0.08,5.55&#xD;&#xA;				c51.96,37.41,124.1,60.59,203.85,60.59s151.89-23.18,203.85-60.59c0.05-1.84,0.08-3.69,0.08-5.55&#xD;&#xA;				C1793.15,2451.14,1701.85,2359.83,1589.22,2359.83z" fill="#c6c6c5"/>
    <path d="M1705.11,2239.75c0,0,9.27,74.93,60.25,101.19c0,0-57.16,54.84-163.76,54.84&#xD;&#xA;					S1705.11,2239.75,1705.11,2239.75z" fill="#c6c6c5"/>
    <path d="M1473.33,2239.75c0,0-9.27,74.93-60.25,101.19c0,0,57.16,54.84,163.76,54.84&#xD;&#xA;					S1473.33,2239.75,1473.33,2239.75z" fill="#c6c6c5"/>
    <circle cx="1060.74" cy="2123.93" fill="#c6c6c5" r="121.25"/>
    <path d="M1060.74,2218.54c-112.63,0-203.93,91.3-203.93,203.93c0,1.86,0.03,3.71,0.08,5.55&#xD;&#xA;				c51.96,37.41,124.1,60.59,203.85,60.59s151.89-23.18,203.85-60.59c0.05-1.84,0.08-3.69,0.08-5.55&#xD;&#xA;				C1264.67,2309.84,1173.37,2218.54,1060.74,2218.54z" fill="#c6c6c5"/>
    <g>
      <circle cx="2117.7" cy="2121.61" fill="#c6c6c5" r="121.25"/>
      <path d="M2117.7,2216.22c-112.63,0-203.93,91.3-203.93,203.93c0,1.86,0.03,3.71,0.08,5.55&#xD;&#xA;				c51.96,37.41,124.1,60.59,203.85,60.59s151.89-23.18,203.85-60.59c0.05-1.84,0.08-3.69,0.08-5.55&#xD;&#xA;				C2321.63,2307.52,2230.33,2216.22,2117.7,2216.22z" fill="#c6c6c5"/>
      <path d="M2233.59,2096.14c0,0,9.27,74.93,60.25,101.19c0,0-57.16,54.84-163.76,54.84&#xD;&#xA;					C2023.49,2252.17,2233.59,2096.14,2233.59,2096.14z" fill="#c6c6c5"/>
      <path d="M2001.81,2096.14c0,0-9.27,74.93-60.25,101.19c0,0,57.16,54.84,163.76,54.84&#xD;&#xA;					C2211.92,2252.17,2001.81,2096.14,2001.81,2096.14z" fill="#c6c6c5"/>
    </g>
    <g>
      <polygon fill="#c6c6c5" points="1282.3 2083.63 1351.06 2116.37 1387.85 2035.06 1324.9 1994.14"/>
      <path d="M1346.69,2017.13c0,0-1.26-22.1-17.28-26.1c-20.1-5.01-13.74,57.01-13.74,57.01L1346.69,2017.13z" fill="#c6c6c5"/>
      <path d="M1323.86,2017.95l27.06-64.66c0,0,7.31-19.2,16.14-15.75c7.87,3.07,3.09,16.8,3.09,16.8l-17.29,59.48&#xD;&#xA;				C1352.86,2013.82,1330.52,2033.76,1323.86,2017.95z" fill="#c6c6c5"/>
      <path d="M1357,1989.7c0,0,9.88-2.85,11.62,5.68c1.84,9.01,15.59,6.81,16.31,14.11c1.29,13.14,9.26,10.44,9.66,19.33&#xD;&#xA;				c0.61,13.59-12.76,22.84-25.6,39.33l-32.46-45.07L1357,1989.7z" fill="#c6c6c5"/>
    </g>
    <path d="M1113.46,2315.96l15.85-74.09c-1.23-0.26-1.84-0.33-1.85-0.33c0.75,0.08,76.07,5.68,163.59-176.14&#xD;&#xA;			l68.27,32.86C1244.67,2336.45,1126.55,2318.76,1113.46,2315.96z" fill="#c6c6c5"/>
  </g>
  <g>
    <path d="M733.38,1190.05c0,4.12,3.34,7.46,7.46,7.46h0c4.12,0,7.46-3.34,7.46-7.46v-140.67&#xD;&#xA;			c0-4.12-3.34-7.46-7.46-7.46h0c-4.12,0-7.46,3.34-7.46,7.46" fill="#bae3e5"/>
    <circle cx="740.84" cy="1006.43" fill="#bae3e5" r="15.4"/>
    <path d="M827.16,1454.81c-77.86,28.17-120.24,108.33-94.66,179.06c25.58,70.72,109.44,105.22,187.3,77.06&#xD;&#xA;				s276.75-128.97,239.66-231.51C1122.69,1377.76,905.02,1426.64,827.16,1454.81z" fill="#775fa9"/>
    <path d="M729.04,1622.66c-0.95-3.66-1.73-7.34-2.33-11.03c54.49-12.97,99.98-55.39,113.93-113.48&#xD;&#xA;				c3.97-16.52,5.08-33.08,3.67-49.14c3.51-1.11,7.18-2.24,11-3.37c1.85,17.99,0.75,36.59-3.7,55.15&#xD;&#xA;				C836.6,1563.23,787.65,1608.81,729.04,1622.66z" fill="#f2c225"/>
    <path d="M1051.66,1410.22c-6.61,12.24-2.95,27.04,8.17,33.04s25.5,0.94,32.11-11.3&#xD;&#xA;				c6.61-12.24,20.26-47.14,4.14-55.84C1080.09,1367.48,1058.27,1397.97,1051.66,1410.22z" fill="#775fa9"/>
    <path d="M1217.37,1445.65c8.11-5.42,11.03-15.29,6.51-22.05c-4.51-6.75-14.75-7.83-22.86-2.41&#xD;&#xA;				c-8.11,5.42-28.17,22.36-21.62,32.15C1185.89,1463.05,1209.26,1451.07,1217.37,1445.65z" fill="#775fa9"/>
    <path d="M1176.2,1401.94c4.94-8.42,3.26-18.57-3.74-22.68c-7.01-4.11-16.69-0.62-21.63,7.8&#xD;&#xA;				c-4.94,8.42-15.61,32.4-5.45,38.36C1155.44,1431.32,1171.26,1410.35,1176.2,1401.94z" fill="#775fa9"/>
    <path d="M1223.04,1517.27c9.74,0.53,18-5.62,18.44-13.73c0.44-8.11-7.1-15.12-16.85-15.64&#xD;&#xA;				c-9.74-0.53-35.95,0.99-36.58,12.75C1187.41,1512.3,1213.29,1516.74,1223.04,1517.27z" fill="#775fa9"/>
    <path d="M265.34,1858.9c0,165.23,156.7,299.17,350.01,299.17s350.01-133.94,350.01-299.17&#xD;&#xA;			s-156.7-450.26-350.01-450.26S265.34,1693.67,265.34,1858.9z" fill="#bae3e5"/>
    <ellipse cx="638.41" cy="1249.33" fill="#bae3e5" rx="158.74" ry="136.83"/>
    <path d="M566.3,1125.58c18.24,13.66,30.05,35.44,30.05,59.98c0,41.35-33.52,74.88-74.88,74.88&#xD;&#xA;			c-15.48,0-29.86-4.7-41.8-12.74c0-0.06,0-0.13,0-0.19C479.67,1194.32,514.88,1148.22,566.3,1125.58z" fill="#775fa9"/>
    <path d="M632.1,1273.52h104.88c15.62,0,28.28-12.66,28.28-28.28v-7.2c0-15.62-12.66-28.28-28.28-28.28H632.1&#xD;&#xA;			c-15.62,0-28.28,12.66-28.28,28.28v7.2C603.81,1260.86,616.48,1273.52,632.1,1273.52z" fill="#80c1c1"/>
    <path d="M501.26,1197.51h1.68c3.66,0,6.62-2.96,6.62-6.62v-142.35c0-3.66-2.96-6.62-6.62-6.62h-1.68&#xD;&#xA;			c-3.66,0-6.62,2.96-6.62,6.62v142.35C494.64,1194.54,497.6,1197.51,501.26,1197.51z" fill="#bae3e5"/>
    <circle cx="514.5" cy="1193.01" fill="#bae3e5" r="35.27"/>
    <path d="M641.59,1261.27h104.88c15.62,0,28.28-12.66,28.28-28.28v-7.2c0-15.62-12.66-28.28-28.28-28.28H641.59&#xD;&#xA;			c-15.62,0-28.28,12.66-28.28,28.28v7.2C613.31,1248.61,625.97,1261.27,641.59,1261.27z" fill="#775fa9"/>
    <circle cx="502.1" cy="1006.43" fill="#bae3e5" r="15.4"/>
    <path d="M746.44,1453.62c-35.53,20.94-76.95,32.96-121.18,32.96c-49.37,0-95.23-14.98-133.32-40.61&#xD;&#xA;			c37.81-23.42,78.7-37.32,121.37-37.32C660.44,1408.64,705.4,1425.59,746.44,1453.62z" fill="#775fa9"/>
    <path d="M575.14,1922.01H818.7c36.12,0,65.39-29.28,65.39-65.39v-125.61c0-36.12-29.28-65.39-65.39-65.39H575.14&#xD;&#xA;				c-36.12,0-65.39,29.28-65.39,65.39v125.61C509.75,1892.73,539.02,1922.01,575.14,1922.01z" fill="#80c1c1"/>
    <path d="M592.56,1904.59h243.56c36.12,0,65.39-29.28,65.39-65.39v-125.61c0-36.12-29.28-65.39-65.39-65.39H592.56&#xD;&#xA;				c-36.12,0-65.39,29.28-65.39,65.39v125.61C527.16,1875.31,556.44,1904.59,592.56,1904.59z" fill="#f0efef"/>
    <path d="M743.75,1677.68c-0.07,0-0.14,0-0.21,0v28.53h28.39c0-0.12,0-0.23,0-0.35&#xD;&#xA;					C771.94,1690.3,759.32,1677.68,743.75,1677.68z" fill="#92468b"/>
    <path d="M739.34,1710.42v-28.53c-15.47,0.11-27.98,12.69-27.98,28.18c0,15.57,12.62,28.19,28.19,28.19&#xD;&#xA;					c15.45,0,27.99-12.43,28.18-27.84H739.34z" fill="#bd7bb4"/>
    <path d="M829.52,1674.34c-0.07,0-0.14,0-0.21,0v28.53l24.78-14.16C849.26,1680.14,840.07,1674.34,829.52,1674.34z" fill="#92468b"/>
    <path d="M825.11,1710.25v-28.53c-15.47,0.11-27.98,12.69-27.98,28.18c0,15.57,12.62,28.19,28.19,28.19&#xD;&#xA;					c15.57,0,28.19-12.62,28.19-28.19c0-5.02-1.31-9.73-3.61-13.81L825.11,1710.25z" fill="#bd7bb4"/>
    <path d="M796.36,1789.19c-0.21,0-0.42-0.01-0.64-0.04c-2.16-0.24-3.91-1.68-4.59-3.74l-11.3-35.69&#xD;&#xA;					c-0.68-2.09-2.46-2.92-3.91-3c-1.44-0.08-3.3,0.55-4.2,2.55l-12.1,31.85l-0.01,0.02c-0.95,2.11-2.97,3.34-5.28,3.22&#xD;&#xA;					c-2.31-0.12-4.19-1.57-4.91-3.77l-2.94-9c-0.7-2.14-2.52-2.95-3.99-3c-1.47-0.05-3.35,0.64-4.19,2.72l-1.03-0.42&#xD;&#xA;					c0.87-2.16,2.94-3.5,5.26-3.42c2.32,0.08,4.29,1.56,5.01,3.77l2.94,9c0.68,2.09,2.47,2.92,3.91,3c1.44,0.08,3.3-0.55,4.2-2.55&#xD;&#xA;					l12.1-31.85l0.01-0.02c0.95-2.11,2.98-3.35,5.29-3.22c2.31,0.13,4.19,1.57,4.91,3.77l11.3,35.69c0.53,1.64,1.93,2.78,3.65,2.98&#xD;&#xA;					c1.7,0.19,3.3-0.59,4.19-2.03l7.41-23.95c0.73-2.36,2.92-3.92,5.34-3.8c0.07,0,0.14,0.01,0.2,0.01c2.28,0.2,4.22,1.93,4.72,4.21&#xD;&#xA;					l5.68,16.34c0.73,1.52,2.23,2.47,3.92,2.48c0,0,0.01,0,0.01,0c1.69,0,3.19-0.94,3.92-2.46l4.56-11.85l0.01-0.02&#xD;&#xA;					c0.84-1.75,2.5-2.91,4.43-3.08c1.94-0.18,3.78,0.65,4.92,2.22l0.03,0.04l2.47,4.93l-0.99,0.5l-2.43-4.85&#xD;&#xA;					c-0.91-1.23-2.37-1.88-3.89-1.74c-1.54,0.14-2.85,1.05-3.52,2.44l-4.56,11.85l-0.01,0.02c-0.92,1.92-2.81,3.11-4.93,3.11&#xD;&#xA;					c-0.01,0-0.01,0-0.02,0c-2.13-0.01-4.02-1.21-4.93-3.14l-0.02-0.05l-5.71-16.43l-0.01-0.03c-0.39-1.83-1.92-3.21-3.73-3.37&#xD;&#xA;					c-0.05,0-0.11-0.01-0.16-0.01c-1.91-0.09-3.64,1.14-4.22,3.02l-7.45,24.08l-0.03,0.06&#xD;&#xA;					C800.02,1788.21,798.27,1789.19,796.36,1789.19z" fill="#bd7bb4"/>
    <rect fill="#92468b" height="1.92" width="111.22" x="736.92" y="1770.38"/>
    <rect fill="#92468b" height="41.08" width="12.91" x="686.52" y="1836.44"/>
    <path d="M700.64,1878.73h-15.33v-70.1h15.33V1878.73z M687.73,1876.3h10.49v-65.26h-10.49V1876.3z" fill="#bd7bb4"/>
    <rect fill="#92468b" height="17.79" width="12.91" x="729.96" y="1859.72"/>
    <path d="M744.08,1878.73h-15.33v-70.1h15.33V1878.73z M731.17,1876.3h10.49v-65.26h-10.49V1876.3z" fill="#bd7bb4"/>
    <g>
      <rect fill="#92468b" height="58.61" width="12.91" x="708.24" y="1818.91"/>
      <path d="M722.36,1878.73h-15.33v-70.1h15.33V1878.73z M709.45,1876.3h10.49v-65.26h-10.49V1876.3z" fill="#bd7bb4"/>
    </g>
    <g>
      <path d="M596,1773.39h-17.89v-98.71H596V1773.39z M578.87,1772.62h16.37v-97.19h-16.37V1772.62z" fill="#bd7bb4"/>
      <path d="M612.81,1773.39h-17.89v-98.71h17.89V1773.39z M595.68,1772.62h16.37v-97.19h-16.37V1772.62z" fill="#bd7bb4"/>
      <path d="M629.61,1773.39h-17.89v-98.71h17.89V1773.39z M612.48,1772.62h16.37v-97.19h-16.37V1772.62z" fill="#bd7bb4"/>
      <path d="M646.57,1773.39h-17.89v-98.71h17.89V1773.39z M629.44,1772.62h16.37v-97.19h-16.37V1772.62z" fill="#bd7bb4"/>
      <path d="M663.37,1773.39h-17.89v-98.71h17.89V1773.39z M646.24,1772.62h16.37v-97.19h-16.37V1772.62z" fill="#bd7bb4"/>
      <path d="M680.17,1773.39h-17.89v-98.71h17.89V1773.39z M663.04,1772.62h16.37v-97.19h-16.37V1772.62z" fill="#bd7bb4"/>
      <path d="M570.09,1767.94c-0.33,0-0.67-0.09-0.97-0.27c-0.9-0.54-1.2-1.71-0.66-2.61l24.71-41.51&#xD;&#xA;					c0.25-0.43,0.67-0.74,1.15-0.87l17.79-4.72c0.9-0.24,1.84,0.21,2.23,1.06l14.41,31.9l15.74-50.03c0.19-0.59,0.65-1.06,1.25-1.25&#xD;&#xA;					c0.6-0.19,1.24-0.07,1.74,0.31l14.61,11.31l26.49-30.49c0.69-0.79,1.89-0.88,2.69-0.19c0.79,0.69,0.88,1.89,0.19,2.69&#xD;&#xA;					l-27.67,31.84c-0.66,0.76-1.81,0.88-2.61,0.26l-13.87-10.73l-16.41,52.19c-0.24,0.75-0.92,1.28-1.7,1.33&#xD;&#xA;					c-0.79,0.05-1.53-0.4-1.85-1.12l-15.81-34.98l-15.48,4.11l-24.31,40.84C571.37,1767.61,570.74,1767.94,570.09,1767.94z" fill="#92468b"/>
    </g>
    <g>
      <path d="M651.83,1831.77h-85.22c-1.56,0-2.82-1.26-2.82-2.82s1.26-2.82,2.82-2.82h85.22c1.56,0,2.82,1.26,2.82,2.82&#xD;&#xA;					S653.39,1831.77,651.83,1831.77z" fill="#92468b"/>
      <path d="M651.83,1843.04h-85.22c-1.56,0-2.82-1.26-2.82-2.82c0-1.56,1.26-2.82,2.82-2.82h85.22&#xD;&#xA;					c1.56,0,2.82,1.26,2.82,2.82C654.65,1841.78,653.39,1843.04,651.83,1843.04z" fill="#92468b"/>
      <path d="M651.83,1854.31h-85.22c-1.56,0-2.82-1.26-2.82-2.82s1.26-2.82,2.82-2.82h85.22c1.56,0,2.82,1.26,2.82,2.82&#xD;&#xA;					S653.39,1854.31,651.83,1854.31z" fill="#92468b"/>
      <path d="M617.74,1865.58h-51.13c-1.56,0-2.82-1.26-2.82-2.82s1.26-2.82,2.82-2.82h51.13c1.56,0,2.82,1.26,2.82,2.82&#xD;&#xA;					S619.3,1865.58,617.74,1865.58z" fill="#92468b"/>
    </g>
    <g>
      <path d="M854.73,1831.77h-85.22c-1.56,0-2.82-1.26-2.82-2.82s1.26-2.82,2.82-2.82h85.22c1.56,0,2.82,1.26,2.82,2.82&#xD;&#xA;					S856.29,1831.77,854.73,1831.77z" fill="#92468b"/>
      <path d="M854.73,1843.04h-85.22c-1.56,0-2.82-1.26-2.82-2.82c0-1.56,1.26-2.82,2.82-2.82h85.22&#xD;&#xA;					c1.56,0,2.82,1.26,2.82,2.82C857.55,1841.78,856.29,1843.04,854.73,1843.04z" fill="#92468b"/>
      <path d="M854.73,1854.31h-85.22c-1.56,0-2.82-1.26-2.82-2.82s1.26-2.82,2.82-2.82h85.22c1.56,0,2.82,1.26,2.82,2.82&#xD;&#xA;					S856.29,1854.31,854.73,1854.31z" fill="#92468b"/>
      <path d="M820.64,1865.58h-51.13c-1.56,0-2.82-1.26-2.82-2.82s1.26-2.82,2.82-2.82h51.13c1.56,0,2.82,1.26,2.82,2.82&#xD;&#xA;					S822.2,1865.58,820.64,1865.58z" fill="#92468b"/>
    </g>
    <g>
      <path d="M523.88,1546.11c0-11.91,9.69-21.6,21.6-21.6c11.91,0,21.6,9.69,21.6,21.6c0,11.91-9.69,21.6-21.6,21.6&#xD;&#xA;				C533.57,1567.7,523.88,1558.01,523.88,1546.11z M528.59,1546.11c0,9.31,7.57,16.88,16.88,16.88c9.31,0,16.88-7.57,16.88-16.88&#xD;&#xA;				c0-9.31-7.57-16.89-16.88-16.89C536.17,1529.22,528.59,1536.8,528.59,1546.11z" fill="#775fa9"/>
      <circle cx="594.59" cy="1546.11" fill="#f17243" r="9.62"/>
      <circle cx="623.87" cy="1546.11" fill="#4287c7" r="9.62"/>
      <circle cx="651.55" cy="1546.11" fill="#4287c7" r="9.62"/>
    </g>
    <g>
      <path d="M489.92,1702.78c42.87-70.84,25.46-159.83-38.88-198.77c-64.34-38.94-151.26-13.08-194.13,57.75&#xD;&#xA;				c-42.87,70.84-134.24,274.23-40.96,330.69C308.44,1948.42,447.05,1773.62,489.92,1702.78z" fill="#775fa9"/>
      <path d="M257.09,1703.07c-20.17-4.35-38.76-13.94-53.92-27.74c1.36-3.7,2.76-7.38,4.17-11.03&#xD;&#xA;				c0.21,0.12,0.42,0.26,0.64,0.38l0.65,0.36l0.54,0.51c13.98,13.25,31.37,22.42,50.3,26.5c56.9,12.29,113.19-24.01,125.48-80.91&#xD;&#xA;				c9.45-43.78-9.78-88.8-47.88-112.23c-1.76-0.63-3.63-1.32-5.57-2.04c4.93-2.05,9.93-3.82,15-5.3&#xD;&#xA;				c39.82,26.49,59.64,74.87,49.47,121.95C382.36,1676.49,320.06,1716.67,257.09,1703.07z" fill="#f2c225"/>
    </g>
    <path d="M320.79,1883.55c-0.63,0-1.28-0.11-1.91-0.33c-2.93-1.05-4.45-4.28-3.39-7.21l24.35-67.63&#xD;&#xA;			c1.05-2.93,4.28-4.45,7.21-3.39c2.93,1.05,4.45,4.28,3.39,7.21l-24.35,67.63C325.27,1882.12,323.1,1883.55,320.79,1883.55z" fill="#2e0f3e"/>
    <path d="M255.59,1901.95c-0.89,0-1.79-0.21-2.64-0.66c-2.75-1.46-3.8-4.87-2.34-7.62l23.54-44.37&#xD;&#xA;			c1.46-2.75,4.87-3.8,7.62-2.34c2.75,1.46,3.8,4.87,2.34,7.62l-23.54,44.37C259.56,1900.86,257.61,1901.95,255.59,1901.95z" fill="#2e0f3e"/>
    <path d="M208.51,1886.26c-0.89,0-1.79-0.21-2.64-0.66c-2.75-1.46-3.8-4.87-2.34-7.62l23.54-44.37&#xD;&#xA;			c1.46-2.75,4.87-3.8,7.62-2.34c2.75,1.46,3.8,4.87,2.34,7.62l-23.54,44.37C212.49,1885.17,210.53,1886.26,208.51,1886.26z" fill="#2e0f3e"/>
    <path d="M182.54,1840.81c-0.89,0-1.79-0.21-2.64-0.66c-2.75-1.46-3.8-4.87-2.34-7.62l23.54-44.37&#xD;&#xA;			c1.46-2.75,4.87-3.8,7.62-2.34c2.75,1.46,3.8,4.87,2.34,7.62l-23.54,44.37C186.51,1839.72,184.56,1840.81,182.54,1840.81z" fill="#2e0f3e"/>
    <path d="M671.47,1243.23c-3.17,0-5.75-2.57-5.75-5.75v-7.76c0-3.89-3.16-7.05-7.05-7.05s-7.05,3.16-7.05,7.05v7.76&#xD;&#xA;			c0,3.17-2.57,5.75-5.75,5.75c-3.17,0-5.75-2.57-5.75-5.75v-7.76c0-10.23,8.32-18.54,18.54-18.54s18.54,8.32,18.54,18.54v7.76&#xD;&#xA;			C677.22,1240.65,674.64,1243.23,671.47,1243.23z" fill="#f0efef"/>
    <path d="M758.55,1243.23c-3.17,0-5.75-2.57-5.75-5.75v-7.76c0-3.89-3.16-7.05-7.05-7.05s-7.05,3.16-7.05,7.05v7.76&#xD;&#xA;			c0,3.17-2.57,5.75-5.75,5.75c-3.17,0-5.75-2.57-5.75-5.75v-7.76c0-10.23,8.32-18.54,18.54-18.54s18.54,8.32,18.54,18.54v7.76&#xD;&#xA;			C764.29,1240.65,761.72,1243.23,758.55,1243.23z" fill="#f0efef"/>
  </g>
  <g>
    <rect fill="#fcbf7f" height="116.18" transform="rotate(-34.855 1880.265 1492.219)" width="89.28" x="1835.74" y="1434.16"/>
    <path d="M1827.52,1489.53c0,0-43.83-41.72-40.32-53.73c3.5-12.01,18.11-2.4,18.11-2.4s-24.72-23.66-14.79-33.55&#xD;&#xA;				s18.5,1.95,18.5,1.95s-15.44-13.65-4.84-23.99c10.6-10.35,23.38,9.43,23.38,9.43s-8.98-10.12-1.02-17.09&#xD;&#xA;				c17.91-15.69,65.98,62.22,65.98,62.22L1827.52,1489.53z" fill="#fcbf7f"/>
    <path d="M1882.26,1427.95c0,0,1.26-25.76,19-33.51c24.03-10.49,6.55,70.19,6.55,70.19L1882.26,1427.95z" fill="#fcbf7f"/>
    <line fill="#fff" x1="1848.68" x2="1828.39" y1="1414.38" y2="1390.42"/>
    <path d="M1848.68,1416.07c-0.48,0-0.96-0.2-1.29-0.6l-20.29-23.96c-0.6-0.71-0.52-1.78,0.2-2.38&#xD;&#xA;					c0.72-0.6,1.78-0.51,2.38,0.2l20.29,23.96c0.6,0.71,0.52,1.78-0.2,2.38C1849.46,1415.94,1849.07,1416.07,1848.68,1416.07z" fill="#2e0f3e"/>
    <line fill="#fff" x1="1831.98" x2="1811.69" y1="1426.36" y2="1402.4"/>
    <path d="M1831.98,1428.05c-0.48,0-0.96-0.2-1.29-0.6l-20.29-23.96c-0.6-0.71-0.52-1.78,0.2-2.38&#xD;&#xA;					c0.71-0.6,1.78-0.52,2.38,0.2l20.29,23.96c0.6,0.71,0.52,1.78-0.2,2.38C1832.75,1427.92,1832.36,1428.05,1831.98,1428.05z" fill="#2e0f3e"/>
    <line fill="#fff" x1="1819.97" x2="1807.53" y1="1451.21" y2="1435.12"/>
    <path d="M1819.97,1452.9c-0.51,0-1.01-0.23-1.34-0.66l-12.44-16.09c-0.57-0.74-0.44-1.8,0.3-2.37&#xD;&#xA;					c0.74-0.57,1.8-0.43,2.37,0.3l12.44,16.09c0.57,0.74,0.44,1.8-0.3,2.37C1820.7,1452.79,1820.33,1452.9,1819.97,1452.9z" fill="#2e0f3e"/>
    <path d="M1873.87,1475.36c-0.47,0-0.94-0.19-1.27-0.57c-18.74-21.3,2.36-40.73,2.57-40.92&#xD;&#xA;				c0.69-0.62,1.76-0.57,2.39,0.12c0.62,0.69,0.57,1.76-0.12,2.39c-0.78,0.7-18.81,17.41-2.3,36.18c0.62,0.7,0.55,1.77-0.15,2.39&#xD;&#xA;				C1874.66,1475.22,1874.27,1475.36,1873.87,1475.36z" fill="#2e0f3e"/>
    <path d="M2103.56,1720.46c-64.31,0-130.84-33.78-197.84-100.46c-46.92-46.7-77.64-93.7-78.93-95.68l94.53-61.4&#xD;&#xA;			c0.22,0.33,26.44,40.2,65.25,78.52c44.19,43.62,86.44,67.13,118.89,66.28c32.71-0.88,81.92-33.18,135.01-88.61&#xD;&#xA;			c24.51-25.59,45.42-51.42,59.75-70.19c11.91-15.6,33.9-19.2,50.17-8.24l63.87,43.03c-1.54,2.29-38.38,56.75-91.18,112.12&#xD;&#xA;			c-77.15,80.9-149.34,122.81-214.57,124.57C2106.86,1720.44,2105.21,1720.46,2103.56,1720.46z" fill="#2e0f3e"/>
    <path d="M2693.77,1963.89h-438.26v-412.53c0-86.06,69.77-155.83,155.83-155.83h126.61&#xD;&#xA;			c86.06,0,155.83,69.77,155.83,155.83L2668,1806.92L2693.77,1963.89z" fill="#d0ecee"/>
    <path d="M2446.15,1436.95L2446.15,1436.95c-30.76,5.07-59.81-15.75-64.88-46.51l-17.82-80.08&#xD;&#xA;			c-5.07-30.76,15.75-59.8,46.51-64.88h0c30.76-5.07,59.8,15.75,64.88,46.51l17.82,80.08&#xD;&#xA;			C2497.73,1402.83,2476.91,1431.88,2446.15,1436.95z" fill="#fcbf7f"/>
    <path d="M2509.71,1430.68l-107.79,28.52c-5.77,1.53-11.68-1.91-13.2-7.68l-15.73-59.45&#xD;&#xA;			c-1.53-5.77,1.91-11.68,7.68-13.2l107.79-28.52c5.77-1.53,11.68,1.91,13.2,7.68l15.73,59.45&#xD;&#xA;			C2518.92,1423.25,2515.48,1429.16,2509.71,1430.68z" fill="#d0ecee"/>
    <path d="M2693.77,1551.36c0-86.06-69.76-161.2-155.82-161.2l-30.84-1.62c-15.64,19.7-35.81,64.79-52.51,134.29&#xD;&#xA;					c-19.15,79.71-12.71,346.22-6.33,467.67c0.88,16.68,14.66,29.75,31.36,29.75h182.73c17.34,0,31.4-14.06,31.4-31.4L2678.96,1785&#xD;&#xA;					L2693.77,1551.36z" fill="#2e0f3e"/>
    <path d="M2394.29,1558.16c-1.53-60.49-12.93-125.7-20.29-162.62c-68.63,16.3-118.49,82.21-118.49,155.83v448.75&#xD;&#xA;			c0,11.12,9.02,20.14,20.14,20.14h99.07c11.09,0,20.09-8.95,20.14-20.04C2395.38,1884.39,2395.89,1621.49,2394.29,1558.16z" fill="#2e0f3e"/>
    <circle cx="2524.76" cy="1273.7" fill="#2e0f3e" r="62.09"/>
    <circle cx="2494.32" cy="1245.97" fill="#f19078" r="47.34"/>
    <path d="M2407.98,1361.48l-20.66-2.84c-44.84-6.17-76.19-47.53-70.02-92.38l10.51-76.37&#xD;&#xA;				c6.17-44.84,47.53-76.19,92.38-70.02l20.66,2.84c44.84,6.17,76.19,47.53,70.02,92.38l-10.51,76.37&#xD;&#xA;				C2494.18,1336.31,2452.82,1367.66,2407.98,1361.48z" fill="#fcbf7f"/>
    <path d="M2352.63,1284.92c-4.84-0.54-8.47-2.82-10.17-6.48c-1.77-3.81-0.99-8.55,1.93-11.79&#xD;&#xA;				c3.22-3.58,8.3-4.64,13.58-2.84c2,0.68,3.06,0.18,3.75-0.34c4.53-3.36,5.76-17.32,5.47-25.33c-0.05-1.55,1.16-2.86,2.71-2.92&#xD;&#xA;				c1.56-0.06,2.86,1.16,2.92,2.71c0.09,2.42,0.62,23.84-7.74,30.06c-1.77,1.31-4.75,2.58-8.94,1.15c-3.17-1.08-5.85-0.63-7.57,1.28&#xD;&#xA;				c-1.43,1.59-1.83,3.86-1,5.65c1.05,2.26,3.84,3.45,7.86,3.32c1.56-0.04,2.85,1.18,2.9,2.73c0.05,1.56-1.18,2.85-2.73,2.9&#xD;&#xA;				C2354.57,1285.06,2353.58,1285.02,2352.63,1284.92z" fill="#2e0f3e"/>
    <circle cx="2344.87" cy="1229.93" fill="#2e0f3e" r="4.28"/>
    <circle cx="2398.16" cy="1235.83" fill="#2e0f3e" r="4.28"/>
    <path d="M2360.08,1215.87c-0.55-0.06-1.09-0.28-1.54-0.67c-11.04-9.61-21.42-2.88-21.85-2.59&#xD;&#xA;				c-1.29,0.86-3.04,0.52-3.91-0.77c-0.87-1.29-0.54-3.03,0.74-3.9c4.9-3.34,17.2-7.01,28.71,3c1.17,1.02,1.3,2.8,0.28,3.98&#xD;&#xA;				C2361.89,1215.65,2360.97,1215.97,2360.08,1215.87z" fill="#2e0f3e"/>
    <path d="M2416.77,1222.15c-0.55-0.06-1.09-0.28-1.54-0.67c-11.04-9.6-21.41-2.88-21.85-2.59&#xD;&#xA;				c-1.29,0.86-3.04,0.52-3.91-0.77c-0.87-1.29-0.54-3.03,0.74-3.9c4.9-3.34,17.21-7.01,28.71,3c1.17,1.02,1.3,2.8,0.28,3.98&#xD;&#xA;				C2418.58,1221.93,2417.66,1222.25,2416.77,1222.15z" fill="#2e0f3e"/>
    <circle cx="2410.04" cy="1282.49" fill="#f19078" r="22.9"/>
    <path d="M2336.39,1281.15c5.05-11.6-0.26-25.09-11.86-30.14c-1.62-0.7-3.27-1.19-4.94-1.5l-0.88,6.42&#xD;&#xA;				c-1.82,13.2-0.73,26.12,2.74,38.15C2327.9,1292.31,2333.52,1287.75,2336.39,1281.15z" fill="#f19078"/>
    <path d="M2371.54,1304.05c-5.18-0.57-8.64-2.11-8.73-2.15c-1.41-0.65-2.04-2.32-1.39-3.74&#xD;&#xA;				c0.65-1.41,2.31-2.04,3.73-1.39c0.72,0.32,17.31,7.53,30.89-8.02c1.02-1.17,2.8-1.29,3.98-0.27c1.17,1.02,1.29,2.8,0.27,3.98&#xD;&#xA;				C2390.52,1303.65,2379.17,1304.9,2371.54,1304.05z" fill="#2e0f3e"/>
    <circle cx="2499.94" cy="1250.86" fill="#fcbf7f" r="28.36"/>
    <path d="M2505.99,1262.53c-1.37-0.15-2.46-1.29-2.5-2.71c-0.02-0.69-0.24-1.16-0.72-1.56&#xD;&#xA;					c-1.71-1.41-5.77-1.52-8.51-1.31c-0.6,0.1-1.22,0.17-1.87,0.21c-1.51,0.1-2.82-1-2.99-2.49s0.86-2.86,2.35-3.1&#xD;&#xA;					c0.23-0.04,0.88-0.13,1.79-0.22c10.09-1.82,10.32-14.19,10.33-14.75c0.02-1.56,1.29-2.81,2.84-2.79&#xD;&#xA;					c1.56,0.01,2.81,1.29,2.79,2.85c-0.04,4.26-1.54,11.03-6.07,15.62c1.07,0.39,2.06,0.92,2.91,1.62c1.74,1.43,2.7,3.41,2.77,5.73&#xD;&#xA;					c0.05,1.56-1.17,2.86-2.73,2.91C2506.26,1262.55,2506.13,1262.54,2505.99,1262.53z" fill="#2e0f3e"/>
    <path d="M2397.81,1363.43c-15.03-1.67-24.09-7.63-24.25-7.74c-0.77-0.52-0.98-1.58-0.45-2.35s1.57-0.97,2.35-0.45&#xD;&#xA;				l0,0c0.28,0.19,27.82,18.19,66.76-1.9c0.83-0.43,1.85-0.1,2.28,0.73c0.43,0.83,0.1,1.85-0.73,2.28&#xD;&#xA;				C2425.64,1363.34,2409.82,1364.76,2397.81,1363.43z" fill="#2e0f3e"/>
    <path d="M2527.6,1179.15c-15.42-42.2-51.13-56-51.13-56s-132.83-52.75-153.93,61.41c0,0,35.35,14.28,94.45,22.06&#xD;&#xA;				l9.98-13.4l3.46,15.01c8.86,0.95,18.18,1.74,27.92,2.31l14.88-20.83c0,0-17.04,64.12-1.62,91.71c0,0,8.66-44.1,21.64-54.65&#xD;&#xA;				s30.84,2.71,33.55,18.13C2526.78,1244.89,2543.02,1221.35,2527.6,1179.15z" fill="#2e0f3e"/>
    <path d="M2255.5,1614.11c-1.44,0-2.67-1.1-2.8-2.56c-8.48-90.73,22.92-142.39,24.26-144.55&#xD;&#xA;			c0.82-1.32,2.56-1.72,3.88-0.9c1.32,0.82,1.73,2.56,0.91,3.88c-0.32,0.51-31.72,52.35-23.43,141.05c0.14,1.55-0.99,2.92-2.54,3.07&#xD;&#xA;			C2255.68,1614.11,2255.59,1614.11,2255.5,1614.11z" fill="#774894"/>
    <path d="M2384.45,1701.96c-1.28,0-2.44-0.88-2.74-2.18l-40.04-172.66c-0.12-0.51-0.09-1.03,0.07-1.53l16.02-48.17&#xD;&#xA;			l-27.54-6.17c-0.86-0.19-1.57-0.77-1.94-1.57c-0.37-0.8-0.34-1.72,0.06-2.49l25.22-47.93c0.73-1.38,2.43-1.91,3.81-1.18&#xD;&#xA;			c1.38,0.72,1.91,2.43,1.18,3.81l-23.51,44.67l26.98,6.05c0.78,0.17,1.44,0.67,1.84,1.36c0.39,0.69,0.47,1.52,0.22,2.28&#xD;&#xA;			l-16.75,50.38l39.86,171.89c0.35,1.52-0.59,3.03-2.11,3.38C2384.88,1701.94,2384.67,1701.96,2384.45,1701.96z" fill="#774894"/>
    <path d="M2457.3,1678.73c-0.3,0-0.6-0.05-0.9-0.15c-1.48-0.5-2.27-2.1-1.77-3.57l52.52-155.68l-22.44-49.67&#xD;&#xA;			c-0.32-0.72-0.33-1.54-0.02-2.26c0.31-0.72,0.91-1.29,1.65-1.55l42.93-15.25l-18.88-42.26c-0.64-1.42,0-3.09,1.42-3.72&#xD;&#xA;			c1.42-0.63,3.09,0,3.72,1.42l20.12,45.04c0.32,0.72,0.33,1.54,0.02,2.26c-0.31,0.72-0.91,1.28-1.65,1.55l-42.91,15.25l21.64,47.89&#xD;&#xA;			c0.29,0.65,0.33,1.39,0.1,2.06l-52.88,156.73C2459.57,1677.99,2458.47,1678.73,2457.3,1678.73z" fill="#774894"/>
    <path d="M2541.59,1988.26c-1.56,0-2.82-1.26-2.82-2.82s1.26-2.82,2.82-2.82c42.98,0,50.12-29.63,50.75-32.75v-46.83&#xD;&#xA;			h-79.39c-1.56,0-2.82-1.26-2.82-2.82s1.26-2.82,2.82-2.82h82.21c1.56,0,2.82,1.26,2.82,2.82v49.91c0,0.16-0.01,0.32-0.04,0.48&#xD;&#xA;			C2597.87,1950.99,2590.88,1988.26,2541.59,1988.26z" fill="#774894"/>
    <path d="M2277.28,1988.26c-1.56,0-2.82-1.26-2.82-2.82s1.26-2.82,2.82-2.82c42.98,0,50.12-29.63,50.75-32.75v-46.83&#xD;&#xA;			h-48.68c-1.56,0-2.82-1.26-2.82-2.82s1.26-2.82,2.82-2.82h51.49c1.56,0,2.82,1.26,2.82,2.82v49.91c0,0.16-0.01,0.32-0.04,0.48&#xD;&#xA;			C2333.56,1950.99,2326.56,1988.26,2277.28,1988.26z" fill="#774894"/>
    <g>
      <path d="M2500.11,1878.95l-139.16-71.79c-8.98-4.63-12.5-15.67-7.87-24.64l113.18-219.39&#xD;&#xA;				c4.63-8.98,15.67-12.5,24.64-7.87l139.16,71.79c8.98,4.63,12.5,15.67,7.87,24.64l-113.18,219.39&#xD;&#xA;				C2520.13,1880.06,2509.09,1883.59,2500.11,1878.95z" fill="#f17243"/>
      <path d="M2598.68,1636.79c3.1,1.6,3.39,7.21,0.65,12.52l-15.89,30.81c-2.74,5.32-7.48,8.33-10.58,6.73&#xD;&#xA;				l-104.51-53.91c-3.1-1.6-3.39-7.21-0.65-12.52l15.89-30.81c2.74-5.32,7.48-8.33,10.58-6.73" fill="#fff"/>
    </g>
    <g>
      <rect fill="#fcbf7f" height="116.18" transform="rotate(-56.613 2452.081 1700.65)" width="89.28" x="2407.64" y="1642.62"/>
      <path d="M2430.19,1640.29c0,0-8.38-24.39,5.22-38.16c18.43-18.65,32.1,62.76,32.1,62.76L2430.19,1640.29z" fill="#fcbf7f"/>
      <path d="M2399.78,1717.92c0,0-26.74-11.9-29.61-20.53c-2.7-8.12,9.22-13.4,9.22-13.4s-6.65-5.02-0.92-14.24&#xD;&#xA;				c3.27-5.26,11.07-6.05,11.07-6.05s-5.02-7.98,0.97-14.05c5.99-6.07,13.41-5.35,13.41-5.35s-5.97-7.81,3.37-16.59&#xD;&#xA;				c9.34-8.79,37.22,5.67,37.22,5.67S2470.45,1712.61,2399.78,1717.92z" fill="#fcbf7f"/>
    </g>
    <path d="M2698.64,1876.8c-45.15,0-100.52-17.41-167.86-52.63c-58.08-30.38-104.37-63.41-106.31-64.8l65.65-91.64&#xD;&#xA;			c0.45,0.32,48.09,34.23,103.62,62.03c30.66,15.35,57.38,25.74,79.42,30.88c24.32,5.67,33.88,2.82,35.72,2.11&#xD;&#xA;			c0.12-0.2,0.29-0.51,0.49-0.94c8.03-17.32-2.4-63.97-58.27-138.43c-44.4-59.17-94.96-106.23-95.46-106.7l57.28-61.82&#xD;&#xA;			c10.73-11.58,28.93-11.86,40.04-0.65c21.38,21.58,56.03,58.5,88.31,101.52c30.94,41.24,53.52,79.92,67.1,114.98&#xD;&#xA;			c20.39,52.64,21.49,99.24,3.26,138.53c-14.9,32.12-40.95,53.88-75.33,62.93C2724.62,1875.26,2712.08,1876.8,2698.64,1876.8z" fill="#2e0f3e"/>
    <path d="M2693.77,1691.22c-1.02,0-2.01-0.56-2.51-1.53c-37.09-71.78-124.51-155.46-125.39-156.3&#xD;&#xA;			c-1.13-1.07-1.17-2.86-0.1-3.98c1.07-1.13,2.86-1.17,3.98-0.1c0.89,0.84,88.99,85.17,126.51,157.79c0.71,1.38,0.17,3.08-1.21,3.8&#xD;&#xA;			C2694.65,1691.11,2694.21,1691.22,2693.77,1691.22z" fill="#774894"/>
    <path d="M2678.41,1883.58c-55.79,0-126.49-41.86-129.75-43.81c-1.34-0.8-1.77-2.53-0.97-3.86&#xD;&#xA;			c0.8-1.33,2.52-1.77,3.86-0.97c0.86,0.51,86.64,51.3,141.75,41.82c1.54-0.26,2.99,0.77,3.26,2.3c0.26,1.53-0.77,2.99-2.3,3.26&#xD;&#xA;			C2689.16,1883.18,2683.85,1883.58,2678.41,1883.58z" fill="#774894"/>
    <path d="M2303.66,1746.37c0,0-46.94,2.06-74.43-50.32s86.95-174.31,86.95-174.31L2303.66,1746.37z" fill="#2e0f3e"/>
    <path d="M2303.64,1749.19c-0.83,0-14.2-0.11-30.65-7.05c-15.33-6.47-36.3-20.35-49.09-49.75&#xD;&#xA;			c-18.81-43.23,69.67-151.71,73.45-156.3c0.99-1.2,2.77-1.38,3.97-0.39c1.2,0.99,1.38,2.76,0.39,3.97&#xD;&#xA;			c-0.9,1.1-90.08,110.38-72.64,150.48c9.64,22.15,25.08,37.87,45.89,46.71c15.6,6.63,28.56,6.7,28.69,6.7c0,0,0,0,0,0&#xD;&#xA;			c1.55,0,2.82,1.26,2.82,2.81c0,1.56-1.25,2.82-2.81,2.82C2303.66,1749.19,2303.65,1749.19,2303.64,1749.19z" fill="#774894"/>
  </g>
</svg>