<?xml version="1.0" encoding="utf-8"?>
<svg xmlns="http://www.w3.org/2000/svg" viewBox="0 0 2000 2000">
  <path d="M1826.23,1898.1h-984.8c-28.05,0-49.99-24.17-47.28-52.09l74.15-764.85c2.36-24.35,22.82-42.92,47.28-42.92h973.68c27.78,0,49.63,23.73,47.34,51.41-21.01,254.95-42.02,509.9-63.02,764.85-2.03,24.64-22.62,43.6-47.34,43.6Z" fill="#fff"/>
  <path d="M1826.23,1902.1h-984.8c-30.38,0-54.19-26.23-51.26-56.48l74.15-764.84c2.57-26.53,24.61-46.54,51.26-46.54h973.68c30.09,0,53.8,25.75,51.33,55.73l-63.02,764.84c-2.19,26.51-24.73,47.28-51.34,47.28ZM915.58,1042.25c-22.51,0-41.13,16.9-43.3,39.31l-74.15,764.84c-2.47,25.55,17.63,47.7,43.3,47.7h984.8c22.47,0,41.52-17.54,43.36-39.93l63.02-764.84c2.09-25.38-17.89-47.08-43.36-47.08h-973.68Z" fill="#292c56"/>
  <rect fill="#fff" height="33.34" rx="12.11" ry="12.11" width="182" x="1702.37" y="1087.57"/>
  <path d="M1872.26,1124.92h-157.78c-8.88,0-16.11-7.23-16.11-16.11v-9.12c0-8.88,7.23-16.11,16.11-16.11h157.78c8.88,0,16.11,7.23,16.11,16.11v9.12c0,8.88-7.23,16.11-16.11,16.11ZM1714.48,1091.57c-4.47,0-8.11,3.64-8.11,8.11v9.12c0,4.47,3.64,8.11,8.11,8.11h157.78c4.47,0,8.11-3.64,8.11-8.11v-9.12c0-4.47-3.64-8.11-8.11-8.11h-157.78Z" fill="#292c56"/>
  <path d="M1116.92,423.17s26.61-69.2,75.33-73.54c48.71-4.34,97.2,150.98,163.22,73.47,66.01-77.5,112.79,12.69,113.37,133.48.58,120.78-20.57,160.62-79.15,174.18-58.58,13.56-131.75-63.15-146.93-133.43-15.18-70.27-48.78-211.98-94.79-141.15l-31.04-33.02Z" fill="#292c56"/>
  <rect fill="#fff" height="174.09" transform="rotate(172.64 1105.769 646.926)" width="93.14" x="1059.19" y="559.9"/>
  <path d="M1070.72,743.24c-1.98,0-3.7-1.47-3.96-3.49l-22.31-172.65c-.28-2.2,1.28-4.2,3.46-4.48l92.37-11.93c2.28-.26,4.2,1.32,4.48,3.46l22.3,172.65c.28,2.19-1.27,4.2-3.46,4.48l-92.88,11.96ZM1052.9,570.04l21.28,164.72,84.43-10.91-21.28-164.72-84.44,10.91Z" fill="#292c56"/>
  <path d="M1003.22,534.38c-.55-14.52,4.68-28.66,14.5-39.37,9.54-10.39,23.76-21.93,43.09-27.68,8.82-2.62,28.32-8.32,51.04-.56,1.16.4,23.39,8.28,36.65,26.88,5.12,7.18,8.56,15.57,10.42,24.69,8.34-1.47,16.39.72,21.3,6.68,12.49,15.15-3.3,41.64-25.62,43.94-7.64,22.46-18.42,37.2-32.17,48.38-14.91,12.13-41.23,29.57-69.5,29.74-39.66.24-47.3-48.85-49.72-112.71Z" fill="#fff"/>
  <path d="M1052.63,651.09c-45.2,0-51.17-57.57-53.41-116.56h0c-.59-15.65,4.93-30.64,15.55-42.22,12.95-14.11,28.05-23.8,44.89-28.8,8.8-2.62,29.4-8.73,53.48-.51.99.34,24.48,8.53,38.61,28.34,4.67,6.55,8.12,14.15,10.27,22.62,8.54-.5,16.36,2.55,21.28,8.52,13.74,16.66-1.01,45.58-25.73,50.09-8.04,22.3-18.94,36.74-32.61,47.87-20.35,16.55-46.11,30.64-72.34,30.64ZM1061.95,471.18c-15.44,4.59-29.32,13.52-41.28,26.55-9.19,10.01-13.96,22.98-13.45,36.51h0c2.55,67.2,11.05,108.86,45.43,108.86,23.95,0,48.71-13.75,67.27-28.84,8.65-7.04,15.69-15.27,20.93-24.44,11.12-19.49,8.4-24.31,13.35-24.82,19.28-1.98,33.29-24.86,22.94-37.41-3.77-4.57-10.33-6.56-17.52-5.28-2.12.35-4.18-1.02-4.61-3.14-1.8-8.82-5.09-16.61-9.76-23.17-12.65-17.74-34.46-25.34-34.68-25.41-16.47-5.62-31.94-4.36-48.61.61Z" fill="#292c56"/>
  <path d="M1120.6,618.35s-20.39,50.23-58.65,52.98l-3.36-26.02s39.19-2.23,62.01-26.96Z" fill="#292c56"/>
  <path d="M993.28,1332.75l-151.85,565.35h772.49c14.36-190.93-24.83-387.63-121.69-565.35h-498.95Z" fill="#292c56"/>
  <polygon fill="#60afbd" points="566.62 872.57 267.86 872.57 316.75 763.93 517.74 763.93 566.62 872.57"/>
  <rect fill="#60afbd" height="129.74" width="87.82" x="373.34" y="416"/>
  <rect fill="#60afbd" height="90.99" rx="40.03" ry="40.03" width="457.64" x="188.42" y="270.98"/>
  <rect fill="#60afbd" height="90.99" rx="40.03" ry="40.03" width="457.64" x="188.42" y="517.45"/>
  <rect fill="#fff" height="268.88" rx="65.04" ry="65.04" width="336.78" x="248.85" y="189.71"/>
  <path d="M520.6,462.59h-206.71c-38.07,0-69.04-30.97-69.04-69.04v-138.81c0-38.07,30.97-69.04,69.04-69.04h206.71c38.07,0,69.04,30.97,69.04,69.04v138.81c0,38.07-30.97,69.04-69.04,69.04ZM313.89,193.71c-33.66,0-61.04,27.38-61.04,61.04v138.81c0,33.66,27.38,61.04,61.04,61.04h206.71c33.66,0,61.04-27.38,61.04-61.04v-138.81c0-33.66-27.38-61.04-61.04-61.04h-206.71Z" fill="#292c56"/>
  <rect fill="#60afbd" height="160.9" rx="34.95" ry="34.95" width="254.62" x="289.93" y="226.18"/>
  <path d="M461.98,802.78h-88.92c-68.89,0-126.78-51.78-134.44-120.24l-15.84-141.67c-2.97-26.53,17.8-49.74,44.49-49.74h306.88c22.57,0,40.12,19.62,37.61,42.05l-16.86,150.72c-7.57,67.7-64.81,118.89-132.93,118.89Z" fill="#fff"/>
  <path d="M461.97,806.78h-88.91c-71.02,0-130.52-53.22-138.42-123.8l-15.84-141.67c-3.23-28.89,19.4-54.19,48.46-54.19h306.89c24.94,0,44.35,21.71,41.59,46.49l-16.86,150.72c-7.81,69.8-66.66,122.45-136.9,122.45ZM267.26,495.12c-24.3,0-43.22,21.15-40.51,45.3l15.84,141.67c7.44,66.52,63.53,116.69,130.46,116.69h88.91c66.16,0,121.6-49.58,128.95-115.34l16.86-150.72c2.24-20.04-13.47-37.6-33.63-37.6h-306.89Z" fill="#292c56"/>
  <path d="M650.78,581.15c-11.05,0-18.18-.78-19.21-.9-9.97-1.16-17.11-10.2-15.94-20.17,1.16-9.96,10.16-17.06,20.14-15.95,1.15.12,78.93,8.15,126.49-38.84,30.78-30.41,43.16-78.08,36.79-141.68-1-9.99,6.29-18.9,16.28-19.9,9.92-.91,18.9,6.29,19.9,16.28,7.53,75.22-8.5,132.89-47.64,171.39-44.39,43.67-105.91,49.77-136.8,49.77Z" fill="#fff"/>
  <path d="M650.78,585.15c-11,0-18.31-.77-19.66-.93-12.16-1.42-20.88-12.46-19.46-24.61,1.41-12.08,12.48-20.77,24.55-19.46,3.13.32,77.64,7.34,123.24-37.71,29.88-29.51,41.87-76.09,35.62-138.43-1.21-12.17,7.7-23.06,19.87-24.29,12.15-1.12,23.07,7.8,24.28,19.87,7.66,76.48-8.77,135.24-48.82,174.64-45.04,44.3-106.8,50.91-139.61,50.91ZM619.6,560.55c-.91,7.77,4.67,14.83,12.44,15.73,1.27.14,8.18.87,18.74.87,31.59,0,91-6.32,134-48.62,38.24-37.62,53.88-94.19,46.47-168.14-.77-7.72-7.73-13.45-15.56-12.7-7.75.78-13.45,7.74-12.67,15.52,6.5,64.87-6.27,113.63-37.95,144.93-48.26,47.66-126.4,40.3-129.7,39.97-7.88-.86-14.87,4.77-15.77,12.43Z" fill="#292c56"/>
  <path d="M807.33,371.03c-55.06,0-76.91-52.55-61.2-102.75,2.62-8.39,11.56-13.06,19.93-10.43,8.39,2.62,13.06,11.55,10.43,19.93-8.41,26.88-.36,49.28,11.47,56.7,7.43,4.67,18.19,4.95,21.69,4.65,8.09-.67,16.45-4,20.8-8.27,10.28-10.1,9.53-37.48-7.95-62.15-5.08-7.17-3.39-17.1,3.78-22.18,7.16-5.09,17.09-3.39,22.18,3.78,25.6,36.11,27.45,80.49,4.3,103.24-11.45,11.26-29.63,17.47-45.43,17.47Z" fill="#fff"/>
  <path d="M807.33,375.03c-57.9,0-81.51-55.22-65.01-107.95,3.27-10.5,14.45-16.34,24.95-13.05,10.47,3.27,16.35,14.41,13.05,24.94-7.53,24.06-.94,45.39,9.78,52.12,6.5,4.08,16.3,4.28,19.22,4.05,7.12-.59,14.66-3.53,18.33-7.13,8.92-8.77,7.66-34.32-8.41-56.98-6.35-8.96-4.23-21.41,4.73-27.76,8.94-6.35,21.39-4.23,27.76,4.72,26.72,37.7,28.37,84.3,3.84,108.41-12.17,11.96-31.38,18.62-48.24,18.62ZM761.29,261.12c-4.97,0-9.73,3.19-11.34,8.36-15.85,50.63,8.43,101.6,62.01,97.39,14.75-1.22,28.96-7.26,38-16.15,21.76-21.39,19.71-63.55-4.75-98.07-3.8-5.35-11.25-6.63-16.61-2.83-5.36,3.8-6.63,11.25-2.83,16.61,19.28,27.18,18.89,56.11,7.49,67.31-5.04,4.96-14.18,8.64-23.27,9.4-.14.02-14.02,1.11-24.15-5.25-13.1-8.22-22.17-32.49-13.16-61.29,2.4-7.68-3.34-15.47-11.39-15.47Z" fill="#292c56"/>
  <path d="M181.23,575.38c10.2,4.26,17.08,6.28,18.07,6.57,9.65,2.77,19.72-2.82,22.48-12.47,2.76-9.64-2.8-19.65-12.44-22.48-1.11-.34-75.97-22.88-101.77-84.57-16.69-39.92-9.75-88.68,20.63-144.91,4.77-8.84,1.48-19.87-7.36-24.64-8.8-4.66-19.87-1.48-24.64,7.36-35.93,66.51-43.35,125.9-22.06,176.52,24.15,57.4,78.57,86.73,107.07,98.63Z" fill="#fff"/>
  <path d="M198.19,585.79c-.76-.21-7.83-2.26-18.51-6.72-30.28-12.64-84.72-42.53-109.22-100.77-21.78-51.79-14.3-112.34,22.23-179.97,5.77-10.67,19.25-14.71,30.03-8.99,10.79,5.83,14.82,19.32,9.01,30.07-29.79,55.12-36.67,102.72-20.46,141.47,24.73,59.14,96.2,81.37,99.23,82.28,18.89,5.53,21.71,31.19,4.56,40.7-5.1,2.83-11.08,3.58-16.87,1.92ZM112.27,294.74c-5.07,0-9.99,2.68-12.54,7.4-35.32,65.39-42.69,123.61-21.89,173.06,23.39,55.61,75.78,84.32,104.93,96.49.4,0,9,3.96,17.62,6.41,3.66,1.05,7.48.61,10.79-1.23,10.97-6.08,9.17-22.48-2.96-26.03-3.22-.98-78.16-24.29-104.34-86.87-17.18-41.09-10.18-91,20.81-148.36,5.04-9.34-1.64-20.88-12.42-20.88Z" fill="#292c56"/>
  <path d="M117.71,321.17c50.81,21.21,91.21-18.86,96.06-71.24.82-8.75-5.63-16.51-14.37-17.3-8.75-.81-16.5,5.62-17.3,14.37-2.6,28.04-18.65,45.61-32.43,47.91-8.66,1.45-18.69-2.44-21.81-4.06-7.21-3.73-13.64-10.02-16.01-15.64-5.6-13.28,5.64-38.26,31.28-54.29,7.45-4.66,9.72-14.47,5.06-21.92-4.65-7.45-14.47-9.71-21.92-5.06-37.53,23.46-56.34,63.7-43.74,93.61,6.23,14.8,20.61,27.54,35.2,33.63Z" fill="#fff"/>
  <path d="M145.64,331.04c-29.48,0-57.03-18.69-66.81-41.95-13.35-31.69,6.12-74.06,45.3-98.55,4.52-2.82,9.84-3.71,15.04-2.52,17.33,3.98,20.98,26.97,6.07,36.28-23.56,14.73-34.57,37.82-29.71,49.34,2,4.75,7.82,10.36,14.16,13.64,2.6,1.35,11.73,4.93,19.3,3.67,12.49-2.08,26.79-19.23,29.11-44.33,1.61-17.48,23.75-24.6,35.14-10.89,3.4,4.09,5,9.27,4.51,14.56-3.91,42.24-31.98,80.74-72.11,80.74ZM119.26,317.48c48.16,20.14,85.93-18.19,90.52-67.92.61-6.55-4.2-12.35-10.75-12.95-6.65-.61-12.37,4.29-12.96,10.76-2.78,30.04-20.5,48.95-35.76,51.48-11.77,1.98-24.18-4.4-24.31-4.46-8.1-4.2-15.11-11.12-17.85-17.64-6.21-14.73,4.58-41.56,32.84-59.23,8.96-5.6,6.66-19.34-3.63-21.71-3.11-.72-6.3-.18-9,1.51-35.88,22.43-54.01,60.55-42.16,88.66,5.78,13.75,19.24,25.72,33.05,31.49h0Z" fill="#292c56"/>
  <path d="M711.17,1224.52c-58.26-74.31-116.53-148.63-174.79-222.94-46.33,21.78-92.67,43.56-139,65.34,17.3,55.89,164.45,518.59,363.75,537.61,10.17.97,37.77,3.61,67.9-9.51,136.38-59.39,113.87-348.77,112.11-368.89-74.34-13.44-148.67-26.88-223.01-40.32-2.32,12.9-4.64,25.8-6.96,38.7Z" fill="#fff"/>
  <path d="M760.78,1608.52c-85.11-8.12-170.34-94.64-253.34-257.14-61.72-120.84-102.77-247.37-113.88-283.27-.59-1.91.31-3.96,2.12-4.8l139-65.34c1.68-.79,3.7-.32,4.85,1.15l169.29,215.91,5.38-29.92c.4-2.21,2.53-3.63,4.65-3.23l223.01,40.32c1.78.32,3.12,1.79,3.27,3.59,1.11,12.7,25.69,311.86-114.49,372.91-23.24,10.12-45.94,12.09-69.84,9.82ZM402.24,1069.05c51.06,163.39,188.87,515.23,359.27,531.5,10.08.96,36.77,3.51,65.92-9.2,129.27-56.29,112.57-328.05,109.96-361.83l-216.04-39.06-6.25,34.76c-.6,3.37-4.94,4.49-7.09,1.76l-172.83-220.43-132.96,62.5Z" fill="#292c56"/>
  <path d="M1768.76,664.8c40.3-163.12-23.51-128.29-132.4-.97,8.15,106.02,16.3,212.04,24.44,318.06-10.34-29.25-21.22-56.15-32.21-80.81l-171.52,148.65c58.95,141.73,156.34,232.86,254.7,230.5,5.55-.13,48.16-1.68,81.6-25.38,99.33-70.41,80.39-309.81-24.61-590.05Z" fill="#fff"/>
  <path d="M1708.02,1284.28c-97.41,0-194.68-88.84-254.64-233.02-.66-1.59-.23-3.43,1.07-4.56l171.52-148.65c2.01-1.74,5.17-1.08,6.27,1.39,7.87,17.66,15.36,35.76,22.36,54.05l-22.23-289.37c-.08-1.05.26-2.1.95-2.91,96.04-112.29,125.17-115.35,138.73-107.89,16.93,9.33,17.22,44.68.89,111.22,111.2,297.3,119.93,524.67,22.74,593.55-24.32,17.24-58.59,26.08-87.66,26.17ZM1461.87,1050.85c58.77,139.55,152.62,225.42,246.13,225.43,26.57,0,59.67-8.12,83.05-24.7,46.55-33,68.21-106.61,62.64-212.86-5.43-103.35-36.09-232.16-88.68-372.52-.28-.75-.33-1.58-.14-2.36,19.93-80.66,10.63-99.46,3.31-103.5-9.64-5.3-39.01,1.34-127.72,104.83l24.32,316.41c.35,4.64-6.2,6.02-7.76,1.64-9.04-25.57-19.09-50.97-29.91-75.58l-165.25,143.21Z" fill="#292c56"/>
  <path d="M1641.11,890.22c-110.38-214.23-201.23-262.52-266.51-262.77-55.91-.21-103.29,34.78-290.68,78.46-18.98,4.42-69.64,15.54-69.64,15.14,0,0-219.21,24.55-250.44,137.94-31.23,113.39-59.75,325.92-59.75,325.92l238.91,41.55c14.99,32.88,31.66,68.2,50.28,106.29h498.95c2.17-129.83.41-243.87-.5-313.07,49.79-43.15,99.58-86.31,149.37-129.46Z" fill="#60afbd"/>
  <path d="M450.44,724.08h-65.98c-51.12,0-94.08-38.42-99.77-89.23l-11.76-105.13c-2.2-19.69,13.21-36.91,33.02-36.91h227.73c16.75,0,29.77,14.56,27.91,31.2l-12.51,111.85c-5.62,50.24-48.09,88.22-98.64,88.22Z" fill="#60afbd"/>
  <circle cx="416.65" cy="537.6" fill="#292c56" r="15.84"/>
  <circle cx="416.65" cy="618.17" fill="#292c56" r="15.84"/>
  <polygon fill="#292c56" points="1786.23 810.36 1748.35 826.37 1454.32 107.97 1475.78 98.9 1786.23 810.36"/>
  <path d="M1639.92,709.83l-4.05-43.59s-26.83-34.61-33.66-77.13c-6.83-42.53-38.01-46.68-30.45-64.97,7.56-18.29,40.3-10.59,73.71,54.47,0,0,52.4,38.18,32.4,94.47l-37.96,36.75Z" fill="#fff"/>
  <path d="M1639.91,713.83c-2.04,0-3.79-1.55-3.98-3.63l-3.95-42.45c-4.45-5.99-27.36-38.36-33.72-78-6.7-41.69-39.19-45.37-30.2-67.13,2.78-6.73,8.48-10.75,15.64-11.05,19.36-.84,43.61,23.26,64.91,64.43,6.66,5.27,52.39,43.92,33.02,98.43-.74,2.08-3.03,3.16-5.11,2.43-2.08-.74-3.17-3.03-2.43-5.11,18.74-52.75-28.95-88.41-30.99-89.9-.5-.37-.91-.85-1.2-1.4-23.5-45.75-46.02-61.49-57.87-60.89-4.09.17-6.98,2.23-8.59,6.11-5.85,14.16,23.94,20.64,30.7,62.81,6.57,40.96,32.6,74.98,32.87,75.32,1.09,1.41.65.21,4.87,45.66.22,2.33-1.61,4.37-3.99,4.37Z" fill="#292c56"/>
  <path d="M1663.27,485.15s-55.61,53.27-40.34,66.73c15.27,13.45,51.79-25.34,51.79-25.34,0,0-39.53,50.17-20.93,59.36s49.58-32.72,49.58-32.72c0,0-44.41,58.58-24.64,71.56,19.78,12.97,54.18-40.06,54.18-40.06,0,0-49.25,50.63-33.18,67.23,16.07,16.6,84.06-63.45,87.16-84.39,3.1-20.94-19.45-20.09-19.45-20.09,0,0-13.66-54.51-38.87-24.38,0,0-4.32-47.82-31.01-31.04,0,0-5.13-39.41-34.31-6.86Z" fill="#fff"/>
  <path d="M1696.87,654.69c-5.62-5.81-5.77-14.76-.47-26.71-6.61,3.25-13.64,4.18-19.86.11-13.32-8.75-4.4-30.67,2.98-44.88-9.09,6.51-19.04,10.48-27.5,6.29-13.73-6.78-4.85-27.04,2.72-40.42-11.78,8.06-25.45,13.74-34.46,5.81-2.54-2.24-3.93-5.39-4-9.11-.42-20,39.05-58.55,44.12-63.41,10.32-11.48,19.12-15.9,26.88-13.48,7.86,2.43,11.53,11.23,13.14,17.15,17.51-7.12,27.27,9.82,30.96,28.62,18.21-14.42,32.48,6.2,39.16,28.9,13.91,1.33,22.47,10,20.32,24.54-3.23,21.8-73.5,107.8-93.99,86.59ZM1712.4,616.06c-9.51,14.12-15.18,27.5-9.79,33.07,1.2,1.24,3.4,1.36,6.55.35,23.83-7.66,71.38-66.34,73.78-82.55.7-4.7-.08-8.34-2.3-10.84-3.05-3.43-8.59-4.66-13.18-4.66-1.83,0-3.44-1.24-3.89-3.03-1.8-7.15-9.09-28.06-18.66-30.25-3.91-.88-8.37,1.62-13.26,7.46-2.27,2.73-6.72,1.33-7.05-2.2-.63-6.93-4.18-25.84-12.84-30.12-3.29-1.63-7.23-.93-12.05,2.11-2.45,1.54-5.71.03-6.09-2.86-.48-3.61-3.11-14.28-8.71-16.01-4.3-1.3-10.93,2.68-18.65,11.3-.71.78-42.32,41.1-41.98,57.79.04,1.92.71,2.76,1.3,3.27,9.32,8.22,35.18-13.35,46.24-25.08,1.47-1.55,3.9-1.68,5.52-.29,1.62,1.4,1.86,3.82.53,5.51-10.85,13.78-27.19,39.54-24.82,50,.36,1.6,1.14,2.61,2.53,3.3,12.52,6.18,36.18-20.36,44.62-31.55,1.32-1.75,3.82-2.11,5.59-.79,1.76,1.32,2.12,3.81.82,5.58-9.57,12.77-38.93,57.12-25.66,65.84,7.45,4.89,18.91-4.4,25.33-10.51,7.05-10.19,16.49-21.47,23.79-28.99,1.43-1.48,3.75-1.62,5.36-.34,1.61,1.28,1.98,3.57.86,5.3-.66,1.02-11.02,16.84-23.87,29.2ZM1663.27,485.15h.04-.04Z" fill="#292c56"/>
  <path d="M1062.69,677.01l4.24,32.8-45.25,9.74,102.72,193.76,61.29-233.77c-10.02,2.1-20.04,4.2-30.05,6.31-1.26-15.23-2.52-30.45-3.79-45.68l-89.15,36.84Z" fill="#fff"/>
  <path d="M1120.85,915.18l-102.72-193.76c-1.25-2.36.12-5.24,2.69-5.79l41.66-8.97-3.77-29.15c-.28-2.19,1.27-4.2,3.46-4.48,2.18-.25,4.2,1.27,4.48,3.46l4.24,32.8c.27,2.06-1.09,3.98-3.12,4.42l-40.09,8.63,95.44,180.03,57.05-217.59-23.72,4.98c-2.26.51-4.6-1.13-4.8-3.58l-3.79-45.68c-.18-2.2,1.45-4.14,3.65-4.32,2.23-.24,4.14,1.45,4.32,3.65l3.42,41.16,25.62-5.38c2.89-.61,5.45,2.05,4.69,4.93l-61.29,233.77c-.92,3.52-5.7,4.07-7.41.86Z" fill="#292c56"/>
  <polygon fill="#fff" points="1021.67 719.55 985.85 725.47 1037.71 1043.68 1124.39 913.31 1021.67 719.55"/>
  <path d="M1033.76,1044.32l-51.85-318.21c-.35-2.18,1.12-4.23,3.3-4.59l35.82-5.92c1.7-.3,3.38.56,4.19,2.07l102.72,193.76c.69,1.3.61,2.87-.2,4.09l-86.68,130.37c-2.02,3.03-6.7,2-7.28-1.57ZM990.44,728.77l49.57,304.21,79.73-119.9-100.26-189.12-29.04,4.8Z" fill="#292c56"/>
  <polygon fill="#fff" points="1213.34 671.33 1185.68 679.54 1124.39 913.31 1234.16 1002.03 1213.34 671.33"/>
  <path d="M1231.65,1005.14l-109.77-88.72c-1.22-.99-1.75-2.6-1.36-4.12l61.29-233.77c.36-1.35,1.39-2.42,2.73-2.82l27.66-8.21c2.45-.72,4.96,1.01,5.13,3.59l20.82,330.7c.22,3.51-3.85,5.52-6.51,3.36ZM1128.91,911.82l100.69,81.38-19.93-316.61-20.69,6.14-60.06,229.09Z" fill="#292c56"/>
  <path d="M1158.93,518.35s-22.54,19.92-47.21,7.47c-24.67-12.45-62.92-44.36-62.92-44.36,0,0-22.41,25.12,0,54.32l-67.9,19.19s-23.31-71.25-13.35-105.65c9.96-34.4,66.09-21.28,66.09-21.28,0,0,79.22-38.93,129.46-24.44,50.25,14.49,22.59,136.7,22.59,136.7,0,0-9.65-27.17-26.75-21.96Z" fill="#292c56"/>
  <path d="M556.99,1027.87s-25.37-50.06-52.53-68.39c-27.16-18.33-114.07-5.77-148.02,0-33.95,5.77-131.77-42.44-133.95-24.44-2.19,17.99,57.9,93.36,81.67,110.68,23.76,17.31,85.55,3.39,85.55,3.39l19.49,54.39,147.79-75.63Z" fill="#fff"/>
  <path d="M409.21,1107.5c-1.64,0-3.18-1.02-3.77-2.65l-18.32-51.11c-13.71,2.71-63.46,11.13-85.32-4.79-23.28-16.96-85.82-93.59-83.29-114.39,3.16-25.98,101.9,27.06,137.25,20.98,44.75-7.6,123.87-17.63,150.93.63,27.7,18.7,52.8,67.82,53.85,69.9,1,1.97.21,4.38-1.76,5.38-1.98,1.01-4.38.21-5.38-1.76-.25-.49-25.22-49.35-51.2-66.88-17.81-12.02-72.06-11.79-145.11.63-17.39,2.93-48.17-6.71-77.95-16.05-19.45-6.1-48.82-15.31-52.79-11.76-1.5,12.89,50.75,85.45,80.14,106.87,22.02,16.05,81.71,2.86,82.32,2.73,1.96-.45,3.96.66,4.64,2.55l19.49,54.39c.94,2.61-1.01,5.35-3.77,5.35Z" fill="#292c56"/>
  <path d="M793.92,1431.99c-1.91,0-3.59-1.37-3.94-3.31-18.44-105.18-81.5-201-82.14-201.95-1.22-1.84-.72-4.32,1.12-5.55,1.84-1.23,4.32-.73,5.55,1.12.64.97,64.62,98.12,83.36,205,.42,2.43-1.43,4.69-3.95,4.69Z" fill="#292c56"/>
  <path d="M1670.98,1173.97c-1.82,0-3.46-1.25-3.89-3.09-17.59-75.75-10.36-188.13-10.28-189.25.15-2.2,2.06-3.78,4.26-3.73,2.2.15,3.87,2.05,3.73,4.26-.07,1.11-7.23,112.33,10.09,186.91.58,2.5-1.31,4.91-3.9,4.91Z" fill="#292c56"/>
  <path d="M943.01,1230.46c-1.3,0-2.58-.63-3.34-1.8-1.07-1.63-107.2-164.71-102.23-311.14.07-2.21,1.89-4.07,4.13-3.86,2.21.07,3.94,1.93,3.86,4.13-4.88,143.86,99.86,304.86,100.91,306.47,1.76,2.68-.2,6.2-3.34,6.2Z" fill="#292c56"/>
  <path d="M1491.73,1023.68c-1.84,0-3.5-1.28-3.9-3.15-.42-1.91-42.47-191.56-113.43-253.59-1.66-1.45-1.83-3.98-.38-5.64,1.45-1.67,3.98-1.83,5.64-.38,30.72,26.85,59.58,78.47,85.8,153.43,19.43,55.57,30.08,104,30.18,104.48.55,2.49-1.36,4.85-3.91,4.85Z" fill="#292c56"/>
</svg>