<?xml version="1.0" encoding="utf-8"?>
<svg xmlns="http://www.w3.org/2000/svg" enable-background="new 0 0 2800 2119.6" viewBox="0 0 2800 2119.6">
  <g>
    <path d="M2039.2,1424.4c18.3,31.3,58.3,54.3,116.3,67.8c-13.7-25.8-23.5-56.3-28.3-72.5c-36-12-69.4-28.9-99.5-49.9&#xD;&#xA;		C2026.2,1384.5,2027.5,1404.4,2039.2,1424.4z" fill="#81B786"/>
    <path d="M2262.7,2008.4c6.1,10.8,9.8,23.1,9.8,36.3c0,14.7-4.4,28.4-11.8,40H2545v-102.4&#xD;&#xA;		c-78.5,20.6-163.3,26.9-236.3,26.9C2292.6,2009.3,2277.4,2008.9,2262.7,2008.4z" fill="#81B786"/>
    <path d="M2003.9,1798c-0.3,0-32.1-4.2-63.8,0c-16.3,2.2-17,23.4-17,27.6c0.1,15.3,8.2,38.8,29.8,41.6&#xD;&#xA;		c4-1.2,8.2-2.2,12.5-2.8l51.1-0.1c9.6,0,17.4,7.8,17.4,17.4s-7.8,17.4-17.4,17.4h-49c-16.7,2.1-30,18.7-28.2,37.5&#xD;&#xA;		c1.7,18.5,17.6,31.7,36,31.4c3-0.4,5.9,0.6,8.6,2h196.5v-288.2c-69.3-0.8-198.2-0.2-231.4,8.5c-12.1,3.2-19.5,10.6-22.1,22.2&#xD;&#xA;		c-3.6,16.3,3.8,36,17.7,50.3c33-3.1,62.8,0.8,64.1,0.9c9.5,1.3,16.2,10.1,14.9,19.6C2022.2,1792.6,2013.9,1799.3,2003.9,1798z" fill="#FFD2D7"/>
    <circle cx="1131.6" cy="1621.9" fill="#FFFAF3" r="52.5"/>
    <path d="M2255.1,1406c190.6,0,345.8-143.4,345.8-319.8c0-43.1-9.4-84.2-26.2-121.8c-22.3,2.2-43.8,3.5-64,3.5&#xD;&#xA;		c-238.5,0-332.9-141.9-357-187.4c-141.3,40.2-244.3,162-244.3,305.7C1909.4,1262.6,2064.5,1406,2255.1,1406z M2255.1,946&#xD;&#xA;		c17,0,30.8,16.2,30.8,36.2c0,20-13.8,36.2-30.8,36.2c-17,0-30.8-16.2-30.8-36.2C2224.4,962.2,2238.2,946,2255.1,946z M2269,1080.9&#xD;&#xA;		c9.6,0,17.4,7.8,17.4,17.4c0,65.3-53.1,118.5-118.4,118.5c-65.3,0-118.4-53.1-118.4-118.5c0-9.6,7.8-17.4,17.4-17.4H2269z&#xD;&#xA;		 M2067,946c17,0,30.8,16.2,30.8,36.2c0,20-13.8,36.2-30.8,36.2c-17,0-30.8-16.2-30.8-36.2C2036.2,962.2,2050,946,2067,946z" fill="#FFD2D7"/>
    <path d="M2198,2004.8c-0.2,0-0.5,0-0.7-0.1h-351.5c-0.6,0-1.1-0.3-1.7-0.4c-1.4-0.1-2.8-0.4-4.1-0.8&#xD;&#xA;		c-0.7-0.3-1.4-0.6-2.1-1c-1.3-0.7-2.5-1.4-3.5-2.4c-0.6-0.6-1.2-1.2-1.7-1.9c-0.8-1-1.5-2-2.1-3.1c-0.5-1-0.8-2-1.2-3.1&#xD;&#xA;		c-0.2-0.7-0.6-1.2-0.7-2l-131.9-797.6c-3.2-19.4-19.8-33.5-39.5-33.5H466.1c-11.8,0-22.9,5.2-30.5,14.1s-10.9,20.8-9,32.4&#xD;&#xA;		l139.9,845.6c3.2,19.4,19.8,33.5,39.5,33.5h1258.7h83.2h249.9c22.1,0,40-17.9,40-40C2237.7,2022.8,2219.9,2004.9,2198,2004.8z&#xD;&#xA;		 M1131.6,1709.3c-48.2,0-87.4-39.2-87.4-87.4s39.2-87.4,87.4-87.4c48.2,0,87.4,39.2,87.4,87.4S1179.7,1709.3,1131.6,1709.3z" fill="#FF857A"/>
    <path d="M2595.6,1456.6c-111.2,66.4-304,76.7-372.8,78.2l30.7,81c3.4,9-1.1,19-10.1,22.4c-2,0.7-4.1,1.1-6.2,1.1&#xD;&#xA;		c-7,0-13.6-4.3-16.3-11.3l-28.3-74.7l-50.4,66.9c-3.4,4.6-8.6,6.9-13.9,6.9c-3.7,0-7.3-1.2-10.5-3.5c-7.7-5.8-9.2-16.7-3.4-24.4&#xD;&#xA;		l52.1-69.1c-79-14.8-132.1-44.5-157.7-88.8c-5-8.6-8.2-17.1-10.7-25.5c-110.8,41.9-185.2,91.9-206.3,138.9l68.7,415.1h54.5&#xD;&#xA;		c-5.5-8.9-9.4-19-10.4-30.1c-1.7-18.8,4-36.3,14.8-49.9c-20.1-14.6-30.8-39.9-31-64.1c-0.2-21.5,7.7-39.5,20.9-50.7&#xD;&#xA;		c-15.1-21.2-21.6-47.2-16.4-70.4c4.6-20.8,18.4-36.2,37.6-44.4V1552c0-9.6,7.8-17.4,17.4-17.4s17.4,7.8,17.4,17.4v100.3&#xD;&#xA;		c70.3-7.9,219.9-5.5,239-5.1c0.6,0,1.2,0.3,1.8,0.4c34.5,1.6,191.2,5.3,247.4-53.6c14.9-15.7,20.9-34.4,18.1-57.3&#xD;&#xA;		c-1.2-9.5,5.7-18.2,15.2-19.3c9.4-1.4,18.2,5.6,19.3,15.2c4,33.4-5.3,62.1-27.5,85.4c-61.9,64.9-210.6,66.1-263.4,64.8v288.3&#xD;&#xA;		c164.8,11.5,511.6,6.5,547.4-231.4C2782.5,1607.2,2684.8,1513.4,2595.6,1456.6z" fill="#81B786"/>
    <path d="M2168,1182c40.1,0,73.8-28.4,81.8-66.2h-163.6C2094.2,1153.5,2127.9,1182,2168,1182z" fill="#FF857A"/>
    <path d="M2337.9,121.4h-351.3V604h351.3V121.4z M2106.9,207.7h110.6c9.6,0,17.4,7.8,17.4,17.4&#xD;&#xA;		c0,9.6-7.8,17.4-17.4,17.4h-110.6c-9.6,0-17.4-7.8-17.4-17.4C2089.5,215.5,2097.3,207.7,2106.9,207.7z M2255.1,523.4h-185.9&#xD;&#xA;		c-9.6,0-17.4-7.8-17.4-17.4c0-9.6,7.8-17.4,17.4-17.4h185.9c9.6,0,17.4,7.8,17.4,17.4C2272.5,515.6,2264.8,523.4,2255.1,523.4z&#xD;&#xA;		 M2255.1,443.3h-185.9c-9.6,0-17.4-7.8-17.4-17.4s7.8-17.4,17.4-17.4h185.9c9.6,0,17.4,7.8,17.4,17.4S2264.8,443.3,2255.1,443.3z&#xD;&#xA;		 M2255.1,363.2h-185.9c-9.6,0-17.4-7.8-17.4-17.4c0-9.6,7.8-17.4,17.4-17.4h185.9c9.6,0,17.4,7.8,17.4,17.4&#xD;&#xA;		C2272.5,355.5,2264.8,363.2,2255.1,363.2z" fill="#FFFAF3"/>
    <path d="M2372.7,104v413.4h51.8V34.8h-351.3v51.8h282.2C2364.9,86.6,2372.7,94.4,2372.7,104z" fill="#677FB4"/>
    <path d="M2557,930.7c-59.2-97.9-172.2-164.2-301.8-164.2c-22.8,0-45,2.2-66.6,6.1&#xD;&#xA;		C2216.3,821.9,2313.1,949.3,2557,930.7z" fill="#C0735F"/>
    <path d="M755.4,638.8H655.1c-6.2,0-11.1,5-11.1,11.1v6.8c0,6.2,5,11.1,11.1,11.1h100.3c6.2,0,11.1-5,11.1-11.1v-6.8&#xD;&#xA;		C766.5,643.8,761.5,638.8,755.4,638.8z" fill="#677FB4"/>
    <rect fill="#677FB4" height="53" width="282.5" x="564" y="766.4"/>
    <path d="M1020.1,854.2H863.9H546.6H390.4c-24.6,0-44.6,20-44.6,44.5v27.2h718.9v-27.2&#xD;&#xA;		C1064.7,874.2,1044.7,854.2,1020.1,854.2z" fill="#91C7DE"/>
    <path d="M866.1,731.6c38.1,0,69.1-31,69.1-69.1V476.7c0-38.1-31-69.1-69.1-69.1H544.3c-38.1,0-69.1,31-69.1,69.1&#xD;&#xA;		v185.8c0,38.1,31,69.1,69.1,69.1h2.2h317.4H866.1z M705.2,549.6c11,0,20,9,20,20s-9,20-20,20s-20-9-20-20S694.2,549.6,705.2,549.6z&#xD;&#xA;		 M580.4,525.2c0-20,13.8-36.2,30.8-36.2c17,0,30.8,16.2,30.8,36.2c0,20-13.8,36.2-30.8,36.2C594.2,561.4,580.4,545.2,580.4,525.2z&#xD;&#xA;		 M801.3,656.7c0,25.3-20.6,46-46,46H655.1c-25.3,0-46-20.6-46-46v-6.8c0-25.3,20.6-46,46-46h100.3c25.3,0,46,20.6,46,46V656.7z&#xD;&#xA;		 M799.3,561.4c-17,0-30.8-16.2-30.8-36.2c0-20,13.8-36.2,30.8-36.2s30.8,16.2,30.8,36.2C830.1,545.2,816.3,561.4,799.3,561.4z" fill="#91C7DE"/>
    <path d="M735.5,253.8c0-16.7-13.6-30.3-30.3-30.3S675,237.1,675,253.8s13.6,30.2,30.2,30.2S735.5,270.5,735.5,253.8&#xD;&#xA;		z" fill="#FFFAF3"/>
    <path d="M41.4,570.3l-0.2,0.1l28.6,49.5l0.2-0.1c16.9-9.7,37-9.8,53.9,0c16.9,9.7,27,27.2,27,46.6v0.2l57.1-0.2&#xD;&#xA;		c0-19.5,10.1-36.9,26.9-46.7c16.9-9.7,37-9.8,53.9,0l0.2,0.1l28.6-49.5l-0.2-0.1c-16.9-9.8-26.9-27.2-26.9-46.7&#xD;&#xA;		c0-19.5,10.1-36.9,26.9-46.6l0.2-0.1l-28.6-49.5l-0.2,0.1c-16.9,9.8-37,9.8-53.9,0c-16.9-9.8-26.9-27.2-26.9-46.7v-0.2l-57.1,0.2&#xD;&#xA;		c0,19.5-10.1,36.9-27,46.6c-16.9,9.8-37,9.8-53.8,0l-0.2-0.1l-28.6,49.5l0.2,0.1c16.9,9.8,27,27.2,27,46.7&#xD;&#xA;		C68.3,543.1,58.3,560.5,41.4,570.3z M179.3,456.9c36.8,0,66.8,29.9,66.8,66.8s-29.9,66.8-66.8,66.8c-36.8,0-66.8-29.9-66.8-66.8&#xD;&#xA;		S142.5,456.9,179.3,456.9z" fill="#81B786"/>
    <path d="M179.3,555.6c17.6,0,32-14.3,32-31.9c0-17.6-14.3-31.9-32-31.9c-17.6,0-31.9,14.3-31.9,31.9&#xD;&#xA;		C147.3,541.2,161.7,555.6,179.3,555.6z" fill="#FFDA6E"/>
    <path d="M242.7,363.2v17.6c0,9.9,6.7,14.9,9.5,16.5c2.9,1.6,10.5,4.9,19.1,0l15.2-8.8c4-2.3,8.8-2.9,13.2-1.8&#xD;&#xA;		c4.5,1.2,8.3,4.1,10.6,8.1l46,79.6c2.3,4,3,8.8,1.8,13.2c-1.2,4.5-4.1,8.3-8.1,10.6l-15.3,8.8c-8.6,5-9.5,13.2-9.5,16.5&#xD;&#xA;		c0,3.3,0.9,11.5,9.5,16.5l15.3,8.8c4,2.3,6.9,6.1,8.1,10.6c1.2,4.5,0.5,9.2-1.8,13.2l-46,79.6c-2.3,4-6.1,6.9-10.6,8.1&#xD;&#xA;		c-4.4,1.2-9.2,0.5-13.2-1.8l-15.3-8.8c-8.6-4.9-16.1-1.6-19,0c-2.9,1.7-9.5,6.6-9.5,16.5V684c0,9.6-7.8,17.4-17.4,17.4h-28.6v224.5&#xD;&#xA;		H311v-27.2c0-43.7,35.6-79.3,79.4-79.3h138.8v-54.5c-50.1-7.4-88.7-50.3-88.7-102.4V476.7c0-57.3,46.6-103.9,103.9-103.9h143.5&#xD;&#xA;		v-56.6c-27.4-7.7-47.7-32.6-47.7-62.4c0-35.9,29.2-65.1,65.1-65.1c35.9,0,65.1,29.2,65.1,65.1c0,29.8-20.3,54.7-47.7,62.4v56.6&#xD;&#xA;		h143.5c57.3,0,103.9,46.6,103.9,103.9v185.8c0,52.1-38.7,94.9-88.7,102.4v54.5h138.8c43.7,0,79.3,35.6,79.3,79.3v35.4l114.3,78.8&#xD;&#xA;		V121.4H196.7v224.5h28.6C234.9,345.8,242.7,353.6,242.7,363.2z M875.2,268.9l71.5-57.3c4.5-3.6,10.6-4.7,16-3.1&#xD;&#xA;		c5.5,1.7,9.9,6,11.5,11.6l9.9,32.7l51.4-41.2c7.4-6,18.5-4.8,24.4,2.7c6,7.5,4.8,18.4-2.7,24.4L985.9,296c-4.5,3.6-10.6,4.7-16,3.1&#xD;&#xA;		c-5.5-1.7-9.9-6-11.5-11.6l-9.9-32.7L897,296c-3.2,2.6-7,3.8-10.9,3.8c-5.1,0-10.1-2.2-13.6-6.5&#xD;&#xA;		C866.5,285.8,867.7,274.9,875.2,268.9z M350.4,214.2c6-7.5,17-8.7,24.4-2.7l51.5,41.2l9.9-32.7c1.7-5.5,6-9.9,11.5-11.6&#xD;&#xA;		c5.5-1.7,11.5-0.6,16,3.1l71.5,57.3c7.5,6,8.7,17,2.7,24.4c-3.4,4.3-8.5,6.5-13.6,6.5c-3.8,0-7.7-1.3-10.9-3.8L462,254.8l-9.9,32.7&#xD;&#xA;		c-1.7,5.5-6,9.9-11.5,11.6c-5.5,1.6-11.5,0.6-16-3.1l-71.5-57.3C345.6,232.7,344.4,221.7,350.4,214.2z" fill="#FFDA6E"/>
    <path d="M2306,1437.3c-15.4,21.3-38.7,44.1-59,62.1c125-5.2,343.8-33.9,387.5-128.7c10.2-22.2,11.5-41.7,4-59.8&#xD;&#xA;		c-10.7-25.7-36.6-42.3-52.4-50.4C2528.7,1354.9,2426.2,1422.2,2306,1437.3z" fill="#81B786"/>
    <path d="M2167.3,1430.9c9.2,26.6,20.8,51.7,31,64.2c14.1-11.5,39.1-32.6,59.7-54.4c-1,0-1.9,0.1-2.8,0.1&#xD;&#xA;		C2224.9,1440.8,2195.5,1437.1,2167.3,1430.9z" fill="#FFD2D7"/>
    <path d="M2067,1018.4c17,0,30.8-16.2,30.8-36.2c0-20-13.8-36.2-30.8-36.2c-17,0-30.8,16.2-30.8,36.2&#xD;&#xA;		C2036.2,1002.2,2050,1018.4,2067,1018.4z" fill="#1E1E1E"/>
    <path d="M2255.1,1018.4c17,0,30.8-16.2,30.8-36.2c0-20-13.8-36.2-30.8-36.2c-17,0-30.8,16.2-30.8,36.2&#xD;&#xA;		C2224.4,1002.2,2238.2,1018.4,2255.1,1018.4z" fill="#1E1E1E"/>
    <path d="M1131.6,1534.6c-48.2,0-87.4,39.2-87.4,87.4s39.2,87.4,87.4,87.4c48.2,0,87.4-39.2,87.4-87.4&#xD;&#xA;		S1179.7,1534.6,1131.6,1534.6z M1131.6,1674.5c-29,0-52.5-23.6-52.5-52.5c0-29,23.6-52.5,52.5-52.5c29,0,52.5,23.6,52.5,52.5&#xD;&#xA;		C1184.1,1650.9,1160.5,1674.5,1131.6,1674.5z" fill="#1E1E1E"/>
    <path d="M641.9,525.2c0-20-13.8-36.2-30.8-36.2c-17,0-30.8,16.2-30.8,36.2c0,20,13.8,36.2,30.8,36.2&#xD;&#xA;		C628.1,561.4,641.9,545.2,641.9,525.2z" fill="#1E1E1E"/>
    <path d="M799.3,489c-17,0-30.8,16.2-30.8,36.2c0,20,13.8,36.2,30.8,36.2s30.8-16.2,30.8-36.2&#xD;&#xA;		C830.1,505.2,816.3,489,799.3,489z" fill="#1E1E1E"/>
    <circle cx="705.2" cy="569.6" fill="#1E1E1E" r="20"/>
    <path d="M755.4,604H655.1c-25.3,0-46,20.6-46,46v6.8c0,25.3,20.6,46,46,46h100.3c25.3,0,46-20.6,46-46v-6.8&#xD;&#xA;		C801.3,624.6,780.7,604,755.4,604z M766.5,656.7c0,6.2-5,11.1-11.1,11.1H655.1c-6.2,0-11.1-5-11.1-11.1v-6.8&#xD;&#xA;		c0-6.2,5-11.1,11.1-11.1h100.3c6.2,0,11.1,5,11.1,11.1V656.7z" fill="#1E1E1E"/>
    <path d="M424.6,296c4.5,3.6,10.5,4.7,16,3.1c5.5-1.7,9.8-6,11.5-11.6l9.9-32.7l51.5,41.2c3.2,2.6,7,3.8,10.9,3.8&#xD;&#xA;		c5.1,0,10.1-2.2,13.6-6.5c6-7.5,4.8-18.5-2.7-24.4l-71.5-57.3c-4.5-3.6-10.5-4.7-16-3.1c-5.5,1.7-9.8,6-11.5,11.6l-9.9,32.7&#xD;&#xA;		l-51.5-41.2c-7.4-6-18.4-4.8-24.4,2.7c-6,7.5-4.8,18.5,2.7,24.4L424.6,296z" fill="#1E1E1E"/>
    <path d="M886.1,299.8c3.8,0,7.7-1.3,10.9-3.8l51.4-41.2l9.9,32.7c1.7,5.5,6,9.9,11.5,11.6c5.4,1.6,11.5,0.6,16-3.1&#xD;&#xA;		l71.5-57.3c7.5-6,8.7-17,2.7-24.4c-6-7.5-17-8.7-24.4-2.7l-51.4,41.2l-9.9-32.7c-1.7-5.5-6-9.9-11.5-11.6c-5.4-1.7-11.5-0.6-16,3.1&#xD;&#xA;		l-71.5,57.3c-7.5,6-8.7,17-2.7,24.4C876,297.6,881,299.8,886.1,299.8z" fill="#1E1E1E"/>
    <path d="M2049.6,1098.3c0,65.3,53.1,118.5,118.4,118.5c65.3,0,118.4-53.1,118.4-118.5c0-9.6-7.8-17.4-17.4-17.4&#xD;&#xA;		h-202C2057.4,1080.9,2049.6,1088.7,2049.6,1098.3z M2249.8,1115.7c-8,37.8-41.6,66.2-81.8,66.2c-40.1,0-73.8-28.4-81.8-66.2H2249.8&#xD;&#xA;		z" fill="#1E1E1E"/>
    <path d="M58.9,660.5c4.4,1.2,9.2,0.5,13.2-1.8l15.2-8.8c8.6-5,16.1-1.6,19,0c2.9,1.7,9.6,6.6,9.6,16.5V684&#xD;&#xA;		c0,9.6,7.8,17.4,17.4,17.4h28.6v241.9c0,9.6,7.8,17.4,17.4,17.4h149.1h748.3l144.7,99.7c3,2,6.4,3.1,9.9,3.1c2.8,0,5.5-0.6,8.1-2&#xD;&#xA;		c5.7-3,9.3-8.9,9.3-15.4V104c0-9.6-7.8-17.4-17.4-17.4H179.3c-9.6,0-17.4,7.8-17.4,17.4v241.9h-28.6c-9.6,0-17.4,7.8-17.4,17.4&#xD;&#xA;		v17.6c0,9.9-6.7,14.9-9.6,16.5c-2.8,1.6-10.5,5-19,0l-15.3-8.8c-4-2.3-8.8-2.9-13.2-1.8c-4.5,1.2-8.3,4.1-10.6,8.1l-46,79.6&#xD;&#xA;		c-2.3,4-3,8.8-1.7,13.2c1.2,4.5,4.1,8.3,8.1,10.6l15.3,8.8c8.6,5,9.5,13.2,9.5,16.5c0,3.3-0.9,11.5-9.5,16.5l-15.3,8.8&#xD;&#xA;		c-4,2.3-6.9,6.1-8.1,10.6c-1.2,4.5-0.6,9.2,1.7,13.2l46,79.6C50.6,656.4,54.4,659.3,58.9,660.5z M1064.7,925.9H345.8v-27.2&#xD;&#xA;		c0-24.5,20-44.5,44.6-44.5h156.2h317.4h156.2c24.5,0,44.5,20,44.5,44.5V925.9z M546.6,731.6h-2.2c-38.1,0-69.1-31-69.1-69.1V476.7&#xD;&#xA;		c0-38.1,31-69.1,69.1-69.1h321.8c38.1,0,69.1,31,69.1,69.1v185.8c0,38.1-31,69.1-69.1,69.1h-2.2H546.6z M846.5,766.4v53H564v-53&#xD;&#xA;		H846.5z M196.7,121.4h1017.1v891.5l-114.3-78.8v-35.4c0-43.7-35.6-79.3-79.3-79.3H881.3v-54.5c50.1-7.4,88.7-50.3,88.7-102.4V476.7&#xD;&#xA;		c0-57.3-46.6-103.9-103.9-103.9H722.6v-56.6c27.4-7.7,47.7-32.6,47.7-62.4c0-35.9-29.2-65.1-65.1-65.1c-35.9,0-65.1,29.2-65.1,65.1&#xD;&#xA;		c0,29.8,20.3,54.7,47.7,62.4v56.6H544.3c-57.3,0-103.9,46.6-103.9,103.9v185.8c0,52.1,38.7,95,88.7,102.4v54.5H390.4&#xD;&#xA;		c-43.8,0-79.4,35.6-79.4,79.3v27.2H196.7V701.4h28.6c9.6,0,17.4-7.8,17.4-17.4v-17.6c0-9.9,6.7-14.9,9.5-16.5&#xD;&#xA;		c2.9-1.6,10.4-4.9,19,0l15.3,8.8c4,2.3,8.8,2.9,13.2,1.8c4.5-1.2,8.3-4.1,10.6-8.1l46-79.6c2.3-4,3-8.8,1.8-13.2&#xD;&#xA;		c-1.2-4.5-4.1-8.3-8.1-10.6l-15.3-8.8c-8.6-5-9.5-13.2-9.5-16.5c0-3.3,0.9-11.5,9.5-16.5l15.3-8.8c4-2.3,6.9-6.1,8.1-10.6&#xD;&#xA;		c1.2-4.5,0.5-9.2-1.8-13.2l-46-79.6c-2.3-4-6.1-6.9-10.6-8.1c-4.4-1.1-9.2-0.5-13.2,1.8l-15.2,8.8c-8.5,4.9-16.1,1.6-19.1,0&#xD;&#xA;		c-2.9-1.7-9.5-6.6-9.5-16.5v-17.6c0-9.6-7.8-17.4-17.4-17.4h-28.6V121.4z M705.2,284c-16.7,0-30.2-13.6-30.2-30.2&#xD;&#xA;		s13.6-30.3,30.2-30.3s30.3,13.6,30.3,30.3S721.9,284,705.2,284z M41.4,477l-0.2-0.1l28.6-49.5l0.2,0.1c16.9,9.8,37,9.8,53.8,0&#xD;&#xA;		c16.9-9.7,27-27.2,27-46.6l57.1-0.2v0.2c0,19.5,10.1,36.9,26.9,46.7c16.9,9.8,37,9.7,53.9,0l0.2-0.1l28.6,49.5l-0.2,0.1&#xD;&#xA;		c-16.9,9.7-26.9,27.2-26.9,46.6c0,19.5,10.1,36.9,26.9,46.7l0.2,0.1l-28.6,49.5l-0.2-0.1c-16.9-9.8-37-9.8-53.9,0&#xD;&#xA;		c-16.9,9.8-26.9,27.2-26.9,46.7l-57.1,0.2v-0.2c0-19.5-10.1-36.9-27-46.6c-16.9-9.8-36.9-9.7-53.9,0l-0.2,0.1l-28.6-49.5l0.2-0.1&#xD;&#xA;		c16.9-9.7,26.9-27.2,26.9-46.6C68.3,504.2,58.3,486.7,41.4,477z" fill="#1E1E1E"/>
    <path d="M179.3,590.4c36.8,0,66.8-29.9,66.8-66.8s-29.9-66.8-66.8-66.8c-36.8,0-66.8,29.9-66.8,66.8&#xD;&#xA;		S142.5,590.4,179.3,590.4z M179.3,491.7c17.6,0,32,14.3,32,31.9c0,17.6-14.3,31.9-32,31.9c-17.6,0-31.9-14.3-31.9-31.9&#xD;&#xA;		C147.3,506,161.7,491.7,179.3,491.7z" fill="#1E1E1E"/>
    <path d="M2626.4,1435.1c17.2-14.5,31-30.9,39.8-49.9c14.3-31.1,15.8-60.6,4.5-87.9c-14.7-35.3-47.5-56.8-67.9-67.5&#xD;&#xA;		c21-44,32.9-92.5,32.9-143.6c0-52.4-12.6-102-34.6-146.8c-0.5-1-0.9-2-1.5-3c-60.7-120.8-192.1-204.8-344.5-204.8&#xD;&#xA;		c-33,0-64.8,4.3-95.4,11.7c-1,0.2-2.1,0.1-3.1,0.5c-0.2,0.1-0.3,0.2-0.5,0.3c-161.9,40.7-281.6,178.4-281.6,342&#xD;&#xA;		c0,102.5,47.2,194.7,122.1,259.5c-2.1,8.4-4.2,20.5-4.1,34.8c-74.7,27.6-162.4,69.1-209.2,123.4l-52.5-317.1&#xD;&#xA;		c-6-36.3-37-62.6-73.8-62.6H466.1c-22,0-42.8,9.6-57,26.4c-14.2,16.8-20.4,38.9-16.8,60.6L532.2,2057c6,36.3,37,62.6,73.8,62.6&#xD;&#xA;		h1258.7h83.2h249.9h364.7c9.6,0,17.4-7.8,17.4-17.4v-130c108.5-35.8,198.5-103.3,217.1-227.2&#xD;&#xA;		C2818.7,1600.2,2720.9,1498.3,2626.4,1435.1z M2638.6,1310.9c7.5,18.1,6.2,37.6-4,59.8c-43.7,94.9-262.5,123.5-387.5,128.7&#xD;&#xA;		c20.3-18,43.6-40.9,59-62.1c120.2-15.1,222.8-82.4,280.2-176.8C2602,1268.6,2627.9,1285.2,2638.6,1310.9z M2198.2,1495.1&#xD;&#xA;		c-10.2-12.5-21.7-37.6-31-64.2c28.3,6.3,57.6,9.9,87.9,9.9c1,0,1.9-0.1,2.8-0.1C2237.4,1462.4,2212.4,1483.6,2198.2,1495.1z&#xD;&#xA;		 M2255.1,766.4c129.6,0,242.6,66.4,301.8,164.2c-243.9,18.6-340.6-108.8-368.4-158.2C2210.1,768.6,2232.4,766.4,2255.1,766.4z&#xD;&#xA;		 M1909.4,1086.2c0-143.7,103-265.5,244.3-305.7c24.1,45.5,118.5,187.4,357,187.4c20.2,0,41.7-1.3,64-3.5&#xD;&#xA;		c16.8,37.6,26.2,78.7,26.2,121.8c0,176.3-155.1,319.8-345.8,319.8C2064.5,1406,1909.4,1262.6,1909.4,1086.2z M2155.4,1492.2&#xD;&#xA;		c-57.9-13.5-98-36.5-116.3-67.8c-11.7-20-12.9-39.9-11.5-54.6c30.1,21,63.5,37.9,99.5,49.9&#xD;&#xA;		C2131.9,1436,2141.7,1466.4,2155.4,1492.2z M2197.7,2084.8h-249.9h-83.2H606c-19.6,0-36.2-14.1-39.5-33.5l-139.9-845.6&#xD;&#xA;		c-1.9-11.6,1.4-23.4,9-32.4s18.7-14.1,30.5-14.1h1191.1c19.7,0,36.3,14.1,39.5,33.5l131.9,797.6c0.1,0.7,0.5,1.3,0.7,2&#xD;&#xA;		c0.3,1.1,0.6,2.1,1.2,3.1c0.6,1.2,1.3,2.1,2.1,3.1c0.6,0.7,1.1,1.3,1.7,1.9c1.1,1,2.2,1.7,3.5,2.4c0.7,0.4,1.4,0.7,2.1,1&#xD;&#xA;		c1.3,0.5,2.7,0.7,4.1,0.8c0.6,0.1,1.1,0.4,1.7,0.4h351.5c0.2,0,0.5,0,0.7,0.1c21.9,0.1,39.7,18,39.7,40&#xD;&#xA;		C2237.7,2066.8,2219.8,2084.8,2197.7,2084.8z M2008.6,1763.5c-1.4-0.2-31.2-4-64.1-0.9c-13.9-14.2-21.3-33.9-17.7-50.3&#xD;&#xA;		c2.6-11.6,10-19,22.1-22.2c33.2-8.7,162.1-9.2,231.4-8.5v288.2h-196.5c-2.7-1.4-5.5-2.3-8.6-2c-18.4,0.3-34.3-12.9-36-31.4&#xD;&#xA;		c-1.8-18.8,11.6-35.3,28.2-37.5h49c9.6,0,17.4-7.8,17.4-17.4s-7.8-17.4-17.4-17.4l-51.1,0.1c-4.3,0.5-8.5,1.5-12.5,2.8&#xD;&#xA;		c-21.6-2.8-29.7-26.3-29.8-41.6c0-4.2,0.6-25.4,17-27.6c31.7-4.2,63.5,0,63.8,0c10,1.3,18.3-5.4,19.6-14.9&#xD;&#xA;		C2024.8,1773.6,2018.1,1764.8,2008.6,1763.5z M2545,2084.8h-284.3c7.4-11.6,11.8-25.3,11.8-40c0-13.3-3.8-25.5-9.8-36.3&#xD;&#xA;		c14.7,0.5,29.9,0.9,46,0.9c73,0,157.8-6.3,236.3-26.9V2084.8z M2762.5,1739.8c-35.8,237.8-382.6,242.9-547.4,231.4v-288.3&#xD;&#xA;		c52.8,1.3,201.6,0.1,263.4-64.8c22.3-23.3,31.5-52,27.5-85.4c-1.1-9.6-9.9-16.6-19.3-15.2c-9.6,1.1-16.4,9.8-15.2,19.3&#xD;&#xA;		c2.7,22.9-3.2,41.6-18.1,57.3c-56.2,58.9-212.9,55.1-247.4,53.6c-0.6-0.1-1.2-0.4-1.8-0.4c-19.1-0.4-168.6-2.8-239,5.1V1552&#xD;&#xA;		c0-9.6-7.8-17.4-17.4-17.4s-17.4,7.8-17.4,17.4v108.4c-19.3,8.2-33,23.6-37.6,44.4c-5.2,23.2,1.3,49.3,16.4,70.4&#xD;&#xA;		c-13.2,11.2-21.1,29.1-20.9,50.7c0.2,24.2,10.9,49.5,31,64.1c-10.8,13.5-16.5,31.1-14.8,49.9c1,11.1,4.9,21.2,10.4,30.1h-54.5&#xD;&#xA;		l-68.7-415.1c21-47,95.4-97.1,206.3-138.9c2.5,8.4,5.7,16.9,10.7,25.5c25.6,44.3,78.6,74,157.7,88.8l-52.1,69.1&#xD;&#xA;		c-5.8,7.6-4.2,18.6,3.4,24.4c3.1,2.3,6.8,3.5,10.5,3.5c5.3,0,10.5-2.4,13.9-6.9l50.4-66.9l28.3,74.7c2.7,7,9.2,11.3,16.3,11.3&#xD;&#xA;		c2,0,4.1-0.4,6.2-1.1c9-3.4,13.5-13.5,10.1-22.4l-30.7-81c68.7-1.5,261.6-11.8,372.8-78.2&#xD;&#xA;		C2684.8,1513.4,2782.5,1607.2,2762.5,1739.8z" fill="#1E1E1E"/>
    <path d="M1437.4,229h325.4c9.6,0,17.4-7.8,17.4-17.4c0-9.6-7.8-17.4-17.4-17.4h-283.4l37.4-37.4&#xD;&#xA;		c6.8-6.8,6.8-17.8,0-24.6c-6.8-6.8-17.8-6.8-24.6,0l-67.1,67.1c-5,5-6.5,12.5-3.8,19S1430.4,229,1437.4,229z" fill="#1E1E1E"/>
    <path d="M1437.4,347.1h283.4l-37.4,37.5c-6.8,6.8-6.8,17.8,0,24.6c3.4,3.4,7.9,5.1,12.3,5.1s8.9-1.7,12.3-5.1&#xD;&#xA;		l67.1-67.2c5-5,6.5-12.5,3.8-19c-2.7-6.5-9-10.7-16.1-10.7h-325.4c-9.6,0-17.4,7.8-17.4,17.4C1420,339.3,1427.8,347.1,1437.4,347.1&#xD;&#xA;		z" fill="#1E1E1E"/>
    <path d="M1969.1,638.8h386.1c9.6,0,17.4-7.8,17.4-17.4v-69.2h69.2c9.6,0,17.4-7.8,17.4-17.4V17.4&#xD;&#xA;		c0-9.6-7.8-17.4-17.4-17.4h-386.1c-9.6,0-17.4,7.8-17.4,17.4v69.2h-69.2c-9.6,0-17.4,7.8-17.4,17.4v517.4&#xD;&#xA;		C1951.7,631,1959.5,638.8,1969.1,638.8z M2073.1,34.8h351.3v482.6h-51.8V104c0-9.6-7.8-17.4-17.4-17.4h-282.2V34.8z M1986.5,121.4&#xD;&#xA;		h351.3V604h-351.3V121.4z" fill="#1E1E1E"/>
    <path d="M2106.9,242.5h110.6c9.6,0,17.4-7.8,17.4-17.4c0-9.6-7.8-17.4-17.4-17.4h-110.6c-9.6,0-17.4,7.8-17.4,17.4&#xD;&#xA;		C2089.5,234.7,2097.3,242.5,2106.9,242.5z" fill="#1E1E1E"/>
    <path d="M2255.1,328.4h-185.9c-9.6,0-17.4,7.8-17.4,17.4c0,9.6,7.8,17.4,17.4,17.4h185.9c9.6,0,17.4-7.8,17.4-17.4&#xD;&#xA;		C2272.5,336.2,2264.8,328.4,2255.1,328.4z" fill="#1E1E1E"/>
    <path d="M2255.1,408.5h-185.9c-9.6,0-17.4,7.8-17.4,17.4s7.8,17.4,17.4,17.4h185.9c9.6,0,17.4-7.8,17.4-17.4&#xD;&#xA;		S2264.8,408.5,2255.1,408.5z" fill="#1E1E1E"/>
    <path d="M2255.1,488.6h-185.9c-9.6,0-17.4,7.8-17.4,17.4c0,9.6,7.8,17.4,17.4,17.4h185.9c9.6,0,17.4-7.8,17.4-17.4&#xD;&#xA;		C2272.5,496.4,2264.8,488.6,2255.1,488.6z" fill="#1E1E1E"/>
  </g>
</svg>